<svg width="159" height="42" viewBox="0 0 159 42" fill="none" xmlns="http://www.w3.org/2000/svg">
<path d="M9.49756 0.939362C4.52834 0.939362 0.5 4.96772 0.5 9.93694V32.4475C0.5 37.4167 4.52833 41.445 9.49755 41.445H149.158C154.127 41.445 158.156 37.4167 158.156 32.4475V9.93692C158.156 4.96771 154.127 0.939362 149.158 0.939362H9.49756Z" fill="#7B7B7B" stroke="#DADADA"/>
<path d="M26.05 25.09C25.33 25.09 24.7 24.94 24.16 24.64C23.6267 24.3333 23.2167 23.9067 22.93 23.36C22.6433 22.8067 22.5 22.1633 22.5 21.43C22.5 20.7033 22.6433 20.0667 22.93 19.52C23.2167 18.9667 23.6267 18.54 24.16 18.24C24.7 17.94 25.33 17.79 26.05 17.79C26.5233 17.79 26.9733 17.8633 27.4 18.01C27.8333 18.15 28.1867 18.35 28.46 18.61L27.97 19.73C27.65 19.49 27.3367 19.3167 27.03 19.21C26.73 19.0967 26.4133 19.04 26.08 19.04C25.44 19.04 24.95 19.2433 24.61 19.65C24.27 20.0567 24.1 20.65 24.1 21.43C24.1 22.2167 24.27 22.8167 24.61 23.23C24.95 23.6367 25.44 23.84 26.08 23.84C26.4133 23.84 26.73 23.7867 27.03 23.68C27.3367 23.5667 27.65 23.39 27.97 23.15L28.46 24.27C28.1867 24.53 27.8333 24.7333 27.4 24.88C26.9733 25.02 26.5233 25.09 26.05 25.09ZM32.578 25.08C32.038 25.08 31.5647 24.9733 31.158 24.76C30.758 24.5467 30.448 24.24 30.228 23.84C30.0147 23.44 29.908 22.9733 29.908 22.44C29.908 21.9067 30.0147 21.44 30.228 21.04C30.448 20.64 30.758 20.3333 31.158 20.12C31.5647 19.9067 32.038 19.8 32.578 19.8C33.1114 19.8 33.578 19.9067 33.978 20.12C34.378 20.3333 34.6847 20.64 34.898 21.04C35.118 21.44 35.228 21.9067 35.228 22.44C35.228 22.9733 35.118 23.44 34.898 23.84C34.6847 24.24 34.378 24.5467 33.978 24.76C33.578 24.9733 33.1114 25.08 32.578 25.08ZM32.578 23.93C32.9514 23.93 33.2347 23.8067 33.428 23.56C33.628 23.3133 33.728 22.94 33.728 22.44C33.728 21.9467 33.628 21.5767 33.428 21.33C33.2347 21.0767 32.9514 20.95 32.578 20.95C32.198 20.95 31.908 21.0767 31.708 21.33C31.508 21.5767 31.408 21.9467 31.408 22.44C31.408 23.4333 31.798 23.93 32.578 23.93ZM40.1232 19.8C41.3232 19.8 41.9232 20.51 41.9232 21.93V25H40.4132V22C40.4132 21.6467 40.3465 21.39 40.2132 21.23C40.0865 21.0633 39.8832 20.98 39.6032 20.98C39.2699 20.98 39.0032 21.0867 38.8032 21.3C38.6032 21.5133 38.5032 21.8 38.5032 22.16V25H36.9932V21.38C36.9932 20.84 36.9665 20.3567 36.9132 19.93H38.3332L38.4332 20.73C38.6132 20.43 38.8465 20.2 39.1332 20.04C39.4265 19.88 39.7565 19.8 40.1232 19.8ZM47.056 19.8C48.256 19.8 48.856 20.51 48.856 21.93V25H47.346V22C47.346 21.6467 47.2793 21.39 47.146 21.23C47.0193 21.0633 46.816 20.98 46.536 20.98C46.2027 20.98 45.936 21.0867 45.736 21.3C45.536 21.5133 45.436 21.8 45.436 22.16V25H43.926V21.38C43.926 20.84 43.8993 20.3567 43.846 19.93H45.266L45.366 20.73C45.546 20.43 45.7793 20.2 46.066 20.04C46.3593 19.88 46.6893 19.8 47.056 19.8ZM55.4088 22.59H52.0688C52.0955 23.0633 52.2188 23.41 52.4388 23.63C52.6588 23.8433 52.9855 23.95 53.4188 23.95C53.6788 23.95 53.9388 23.9067 54.1988 23.82C54.4588 23.7333 54.6988 23.6067 54.9188 23.44L55.3188 24.46C55.0788 24.6533 54.7788 24.8067 54.4188 24.92C54.0655 25.0267 53.7088 25.08 53.3488 25.08C52.4955 25.08 51.8255 24.8467 51.3388 24.38C50.8522 23.9067 50.6088 23.2633 50.6088 22.45C50.6088 21.9367 50.7122 21.48 50.9188 21.08C51.1322 20.6733 51.4288 20.36 51.8088 20.14C52.1888 19.9133 52.6188 19.8 53.0988 19.8C53.8122 19.8 54.3755 20.0333 54.7888 20.5C55.2022 20.96 55.4088 21.5833 55.4088 22.37V22.59ZM53.1388 20.86C52.8522 20.86 52.6188 20.9433 52.4388 21.11C52.2655 21.2767 52.1522 21.52 52.0988 21.84H54.1088C54.0288 21.1867 53.7055 20.86 53.1388 20.86ZM59.5569 25.08C58.7302 25.08 58.0802 24.8467 57.6069 24.38C57.1402 23.9133 56.9069 23.2767 56.9069 22.47C56.9069 21.9433 57.0202 21.48 57.2469 21.08C57.4735 20.6733 57.7902 20.36 58.1969 20.14C58.6102 19.9133 59.0869 19.8 59.6269 19.8C59.9935 19.8 60.3502 19.8567 60.6969 19.97C61.0435 20.0833 61.3202 20.2367 61.5269 20.43L61.1269 21.48C60.9269 21.32 60.7069 21.1967 60.4669 21.11C60.2269 21.0167 59.9935 20.97 59.7669 20.97C59.3535 20.97 59.0302 21.0967 58.7969 21.35C58.5702 21.5967 58.4569 21.96 58.4569 22.44C58.4569 22.9267 58.5702 23.2967 58.7969 23.55C59.0235 23.7967 59.3469 23.92 59.7669 23.92C59.9935 23.92 60.2269 23.8767 60.4669 23.79C60.7069 23.6967 60.9269 23.57 61.1269 23.41L61.5269 24.46C61.3069 24.6533 61.0202 24.8067 60.6669 24.92C60.3135 25.0267 59.9435 25.08 59.5569 25.08ZM64.9936 21.06V23.03C64.9936 23.31 65.0669 23.5167 65.2136 23.65C65.3603 23.7767 65.5503 23.84 65.7836 23.84C65.9303 23.84 66.0969 23.8167 66.2836 23.77V24.94C66.0436 25.0333 65.7536 25.08 65.4136 25.08C64.7869 25.08 64.3069 24.9033 63.9736 24.55C63.6469 24.1967 63.4836 23.7 63.4836 23.06V21.06H62.5236V19.93H63.4836V18.74L64.9936 18.25V19.93H66.2836V21.06H64.9936ZM76.4709 19.93L74.1309 25.27C73.8443 25.9167 73.4809 26.39 73.0409 26.69C72.6076 26.9967 72.0743 27.1933 71.4409 27.28L71.0909 26.12C71.5576 26.02 71.9076 25.8933 72.1409 25.74C72.3809 25.5867 72.5676 25.3633 72.7009 25.07L72.8509 24.74L70.7609 19.93H72.3409L73.6409 23.22L74.9809 19.93H76.4709ZM80.0913 25.08C79.5513 25.08 79.078 24.9733 78.6713 24.76C78.2713 24.5467 77.9613 24.24 77.7413 23.84C77.528 23.44 77.4213 22.9733 77.4213 22.44C77.4213 21.9067 77.528 21.44 77.7413 21.04C77.9613 20.64 78.2713 20.3333 78.6713 20.12C79.078 19.9067 79.5513 19.8 80.0913 19.8C80.6247 19.8 81.0913 19.9067 81.4913 20.12C81.8913 20.3333 82.198 20.64 82.4113 21.04C82.6313 21.44 82.7413 21.9067 82.7413 22.44C82.7413 22.9733 82.6313 23.44 82.4113 23.84C82.198 24.24 81.8913 24.5467 81.4913 24.76C81.0913 24.9733 80.6247 25.08 80.0913 25.08ZM80.0913 23.93C80.4647 23.93 80.748 23.8067 80.9413 23.56C81.1413 23.3133 81.2413 22.94 81.2413 22.44C81.2413 21.9467 81.1413 21.5767 80.9413 21.33C80.748 21.0767 80.4647 20.95 80.0913 20.95C79.7113 20.95 79.4213 21.0767 79.2213 21.33C79.0213 21.5767 78.9213 21.9467 78.9213 22.44C78.9213 23.4333 79.3113 23.93 80.0913 23.93ZM89.3465 19.93V25H87.8765V24.26C87.7165 24.5267 87.5065 24.73 87.2465 24.87C86.9865 25.01 86.6932 25.08 86.3665 25.08C85.7332 25.08 85.2598 24.9033 84.9465 24.55C84.6332 24.1967 84.4765 23.6633 84.4765 22.95V19.93H85.9865V22.98C85.9865 23.5933 86.2498 23.9 86.7765 23.9C87.0898 23.9 87.3432 23.7933 87.5365 23.58C87.7298 23.3667 87.8265 23.0867 87.8265 22.74V19.93H89.3465ZM94.3209 19.81C94.5343 19.81 94.7143 19.8433 94.8609 19.91L94.8509 21.29C94.6043 21.1767 94.3576 21.12 94.1109 21.12C93.7109 21.12 93.4043 21.23 93.1909 21.45C92.9843 21.6633 92.8809 21.9633 92.8809 22.35V25H91.3709V21.38C91.3709 20.84 91.3443 20.3567 91.2909 19.93H92.7109L92.8109 20.8C92.9376 20.48 93.1343 20.2367 93.4009 20.07C93.6743 19.8967 93.9809 19.81 94.3209 19.81ZM108.175 19.93L106.125 25H104.855L103.705 22.06L102.605 25H101.325L99.275 19.93H100.815L102.035 23.2L103.245 19.93H104.275L105.495 23.23L106.715 19.93H108.175ZM114.574 19.93V25H113.084V24.25C112.93 24.51 112.714 24.7133 112.434 24.86C112.154 25.0067 111.837 25.08 111.484 25.08C111.044 25.08 110.654 24.9733 110.314 24.76C109.98 24.5467 109.717 24.2433 109.524 23.85C109.337 23.45 109.244 22.99 109.244 22.47C109.244 21.95 109.337 21.4867 109.524 21.08C109.717 20.6733 109.984 20.36 110.324 20.14C110.664 19.9133 111.05 19.8 111.484 19.8C111.837 19.8 112.154 19.8767 112.434 20.03C112.714 20.1833 112.93 20.39 113.084 20.65V19.93H114.574ZM111.924 23.93C112.297 23.93 112.584 23.8033 112.784 23.55C112.984 23.2967 113.084 22.93 113.084 22.45C113.084 21.97 112.984 21.6033 112.784 21.35C112.584 21.09 112.297 20.96 111.924 20.96C111.55 20.96 111.26 21.0933 111.054 21.36C110.847 21.6267 110.744 21.9967 110.744 22.47C110.744 22.9433 110.844 23.3067 111.044 23.56C111.25 23.8067 111.544 23.93 111.924 23.93ZM116.592 17.64H118.102V25H116.592V17.64ZM120.137 17.64H121.647V25H120.137V17.64ZM128.231 22.59H124.891C124.917 23.0633 125.041 23.41 125.261 23.63C125.481 23.8433 125.807 23.95 126.241 23.95C126.501 23.95 126.761 23.9067 127.021 23.82C127.281 23.7333 127.521 23.6067 127.741 23.44L128.141 24.46C127.901 24.6533 127.601 24.8067 127.241 24.92C126.887 25.0267 126.531 25.08 126.171 25.08C125.317 25.08 124.647 24.8467 124.161 24.38C123.674 23.9067 123.431 23.2633 123.431 22.45C123.431 21.9367 123.534 21.48 123.741 21.08C123.954 20.6733 124.251 20.36 124.631 20.14C125.011 19.9133 125.441 19.8 125.921 19.8C126.634 19.8 127.197 20.0333 127.611 20.5C128.024 20.96 128.231 21.5833 128.231 22.37V22.59ZM125.961 20.86C125.674 20.86 125.441 20.9433 125.261 21.11C125.087 21.2767 124.974 21.52 124.921 21.84H126.931C126.851 21.1867 126.527 20.86 125.961 20.86ZM131.781 21.06V23.03C131.781 23.31 131.854 23.5167 132.001 23.65C132.148 23.7767 132.338 23.84 132.571 23.84C132.718 23.84 132.884 23.8167 133.071 23.77V24.94C132.831 25.0333 132.541 25.08 132.201 25.08C131.574 25.08 131.094 24.9033 130.761 24.55C130.434 24.1967 130.271 23.7 130.271 23.06V21.06H129.311V19.93H130.271V18.74L131.781 18.25V19.93H133.071V21.06H131.781Z" fill="white"/>
</svg>
