<svg width="427" height="65" viewBox="0 0 427 65" fill="none" xmlns="http://www.w3.org/2000/svg">
<path d="M30.5644 14.162C29.2924 14.162 28.1824 13.898 27.2344 13.37C26.2984 12.83 25.5724 12.062 25.0564 11.066C24.5524 10.07 24.3004 8.906 24.3004 7.574C24.3004 6.242 24.5524 5.084 25.0564 4.1C25.5724 3.116 26.2984 2.36 27.2344 1.832C28.1824 1.292 29.2924 1.022 30.5644 1.022C31.8364 1.022 32.9404 1.292 33.8764 1.832C34.8124 2.36 35.5324 3.116 36.0364 4.1C36.5404 5.084 36.7924 6.242 36.7924 7.574C36.7924 8.906 36.5404 10.07 36.0364 11.066C35.5324 12.062 34.8124 12.83 33.8764 13.37C32.9404 13.898 31.8364 14.162 30.5644 14.162ZM30.5644 11.966C31.6444 11.966 32.4844 11.588 33.0844 10.832C33.6964 10.076 34.0024 8.99 34.0024 7.574C34.0024 6.158 33.6964 5.078 33.0844 4.334C32.4844 3.59 31.6444 3.218 30.5644 3.218C29.4844 3.218 28.6384 3.59 28.0264 4.334C27.4264 5.078 27.1264 6.158 27.1264 7.574C27.1264 9.002 27.4264 10.094 28.0264 10.85C28.6384 11.594 29.4844 11.966 30.5644 11.966ZM44.387 4.64C45.167 4.64 45.863 4.844 46.475 5.252C47.087 5.648 47.561 6.212 47.897 6.944C48.245 7.676 48.419 8.51 48.419 9.446C48.419 10.382 48.251 11.21 47.915 11.93C47.579 12.638 47.105 13.184 46.493 13.568C45.881 13.952 45.179 14.144 44.387 14.144C43.751 14.144 43.181 14.012 42.677 13.748C42.173 13.484 41.789 13.118 41.525 12.65V17.888H38.807V7.484C38.807 6.512 38.759 5.642 38.663 4.874H41.219L41.399 6.386C41.639 5.846 42.023 5.42 42.551 5.108C43.091 4.796 43.703 4.64 44.387 4.64ZM43.613 12.074C44.285 12.074 44.801 11.852 45.161 11.408C45.521 10.952 45.701 10.298 45.701 9.446C45.701 8.594 45.515 7.928 45.143 7.448C44.783 6.968 44.273 6.728 43.613 6.728C42.941 6.728 42.419 6.962 42.047 7.43C41.687 7.886 41.507 8.546 41.507 9.41C41.507 10.274 41.687 10.934 42.047 11.39C42.419 11.846 42.941 12.074 43.613 12.074ZM58.3525 9.662H52.3405C52.3885 10.514 52.6105 11.138 53.0065 11.534C53.4025 11.918 53.9905 12.11 54.7705 12.11C55.2385 12.11 55.7065 12.032 56.1745 11.876C56.6425 11.72 57.0745 11.492 57.4705 11.192L58.1905 13.028C57.7585 13.376 57.2185 13.652 56.5705 13.856C55.9345 14.048 55.2925 14.144 54.6445 14.144C53.1085 14.144 51.9025 13.724 51.0265 12.884C50.1505 12.032 49.7125 10.874 49.7125 9.41C49.7125 8.486 49.8985 7.664 50.2705 6.944C50.6545 6.212 51.1885 5.648 51.8725 5.252C52.5565 4.844 53.3305 4.64 54.1945 4.64C55.4785 4.64 56.4925 5.06 57.2365 5.9C57.9805 6.728 58.3525 7.85 58.3525 9.266V9.662ZM54.2665 6.548C53.7505 6.548 53.3305 6.698 53.0065 6.998C52.6945 7.298 52.4905 7.736 52.3945 8.312H56.0125C55.8685 7.136 55.2865 6.548 54.2665 6.548ZM65.6929 4.64C67.8529 4.64 68.9329 5.918 68.9329 8.474V14H66.2149V8.6C66.2149 7.964 66.0949 7.502 65.8549 7.214C65.6269 6.914 65.2609 6.764 64.7569 6.764C64.1569 6.764 63.6769 6.956 63.3169 7.34C62.9569 7.724 62.7769 8.24 62.7769 8.888V14H60.0589V7.484C60.0589 6.512 60.0109 5.642 59.9149 4.874H62.4709L62.6509 6.314C62.9749 5.774 63.3949 5.36 63.9109 5.072C64.4389 4.784 65.0329 4.64 65.6929 4.64ZM75.76 14.162C74.788 14.162 73.852 14.036 72.952 13.784C72.064 13.52 71.326 13.154 70.738 12.686L71.638 10.67C72.874 11.534 74.254 11.966 75.778 11.966C76.594 11.966 77.218 11.84 77.65 11.588C78.094 11.324 78.316 10.958 78.316 10.49C78.316 10.082 78.112 9.764 77.704 9.536C77.308 9.296 76.606 9.068 75.598 8.852C74.47 8.624 73.57 8.348 72.898 8.024C72.238 7.688 71.752 7.286 71.44 6.818C71.14 6.338 70.99 5.744 70.99 5.036C70.99 4.268 71.2 3.578 71.62 2.966C72.052 2.354 72.652 1.88 73.42 1.544C74.188 1.196 75.076 1.022 76.084 1.022C76.996 1.022 77.872 1.154 78.712 1.418C79.552 1.682 80.224 2.042 80.728 2.498L79.828 4.514C78.7 3.65 77.458 3.218 76.102 3.218C75.382 3.218 74.806 3.362 74.374 3.65C73.942 3.938 73.726 4.328 73.726 4.82C73.726 5.108 73.804 5.348 73.96 5.54C74.128 5.732 74.404 5.906 74.788 6.062C75.172 6.206 75.718 6.35 76.426 6.494C78.07 6.854 79.252 7.322 79.972 7.898C80.704 8.474 81.07 9.26 81.07 10.256C81.07 11.456 80.602 12.41 79.666 13.118C78.73 13.814 77.428 14.162 75.76 14.162ZM89.2281 14L85.6461 9.914V14H82.9281V0.751999H85.6461V8.798L89.0661 4.892H92.3241L88.4541 9.266L92.5581 14H89.2281ZM102.071 4.874L97.8587 14.486C97.3427 15.65 96.6887 16.502 95.8967 17.042C95.1167 17.594 94.1567 17.948 93.0167 18.104L92.3867 16.016C93.2267 15.836 93.8567 15.608 94.2767 15.332C94.7087 15.056 95.0447 14.654 95.2847 14.126L95.5547 13.532L91.7927 4.874H94.6367L96.9767 10.796L99.3887 4.874H102.071ZM108.03 0.751999H110.748V14H108.03V0.751999ZM121.159 9.662H115.147C115.195 10.514 115.417 11.138 115.813 11.534C116.209 11.918 116.797 12.11 117.577 12.11C118.045 12.11 118.513 12.032 118.981 11.876C119.449 11.72 119.881 11.492 120.277 11.192L120.997 13.028C120.565 13.376 120.025 13.652 119.377 13.856C118.741 14.048 118.099 14.144 117.451 14.144C115.915 14.144 114.709 13.724 113.833 12.884C112.957 12.032 112.519 10.874 112.519 9.41C112.519 8.486 112.705 7.664 113.077 6.944C113.461 6.212 113.995 5.648 114.679 5.252C115.363 4.844 116.137 4.64 117.001 4.64C118.285 4.64 119.299 5.06 120.043 5.9C120.787 6.728 121.159 7.85 121.159 9.266V9.662ZM117.073 6.548C116.557 6.548 116.137 6.698 115.813 6.998C115.501 7.298 115.297 7.736 115.201 8.312H118.819C118.675 7.136 118.093 6.548 117.073 6.548ZM126.11 6.908V10.454C126.11 10.958 126.242 11.33 126.506 11.57C126.77 11.798 127.112 11.912 127.532 11.912C127.796 11.912 128.096 11.87 128.432 11.786V13.892C128 14.06 127.478 14.144 126.866 14.144C125.738 14.144 124.874 13.826 124.274 13.19C123.686 12.554 123.392 11.66 123.392 10.508V6.908H121.664V4.874H123.392V2.732L126.11 1.85V4.874H128.432V6.908H126.11ZM133.319 14.144C131.591 14.144 130.229 13.772 129.233 13.028L129.953 11.138C130.433 11.486 130.967 11.756 131.555 11.948C132.143 12.128 132.743 12.218 133.355 12.218C133.823 12.218 134.183 12.146 134.435 12.002C134.687 11.858 134.813 11.648 134.813 11.372C134.813 11.144 134.723 10.964 134.543 10.832C134.363 10.7 134.045 10.586 133.589 10.49L132.095 10.148C131.219 9.956 130.571 9.65 130.151 9.23C129.743 8.81 129.539 8.252 129.539 7.556C129.539 6.992 129.701 6.488 130.025 6.044C130.361 5.6 130.823 5.258 131.411 5.018C131.999 4.766 132.677 4.64 133.445 4.64C134.093 4.64 134.729 4.742 135.353 4.946C135.977 5.138 136.535 5.414 137.027 5.774L136.271 7.592C135.803 7.268 135.323 7.022 134.831 6.854C134.351 6.686 133.883 6.602 133.427 6.602C132.983 6.602 132.635 6.68 132.383 6.836C132.131 6.992 132.005 7.208 132.005 7.484C132.005 7.688 132.077 7.856 132.221 7.988C132.377 8.108 132.647 8.21 133.031 8.294L134.561 8.636C135.497 8.852 136.175 9.176 136.595 9.608C137.015 10.04 137.225 10.616 137.225 11.336C137.225 12.2 136.877 12.884 136.181 13.388C135.485 13.892 134.531 14.144 133.319 14.144ZM152.942 4.874L148.73 14.486C148.214 15.65 147.56 16.502 146.768 17.042C145.988 17.594 145.028 17.948 143.888 18.104L143.258 16.016C144.098 15.836 144.728 15.608 145.148 15.332C145.58 15.056 145.916 14.654 146.156 14.126L146.426 13.532L142.664 4.874H145.508L147.848 10.796L150.26 4.874H152.942ZM158.018 14.144C157.046 14.144 156.194 13.952 155.462 13.568C154.742 13.184 154.184 12.632 153.788 11.912C153.404 11.192 153.212 10.352 153.212 9.392C153.212 8.432 153.404 7.592 153.788 6.872C154.184 6.152 154.742 5.6 155.462 5.216C156.194 4.832 157.046 4.64 158.018 4.64C158.978 4.64 159.818 4.832 160.538 5.216C161.258 5.6 161.81 6.152 162.194 6.872C162.59 7.592 162.788 8.432 162.788 9.392C162.788 10.352 162.59 11.192 162.194 11.912C161.81 12.632 161.258 13.184 160.538 13.568C159.818 13.952 158.978 14.144 158.018 14.144ZM158.018 12.074C158.69 12.074 159.2 11.852 159.548 11.408C159.908 10.964 160.088 10.292 160.088 9.392C160.088 8.504 159.908 7.838 159.548 7.394C159.2 6.938 158.69 6.71 158.018 6.71C157.334 6.71 156.812 6.938 156.452 7.394C156.092 7.838 155.912 8.504 155.912 9.392C155.912 11.18 156.614 12.074 158.018 12.074ZM173.238 4.874V14H170.592V12.668C170.304 13.148 169.926 13.514 169.458 13.766C168.99 14.018 168.462 14.144 167.874 14.144C166.734 14.144 165.882 13.826 165.318 13.19C164.754 12.554 164.472 11.594 164.472 10.31V4.874H167.19V10.364C167.19 11.468 167.664 12.02 168.612 12.02C169.176 12.02 169.632 11.828 169.98 11.444C170.328 11.06 170.502 10.556 170.502 9.932V4.874H173.238ZM191.664 4.64C192.708 4.64 193.482 4.958 193.986 5.594C194.502 6.218 194.76 7.178 194.76 8.474V14H192.042V8.564C192.042 7.928 191.94 7.472 191.736 7.196C191.532 6.908 191.196 6.764 190.728 6.764C190.176 6.764 189.75 6.956 189.45 7.34C189.15 7.724 189 8.264 189 8.96V14H186.282V8.564C186.282 7.94 186.174 7.484 185.958 7.196C185.754 6.908 185.424 6.764 184.968 6.764C184.416 6.764 183.984 6.956 183.672 7.34C183.372 7.724 183.222 8.264 183.222 8.96V14H180.504V7.484C180.504 6.512 180.456 5.642 180.36 4.874H182.916L183.078 6.242C183.354 5.726 183.738 5.33 184.23 5.054C184.734 4.778 185.31 4.64 185.958 4.64C187.314 4.64 188.214 5.204 188.658 6.332C188.958 5.816 189.372 5.408 189.9 5.108C190.44 4.796 191.028 4.64 191.664 4.64ZM196.905 4.874H199.623V14H196.905V4.874ZM199.713 0.589999V3.146H196.815V0.589999H199.713ZM207.478 4.64C209.638 4.64 210.718 5.918 210.718 8.474V14H208V8.6C208 7.964 207.88 7.502 207.64 7.214C207.412 6.914 207.046 6.764 206.542 6.764C205.942 6.764 205.462 6.956 205.102 7.34C204.742 7.724 204.562 8.24 204.562 8.888V14H201.844V7.484C201.844 6.512 201.796 5.642 201.7 4.874H204.256L204.436 6.314C204.76 5.774 205.18 5.36 205.696 5.072C206.224 4.784 206.818 4.64 207.478 4.64ZM216.303 6.908V10.454C216.303 10.958 216.435 11.33 216.699 11.57C216.963 11.798 217.305 11.912 217.725 11.912C217.989 11.912 218.289 11.87 218.625 11.786V13.892C218.193 14.06 217.671 14.144 217.059 14.144C215.931 14.144 215.067 13.826 214.467 13.19C213.879 12.554 213.585 11.66 213.585 10.508V6.908H211.857V4.874H213.585V2.732L216.303 1.85V4.874H218.625V6.908H216.303ZM234.226 4.874V14H231.544V12.65C231.268 13.118 230.878 13.484 230.374 13.748C229.87 14.012 229.3 14.144 228.664 14.144C227.872 14.144 227.17 13.952 226.558 13.568C225.958 13.184 225.484 12.638 225.136 11.93C224.8 11.21 224.632 10.382 224.632 9.446C224.632 8.51 224.8 7.676 225.136 6.944C225.484 6.212 225.964 5.648 226.576 5.252C227.188 4.844 227.884 4.64 228.664 4.64C229.3 4.64 229.87 4.778 230.374 5.054C230.878 5.33 231.268 5.702 231.544 6.17V4.874H234.226ZM229.456 12.074C230.128 12.074 230.644 11.846 231.004 11.39C231.364 10.934 231.544 10.274 231.544 9.41C231.544 8.546 231.364 7.886 231.004 7.43C230.644 6.962 230.128 6.728 229.456 6.728C228.784 6.728 228.262 6.968 227.89 7.448C227.518 7.928 227.332 8.594 227.332 9.446C227.332 10.298 227.512 10.952 227.872 11.408C228.244 11.852 228.772 12.074 229.456 12.074ZM242.054 4.64C244.214 4.64 245.294 5.918 245.294 8.474V14H242.576V8.6C242.576 7.964 242.456 7.502 242.216 7.214C241.988 6.914 241.622 6.764 241.118 6.764C240.518 6.764 240.038 6.956 239.678 7.34C239.318 7.724 239.138 8.24 239.138 8.888V14H236.42V7.484C236.42 6.512 236.372 5.642 236.276 4.874H238.832L239.012 6.314C239.336 5.774 239.756 5.36 240.272 5.072C240.8 4.784 241.394 4.64 242.054 4.64ZM256.603 0.751999V14H253.921V12.65C253.645 13.118 253.255 13.484 252.751 13.748C252.247 14.012 251.677 14.144 251.041 14.144C250.261 14.144 249.565 13.946 248.953 13.55C248.341 13.142 247.861 12.578 247.513 11.858C247.177 11.126 247.009 10.292 247.009 9.356C247.009 8.42 247.177 7.598 247.513 6.89C247.861 6.17 248.335 5.618 248.935 5.234C249.547 4.838 250.249 4.64 251.041 4.64C251.653 4.64 252.211 4.772 252.715 5.036C253.219 5.288 253.609 5.642 253.885 6.098V0.751999H256.603ZM251.833 12.074C252.505 12.074 253.021 11.846 253.381 11.39C253.741 10.922 253.921 10.256 253.921 9.392C253.921 8.54 253.735 7.886 253.363 7.43C253.003 6.962 252.493 6.728 251.833 6.728C251.161 6.728 250.639 6.956 250.267 7.412C249.895 7.868 249.709 8.516 249.709 9.356C249.709 10.22 249.895 10.892 250.267 11.372C250.639 11.84 251.161 12.074 251.833 12.074ZM267.28 6.908V10.454C267.28 10.958 267.412 11.33 267.676 11.57C267.94 11.798 268.282 11.912 268.702 11.912C268.966 11.912 269.266 11.87 269.602 11.786V13.892C269.17 14.06 268.648 14.144 268.036 14.144C266.908 14.144 266.044 13.826 265.444 13.19C264.856 12.554 264.562 11.66 264.562 10.508V6.908H262.834V4.874H264.562V2.732L267.28 1.85V4.874H269.602V6.908H267.28ZM276.306 4.658C276.69 4.658 277.014 4.718 277.278 4.838L277.26 7.322C276.816 7.118 276.372 7.016 275.928 7.016C275.208 7.016 274.656 7.214 274.272 7.61C273.9 7.994 273.714 8.534 273.714 9.23V14H270.996V7.484C270.996 6.512 270.948 5.642 270.852 4.874H273.408L273.588 6.44C273.816 5.864 274.17 5.426 274.65 5.126C275.142 4.814 275.694 4.658 276.306 4.658ZM287.347 4.874V14H284.665V12.65C284.389 13.118 283.999 13.484 283.495 13.748C282.991 14.012 282.421 14.144 281.785 14.144C280.993 14.144 280.291 13.952 279.679 13.568C279.079 13.184 278.605 12.638 278.257 11.93C277.921 11.21 277.753 10.382 277.753 9.446C277.753 8.51 277.921 7.676 278.257 6.944C278.605 6.212 279.085 5.648 279.697 5.252C280.309 4.844 281.005 4.64 281.785 4.64C282.421 4.64 282.991 4.778 283.495 5.054C283.999 5.33 284.389 5.702 284.665 6.17V4.874H287.347ZM282.577 12.074C283.249 12.074 283.765 11.846 284.125 11.39C284.485 10.934 284.665 10.274 284.665 9.41C284.665 8.546 284.485 7.886 284.125 7.43C283.765 6.962 283.249 6.728 282.577 6.728C281.905 6.728 281.383 6.968 281.011 7.448C280.639 7.928 280.453 8.594 280.453 9.446C280.453 10.298 280.633 10.952 280.993 11.408C281.365 11.852 281.893 12.074 282.577 12.074ZM298.685 0.751999V14H296.003V12.65C295.727 13.118 295.337 13.484 294.833 13.748C294.329 14.012 293.759 14.144 293.123 14.144C292.343 14.144 291.647 13.946 291.035 13.55C290.423 13.142 289.943 12.578 289.595 11.858C289.259 11.126 289.091 10.292 289.091 9.356C289.091 8.42 289.259 7.598 289.595 6.89C289.943 6.17 290.417 5.618 291.017 5.234C291.629 4.838 292.331 4.64 293.123 4.64C293.735 4.64 294.293 4.772 294.797 5.036C295.301 5.288 295.691 5.642 295.967 6.098V0.751999H298.685ZM293.915 12.074C294.587 12.074 295.103 11.846 295.463 11.39C295.823 10.922 296.003 10.256 296.003 9.392C296.003 8.54 295.817 7.886 295.445 7.43C295.085 6.962 294.575 6.728 293.915 6.728C293.243 6.728 292.721 6.956 292.349 7.412C291.977 7.868 291.791 8.516 291.791 9.356C291.791 10.22 291.977 10.892 292.349 11.372C292.721 11.84 293.243 12.074 293.915 12.074ZM309.069 9.662H303.057C303.105 10.514 303.327 11.138 303.723 11.534C304.119 11.918 304.707 12.11 305.487 12.11C305.955 12.11 306.423 12.032 306.891 11.876C307.359 11.72 307.791 11.492 308.187 11.192L308.907 13.028C308.475 13.376 307.935 13.652 307.287 13.856C306.651 14.048 306.009 14.144 305.361 14.144C303.825 14.144 302.619 13.724 301.743 12.884C300.867 12.032 300.429 10.874 300.429 9.41C300.429 8.486 300.615 7.664 300.987 6.944C301.371 6.212 301.905 5.648 302.589 5.252C303.273 4.844 304.047 4.64 304.911 4.64C306.195 4.64 307.209 5.06 307.953 5.9C308.697 6.728 309.069 7.85 309.069 9.266V9.662ZM304.983 6.548C304.467 6.548 304.047 6.698 303.723 6.998C303.411 7.298 303.207 7.736 303.111 8.312H306.729C306.585 7.136 306.003 6.548 304.983 6.548ZM327.124 1.184V14H325.036L318.646 5.828V14H316.018V1.184H318.088L324.478 9.338V1.184H327.124ZM329.694 1.184H338.334V3.398H332.466V6.368H337.974V8.6H332.466V14H329.694V1.184ZM343.386 3.47H339.372V1.184H350.244V3.47H346.23V14H343.386V3.47ZM353.59 14.144C351.862 14.144 350.5 13.772 349.504 13.028L350.224 11.138C350.704 11.486 351.238 11.756 351.826 11.948C352.414 12.128 353.014 12.218 353.626 12.218C354.094 12.218 354.454 12.146 354.706 12.002C354.958 11.858 355.084 11.648 355.084 11.372C355.084 11.144 354.994 10.964 354.814 10.832C354.634 10.7 354.316 10.586 353.86 10.49L352.366 10.148C351.49 9.956 350.842 9.65 350.422 9.23C350.014 8.81 349.81 8.252 349.81 7.556C349.81 6.992 349.972 6.488 350.296 6.044C350.632 5.6 351.094 5.258 351.682 5.018C352.27 4.766 352.948 4.64 353.716 4.64C354.364 4.64 355 4.742 355.624 4.946C356.248 5.138 356.806 5.414 357.298 5.774L356.542 7.592C356.074 7.268 355.594 7.022 355.102 6.854C354.622 6.686 354.154 6.602 353.698 6.602C353.254 6.602 352.906 6.68 352.654 6.836C352.402 6.992 352.276 7.208 352.276 7.484C352.276 7.688 352.348 7.856 352.492 7.988C352.648 8.108 352.918 8.21 353.302 8.294L354.832 8.636C355.768 8.852 356.446 9.176 356.866 9.608C357.286 10.04 357.496 10.616 357.496 11.336C357.496 12.2 357.148 12.884 356.452 13.388C355.756 13.892 354.802 14.144 353.59 14.144ZM369.001 2.894C368.581 2.894 368.245 3.014 367.993 3.254C367.741 3.482 367.615 3.854 367.615 4.37V4.874H369.523V6.908H367.615V14H364.897V6.908H363.187V4.874H364.897V4.298C364.897 3.146 365.191 2.252 365.779 1.616C366.367 0.979999 367.219 0.661999 368.335 0.661999C368.959 0.661999 369.475 0.739999 369.883 0.895999V3.02C369.535 2.936 369.241 2.894 369.001 2.894ZM375.407 14.144C374.435 14.144 373.583 13.952 372.851 13.568C372.131 13.184 371.573 12.632 371.177 11.912C370.793 11.192 370.601 10.352 370.601 9.392C370.601 8.432 370.793 7.592 371.177 6.872C371.573 6.152 372.131 5.6 372.851 5.216C373.583 4.832 374.435 4.64 375.407 4.64C376.367 4.64 377.207 4.832 377.927 5.216C378.647 5.6 379.199 6.152 379.583 6.872C379.979 7.592 380.177 8.432 380.177 9.392C380.177 10.352 379.979 11.192 379.583 11.912C379.199 12.632 378.647 13.184 377.927 13.568C377.207 13.952 376.367 14.144 375.407 14.144ZM375.407 12.074C376.079 12.074 376.589 11.852 376.937 11.408C377.297 10.964 377.477 10.292 377.477 9.392C377.477 8.504 377.297 7.838 376.937 7.394C376.589 6.938 376.079 6.71 375.407 6.71C374.723 6.71 374.201 6.938 373.841 7.394C373.481 7.838 373.301 8.504 373.301 9.392C373.301 11.18 374.003 12.074 375.407 12.074ZM387.224 4.658C387.608 4.658 387.932 4.718 388.196 4.838L388.178 7.322C387.734 7.118 387.29 7.016 386.846 7.016C386.126 7.016 385.574 7.214 385.19 7.61C384.818 7.994 384.632 8.534 384.632 9.23V14H381.914V7.484C381.914 6.512 381.866 5.642 381.77 4.874H384.326L384.506 6.44C384.734 5.864 385.088 5.426 385.568 5.126C386.06 4.814 386.612 4.658 387.224 4.658ZM403.504 4.874V14H400.822V12.65C400.546 13.118 400.156 13.484 399.652 13.748C399.148 14.012 398.578 14.144 397.942 14.144C397.15 14.144 396.448 13.952 395.836 13.568C395.236 13.184 394.762 12.638 394.414 11.93C394.078 11.21 393.91 10.382 393.91 9.446C393.91 8.51 394.078 7.676 394.414 6.944C394.762 6.212 395.242 5.648 395.854 5.252C396.466 4.844 397.162 4.64 397.942 4.64C398.578 4.64 399.148 4.778 399.652 5.054C400.156 5.33 400.546 5.702 400.822 6.17V4.874H403.504ZM398.734 12.074C399.406 12.074 399.922 11.846 400.282 11.39C400.642 10.934 400.822 10.274 400.822 9.41C400.822 8.546 400.642 7.886 400.282 7.43C399.922 6.962 399.406 6.728 398.734 6.728C398.062 6.728 397.54 6.968 397.168 7.448C396.796 7.928 396.61 8.594 396.61 9.446C396.61 10.298 396.79 10.952 397.15 11.408C397.522 11.852 398.05 12.074 398.734 12.074ZM6.76002 25.894C6.34002 25.894 6.00402 26.014 5.75202 26.254C5.50002 26.482 5.37402 26.854 5.37402 27.37V27.874H7.28202V29.908H5.37402V37H2.65602V29.908H0.946023V27.874H2.65602V27.298C2.65602 26.146 2.95002 25.252 3.53802 24.616C4.12602 23.98 4.97802 23.662 6.09402 23.662C6.71802 23.662 7.23402 23.74 7.64202 23.896V26.02C7.29402 25.936 7.00002 25.894 6.76002 25.894ZM14.2078 27.658C14.5918 27.658 14.9158 27.718 15.1798 27.838L15.1618 30.322C14.7178 30.118 14.2738 30.016 13.8298 30.016C13.1098 30.016 12.5578 30.214 12.1738 30.61C11.8018 30.994 11.6158 31.534 11.6158 32.23V37H8.8978V30.484C8.8978 29.512 8.8498 28.642 8.7538 27.874H11.3098L11.4898 29.44C11.7178 28.864 12.0718 28.426 12.5518 28.126C13.0438 27.814 13.5958 27.658 14.2078 27.658ZM25.2488 27.874V37H22.5668V35.65C22.2908 36.118 21.9008 36.484 21.3968 36.748C20.8928 37.012 20.3228 37.144 19.6868 37.144C18.8948 37.144 18.1928 36.952 17.5808 36.568C16.9808 36.184 16.5068 35.638 16.1588 34.93C15.8228 34.21 15.6548 33.382 15.6548 32.446C15.6548 31.51 15.8228 30.676 16.1588 29.944C16.5068 29.212 16.9868 28.648 17.5988 28.252C18.2108 27.844 18.9068 27.64 19.6868 27.64C20.3228 27.64 20.8928 27.778 21.3968 28.054C21.9008 28.33 22.2908 28.702 22.5668 29.17V27.874H25.2488ZM20.4788 35.074C21.1508 35.074 21.6668 34.846 22.0268 34.39C22.3868 33.934 22.5668 33.274 22.5668 32.41C22.5668 31.546 22.3868 30.886 22.0268 30.43C21.6668 29.962 21.1508 29.728 20.4788 29.728C19.8068 29.728 19.2848 29.968 18.9128 30.448C18.5408 30.928 18.3548 31.594 18.3548 32.446C18.3548 33.298 18.5348 33.952 18.8948 34.408C19.2668 34.852 19.7948 35.074 20.4788 35.074ZM31.7627 37.144C30.2747 37.144 29.1047 36.724 28.2527 35.884C27.4127 35.044 26.9927 33.898 26.9927 32.446C26.9927 31.498 27.1967 30.664 27.6047 29.944C28.0127 29.212 28.5827 28.648 29.3147 28.252C30.0587 27.844 30.9167 27.64 31.8887 27.64C32.5487 27.64 33.1907 27.742 33.8147 27.946C34.4387 28.15 34.9367 28.426 35.3087 28.774L34.5887 30.664C34.2287 30.376 33.8327 30.154 33.4007 29.998C32.9687 29.83 32.5487 29.746 32.1407 29.746C31.3967 29.746 30.8147 29.974 30.3947 30.43C29.9867 30.874 29.7827 31.528 29.7827 32.392C29.7827 33.268 29.9867 33.934 30.3947 34.39C30.8027 34.834 31.3847 35.056 32.1407 35.056C32.5487 35.056 32.9687 34.978 33.4007 34.822C33.8327 34.654 34.2287 34.426 34.5887 34.138L35.3087 36.028C34.9127 36.376 34.3967 36.652 33.7607 36.856C33.1247 37.048 32.4587 37.144 31.7627 37.144ZM40.1088 29.908V33.454C40.1088 33.958 40.2408 34.33 40.5048 34.57C40.7688 34.798 41.1108 34.912 41.5308 34.912C41.7948 34.912 42.0948 34.87 42.4308 34.786V36.892C41.9988 37.06 41.4768 37.144 40.8648 37.144C39.7368 37.144 38.8728 36.826 38.2728 36.19C37.6848 35.554 37.3908 34.66 37.3908 33.508V29.908H35.6628V27.874H37.3908V25.732L40.1088 24.85V27.874H42.4308V29.908H40.1088ZM43.8255 27.874H46.5435V37H43.8255V27.874ZM46.6335 23.59V26.146H43.7355V23.59H46.6335ZM53.121 37.144C52.149 37.144 51.297 36.952 50.565 36.568C49.845 36.184 49.287 35.632 48.891 34.912C48.507 34.192 48.315 33.352 48.315 32.392C48.315 31.432 48.507 30.592 48.891 29.872C49.287 29.152 49.845 28.6 50.565 28.216C51.297 27.832 52.149 27.64 53.121 27.64C54.081 27.64 54.921 27.832 55.641 28.216C56.361 28.6 56.913 29.152 57.297 29.872C57.693 30.592 57.891 31.432 57.891 32.392C57.891 33.352 57.693 34.192 57.297 34.912C56.913 35.632 56.361 36.184 55.641 36.568C54.921 36.952 54.081 37.144 53.121 37.144ZM53.121 35.074C53.793 35.074 54.303 34.852 54.651 34.408C55.011 33.964 55.191 33.292 55.191 32.392C55.191 31.504 55.011 30.838 54.651 30.394C54.303 29.938 53.793 29.71 53.121 29.71C52.437 29.71 51.915 29.938 51.555 30.394C51.195 30.838 51.015 31.504 51.015 32.392C51.015 34.18 51.717 35.074 53.121 35.074ZM65.2623 27.64C67.4223 27.64 68.5023 28.918 68.5023 31.474V37H65.7843V31.6C65.7843 30.964 65.6643 30.502 65.4243 30.214C65.1963 29.914 64.8303 29.764 64.3263 29.764C63.7263 29.764 63.2463 29.956 62.8863 30.34C62.5263 30.724 62.3463 31.24 62.3463 31.888V37H59.6283V30.484C59.6283 29.512 59.5803 28.642 59.4843 27.874H62.0403L62.2203 29.314C62.5443 28.774 62.9643 28.36 63.4803 28.072C64.0083 27.784 64.6023 27.64 65.2623 27.64ZM80.0858 37.144C79.1138 37.144 78.2618 36.952 77.5298 36.568C76.8098 36.184 76.2518 35.632 75.8558 34.912C75.4718 34.192 75.2798 33.352 75.2798 32.392C75.2798 31.432 75.4718 30.592 75.8558 29.872C76.2518 29.152 76.8098 28.6 77.5298 28.216C78.2618 27.832 79.1138 27.64 80.0858 27.64C81.0458 27.64 81.8858 27.832 82.6058 28.216C83.3258 28.6 83.8778 29.152 84.2618 29.872C84.6578 30.592 84.8558 31.432 84.8558 32.392C84.8558 33.352 84.6578 34.192 84.2618 34.912C83.8778 35.632 83.3258 36.184 82.6058 36.568C81.8858 36.952 81.0458 37.144 80.0858 37.144ZM80.0858 35.074C80.7578 35.074 81.2678 34.852 81.6158 34.408C81.9758 33.964 82.1558 33.292 82.1558 32.392C82.1558 31.504 81.9758 30.838 81.6158 30.394C81.2678 29.938 80.7578 29.71 80.0858 29.71C79.4018 29.71 78.8798 29.938 78.5198 30.394C78.1598 30.838 77.9798 31.504 77.9798 32.392C77.9798 34.18 78.6818 35.074 80.0858 35.074ZM91.2932 25.894C90.8732 25.894 90.5372 26.014 90.2852 26.254C90.0332 26.482 89.9072 26.854 89.9072 27.37V27.874H91.8152V29.908H89.9072V37H87.1892V29.908H85.4792V27.874H87.1892V27.298C87.1892 26.146 87.4832 25.252 88.0712 24.616C88.6592 23.98 89.5112 23.662 90.6272 23.662C91.2512 23.662 91.7672 23.74 92.1752 23.896V26.02C91.8272 25.936 91.5332 25.894 91.2932 25.894ZM101.914 29.908V33.454C101.914 33.958 102.046 34.33 102.31 34.57C102.574 34.798 102.916 34.912 103.336 34.912C103.6 34.912 103.9 34.87 104.236 34.786V36.892C103.804 37.06 103.282 37.144 102.67 37.144C101.542 37.144 100.678 36.826 100.078 36.19C99.4895 35.554 99.1955 34.66 99.1955 33.508V29.908H97.4675V27.874H99.1955V25.732L101.914 24.85V27.874H104.236V29.908H101.914ZM111.264 27.64C113.424 27.64 114.504 28.918 114.504 31.474V37H111.786V31.6C111.786 30.964 111.666 30.502 111.426 30.214C111.198 29.914 110.832 29.764 110.328 29.764C109.728 29.764 109.248 29.956 108.888 30.34C108.528 30.724 108.348 31.24 108.348 31.888V37H105.63V23.752H108.348V29.116C108.672 28.636 109.086 28.27 109.59 28.018C110.094 27.766 110.652 27.64 111.264 27.64ZM124.859 32.662H118.847C118.895 33.514 119.117 34.138 119.513 34.534C119.909 34.918 120.497 35.11 121.277 35.11C121.745 35.11 122.213 35.032 122.681 34.876C123.149 34.72 123.581 34.492 123.977 34.192L124.697 36.028C124.265 36.376 123.725 36.652 123.077 36.856C122.441 37.048 121.799 37.144 121.151 37.144C119.615 37.144 118.409 36.724 117.533 35.884C116.657 35.032 116.219 33.874 116.219 32.41C116.219 31.486 116.405 30.664 116.777 29.944C117.161 29.212 117.695 28.648 118.379 28.252C119.063 27.844 119.837 27.64 120.701 27.64C121.985 27.64 122.999 28.06 123.743 28.9C124.487 29.728 124.859 30.85 124.859 32.266V32.662ZM120.773 29.548C120.257 29.548 119.837 29.698 119.513 29.998C119.201 30.298 118.997 30.736 118.901 31.312H122.519C122.375 30.136 121.793 29.548 120.773 29.548ZM135.948 37.144C134.46 37.144 133.29 36.724 132.438 35.884C131.598 35.044 131.178 33.898 131.178 32.446C131.178 31.498 131.382 30.664 131.79 29.944C132.198 29.212 132.768 28.648 133.5 28.252C134.244 27.844 135.102 27.64 136.074 27.64C136.734 27.64 137.376 27.742 138 27.946C138.624 28.15 139.122 28.426 139.494 28.774L138.774 30.664C138.414 30.376 138.018 30.154 137.586 29.998C137.154 29.83 136.734 29.746 136.326 29.746C135.582 29.746 135 29.974 134.58 30.43C134.172 30.874 133.968 31.528 133.968 32.392C133.968 33.268 134.172 33.934 134.58 34.39C134.988 34.834 135.57 35.056 136.326 35.056C136.734 35.056 137.154 34.978 137.586 34.822C138.018 34.654 138.414 34.426 138.774 34.138L139.494 36.028C139.098 36.376 138.582 36.652 137.946 36.856C137.31 37.048 136.644 37.144 135.948 37.144ZM145.142 37.144C144.17 37.144 143.318 36.952 142.586 36.568C141.866 36.184 141.308 35.632 140.912 34.912C140.528 34.192 140.336 33.352 140.336 32.392C140.336 31.432 140.528 30.592 140.912 29.872C141.308 29.152 141.866 28.6 142.586 28.216C143.318 27.832 144.17 27.64 145.142 27.64C146.102 27.64 146.942 27.832 147.662 28.216C148.382 28.6 148.934 29.152 149.318 29.872C149.714 30.592 149.912 31.432 149.912 32.392C149.912 33.352 149.714 34.192 149.318 34.912C148.934 35.632 148.382 36.184 147.662 36.568C146.942 36.952 146.102 37.144 145.142 37.144ZM145.142 35.074C145.814 35.074 146.324 34.852 146.672 34.408C147.032 33.964 147.212 33.292 147.212 32.392C147.212 31.504 147.032 30.838 146.672 30.394C146.324 29.938 145.814 29.71 145.142 29.71C144.458 29.71 143.936 29.938 143.576 30.394C143.216 30.838 143.036 31.504 143.036 32.392C143.036 34.18 143.738 35.074 145.142 35.074ZM155.142 37.144C153.414 37.144 152.052 36.772 151.056 36.028L151.776 34.138C152.256 34.486 152.79 34.756 153.378 34.948C153.966 35.128 154.566 35.218 155.178 35.218C155.646 35.218 156.006 35.146 156.258 35.002C156.51 34.858 156.636 34.648 156.636 34.372C156.636 34.144 156.546 33.964 156.366 33.832C156.186 33.7 155.868 33.586 155.412 33.49L153.918 33.148C153.042 32.956 152.394 32.65 151.974 32.23C151.566 31.81 151.362 31.252 151.362 30.556C151.362 29.992 151.524 29.488 151.848 29.044C152.184 28.6 152.646 28.258 153.234 28.018C153.822 27.766 154.5 27.64 155.268 27.64C155.916 27.64 156.552 27.742 157.176 27.946C157.8 28.138 158.358 28.414 158.85 28.774L158.094 30.592C157.626 30.268 157.146 30.022 156.654 29.854C156.174 29.686 155.706 29.602 155.25 29.602C154.806 29.602 154.458 29.68 154.206 29.836C153.954 29.992 153.828 30.208 153.828 30.484C153.828 30.688 153.9 30.856 154.044 30.988C154.2 31.108 154.47 31.21 154.854 31.294L156.384 31.636C157.32 31.852 157.998 32.176 158.418 32.608C158.838 33.04 159.048 33.616 159.048 34.336C159.048 35.2 158.7 35.884 158.004 36.388C157.308 36.892 156.354 37.144 155.142 37.144ZM164.035 29.908V33.454C164.035 33.958 164.167 34.33 164.431 34.57C164.695 34.798 165.037 34.912 165.457 34.912C165.721 34.912 166.021 34.87 166.357 34.786V36.892C165.925 37.06 165.403 37.144 164.791 37.144C163.663 37.144 162.799 36.826 162.199 36.19C161.611 35.554 161.317 34.66 161.317 33.508V29.908H159.589V27.874H161.317V25.732L164.035 24.85V27.874H166.357V29.908H164.035ZM177.17 37.144C176.198 37.144 175.346 36.952 174.614 36.568C173.894 36.184 173.336 35.632 172.94 34.912C172.556 34.192 172.364 33.352 172.364 32.392C172.364 31.432 172.556 30.592 172.94 29.872C173.336 29.152 173.894 28.6 174.614 28.216C175.346 27.832 176.198 27.64 177.17 27.64C178.13 27.64 178.97 27.832 179.69 28.216C180.41 28.6 180.962 29.152 181.346 29.872C181.742 30.592 181.94 31.432 181.94 32.392C181.94 33.352 181.742 34.192 181.346 34.912C180.962 35.632 180.41 36.184 179.69 36.568C178.97 36.952 178.13 37.144 177.17 37.144ZM177.17 35.074C177.842 35.074 178.352 34.852 178.7 34.408C179.06 33.964 179.24 33.292 179.24 32.392C179.24 31.504 179.06 30.838 178.7 30.394C178.352 29.938 177.842 29.71 177.17 29.71C176.486 29.71 175.964 29.938 175.604 30.394C175.244 30.838 175.064 31.504 175.064 32.392C175.064 34.18 175.766 35.074 177.17 35.074ZM189.311 27.64C191.471 27.64 192.551 28.918 192.551 31.474V37H189.833V31.6C189.833 30.964 189.713 30.502 189.473 30.214C189.245 29.914 188.879 29.764 188.375 29.764C187.775 29.764 187.295 29.956 186.935 30.34C186.575 30.724 186.395 31.24 186.395 31.888V37H183.677V30.484C183.677 29.512 183.629 28.642 183.533 27.874H186.089L186.269 29.314C186.593 28.774 187.013 28.36 187.529 28.072C188.057 27.784 188.651 27.64 189.311 27.64ZM199.959 24.184H208.797V26.362H202.695V29.386H208.419V31.582H202.695V34.822H208.797V37H199.959V24.184ZM213.974 29.908V33.454C213.974 33.958 214.106 34.33 214.37 34.57C214.634 34.798 214.976 34.912 215.396 34.912C215.66 34.912 215.96 34.87 216.296 34.786V36.892C215.864 37.06 215.342 37.144 214.73 37.144C213.602 37.144 212.738 36.826 212.138 36.19C211.55 35.554 211.256 34.66 211.256 33.508V29.908H209.528V27.874H211.256V25.732L213.974 24.85V27.874H216.296V29.908H213.974ZM223.325 27.64C225.485 27.64 226.565 28.918 226.565 31.474V37H223.847V31.6C223.847 30.964 223.727 30.502 223.487 30.214C223.259 29.914 222.893 29.764 222.389 29.764C221.789 29.764 221.309 29.956 220.949 30.34C220.589 30.724 220.409 31.24 220.409 31.888V37H217.691V23.752H220.409V29.116C220.733 28.636 221.147 28.27 221.651 28.018C222.155 27.766 222.713 27.64 223.325 27.64ZM236.92 32.662H230.908C230.956 33.514 231.178 34.138 231.574 34.534C231.97 34.918 232.558 35.11 233.338 35.11C233.806 35.11 234.274 35.032 234.742 34.876C235.21 34.72 235.642 34.492 236.038 34.192L236.758 36.028C236.326 36.376 235.786 36.652 235.138 36.856C234.502 37.048 233.86 37.144 233.212 37.144C231.676 37.144 230.47 36.724 229.594 35.884C228.718 35.032 228.28 33.874 228.28 32.41C228.28 31.486 228.466 30.664 228.838 29.944C229.222 29.212 229.756 28.648 230.44 28.252C231.124 27.844 231.898 27.64 232.762 27.64C234.046 27.64 235.06 28.06 235.804 28.9C236.548 29.728 236.92 30.85 236.92 32.266V32.662ZM232.834 29.548C232.318 29.548 231.898 29.698 231.574 29.998C231.262 30.298 231.058 30.736 230.962 31.312H234.58C234.436 30.136 233.854 29.548 232.834 29.548ZM243.936 27.658C244.32 27.658 244.644 27.718 244.908 27.838L244.89 30.322C244.446 30.118 244.002 30.016 243.558 30.016C242.838 30.016 242.286 30.214 241.902 30.61C241.53 30.994 241.344 31.534 241.344 32.23V37H238.626V30.484C238.626 29.512 238.578 28.642 238.482 27.874H241.038L241.218 29.44C241.446 28.864 241.8 28.426 242.28 28.126C242.772 27.814 243.324 27.658 243.936 27.658ZM254.721 27.874V37H252.075V35.668C251.787 36.148 251.409 36.514 250.941 36.766C250.473 37.018 249.945 37.144 249.357 37.144C248.217 37.144 247.365 36.826 246.801 36.19C246.237 35.554 245.955 34.594 245.955 33.31V27.874H248.673V33.364C248.673 34.468 249.147 35.02 250.095 35.02C250.659 35.02 251.115 34.828 251.463 34.444C251.811 34.06 251.985 33.556 251.985 32.932V27.874H254.721ZM268.085 27.64C269.129 27.64 269.903 27.958 270.407 28.594C270.923 29.218 271.181 30.178 271.181 31.474V37H268.463V31.564C268.463 30.928 268.361 30.472 268.157 30.196C267.953 29.908 267.617 29.764 267.149 29.764C266.597 29.764 266.171 29.956 265.871 30.34C265.571 30.724 265.421 31.264 265.421 31.96V37H262.703V31.564C262.703 30.94 262.595 30.484 262.379 30.196C262.175 29.908 261.845 29.764 261.389 29.764C260.837 29.764 260.405 29.956 260.093 30.34C259.793 30.724 259.643 31.264 259.643 31.96V37H256.925V30.484C256.925 29.512 256.877 28.642 256.781 27.874H259.337L259.499 29.242C259.775 28.726 260.159 28.33 260.651 28.054C261.155 27.778 261.731 27.64 262.379 27.64C263.735 27.64 264.635 28.204 265.079 29.332C265.379 28.816 265.793 28.408 266.321 28.108C266.861 27.796 267.449 27.64 268.085 27.64ZM276.044 34.102V37H273.11V34.102H276.044ZM283.279 24.184H286.087V37H283.279V24.184ZM291.898 29.908V33.454C291.898 33.958 292.03 34.33 292.294 34.57C292.558 34.798 292.9 34.912 293.32 34.912C293.584 34.912 293.884 34.87 294.22 34.786V36.892C293.788 37.06 293.266 37.144 292.654 37.144C291.526 37.144 290.662 36.826 290.062 36.19C289.474 35.554 289.18 34.66 289.18 33.508V29.908H287.452V27.874H289.18V25.732L291.898 24.85V27.874H294.22V29.908H291.898ZM309.389 27.874V37H306.743V35.668C306.455 36.148 306.077 36.514 305.609 36.766C305.141 37.018 304.613 37.144 304.025 37.144C302.885 37.144 302.033 36.826 301.469 36.19C300.905 35.554 300.623 34.594 300.623 33.31V27.874H303.341V33.364C303.341 34.468 303.815 35.02 304.763 35.02C305.327 35.02 305.783 34.828 306.131 34.444C306.479 34.06 306.653 33.556 306.653 32.932V27.874H309.389ZM315.085 37.144C313.357 37.144 311.995 36.772 310.999 36.028L311.719 34.138C312.199 34.486 312.733 34.756 313.321 34.948C313.909 35.128 314.509 35.218 315.121 35.218C315.589 35.218 315.949 35.146 316.201 35.002C316.453 34.858 316.579 34.648 316.579 34.372C316.579 34.144 316.489 33.964 316.309 33.832C316.129 33.7 315.811 33.586 315.355 33.49L313.861 33.148C312.985 32.956 312.337 32.65 311.917 32.23C311.509 31.81 311.305 31.252 311.305 30.556C311.305 29.992 311.467 29.488 311.791 29.044C312.127 28.6 312.589 28.258 313.177 28.018C313.765 27.766 314.443 27.64 315.211 27.64C315.859 27.64 316.495 27.742 317.119 27.946C317.743 28.138 318.301 28.414 318.793 28.774L318.037 30.592C317.569 30.268 317.089 30.022 316.597 29.854C316.117 29.686 315.649 29.602 315.193 29.602C314.749 29.602 314.401 29.68 314.149 29.836C313.897 29.992 313.771 30.208 313.771 30.484C313.771 30.688 313.843 30.856 313.987 30.988C314.143 31.108 314.413 31.21 314.797 31.294L316.327 31.636C317.263 31.852 317.941 32.176 318.361 32.608C318.781 33.04 318.991 33.616 318.991 34.336C318.991 35.2 318.643 35.884 317.947 36.388C317.251 36.892 316.297 37.144 315.085 37.144ZM328.836 32.662H322.824C322.872 33.514 323.094 34.138 323.49 34.534C323.886 34.918 324.474 35.11 325.254 35.11C325.722 35.11 326.19 35.032 326.658 34.876C327.126 34.72 327.558 34.492 327.954 34.192L328.674 36.028C328.242 36.376 327.702 36.652 327.054 36.856C326.418 37.048 325.776 37.144 325.128 37.144C323.592 37.144 322.386 36.724 321.51 35.884C320.634 35.032 320.196 33.874 320.196 32.41C320.196 31.486 320.382 30.664 320.754 29.944C321.138 29.212 321.672 28.648 322.356 28.252C323.04 27.844 323.814 27.64 324.678 27.64C325.962 27.64 326.976 28.06 327.72 28.9C328.464 29.728 328.836 30.85 328.836 32.266V32.662ZM324.75 29.548C324.234 29.548 323.814 29.698 323.49 29.998C323.178 30.298 322.974 30.736 322.878 31.312H326.496C326.352 30.136 325.77 29.548 324.75 29.548ZM334.034 37.144C332.306 37.144 330.944 36.772 329.948 36.028L330.668 34.138C331.148 34.486 331.682 34.756 332.27 34.948C332.858 35.128 333.458 35.218 334.07 35.218C334.538 35.218 334.898 35.146 335.15 35.002C335.402 34.858 335.528 34.648 335.528 34.372C335.528 34.144 335.438 33.964 335.258 33.832C335.078 33.7 334.76 33.586 334.304 33.49L332.81 33.148C331.934 32.956 331.286 32.65 330.866 32.23C330.458 31.81 330.254 31.252 330.254 30.556C330.254 29.992 330.416 29.488 330.74 29.044C331.076 28.6 331.538 28.258 332.126 28.018C332.714 27.766 333.392 27.64 334.16 27.64C334.808 27.64 335.444 27.742 336.068 27.946C336.692 28.138 337.25 28.414 337.742 28.774L336.986 30.592C336.518 30.268 336.038 30.022 335.546 29.854C335.066 29.686 334.598 29.602 334.142 29.602C333.698 29.602 333.35 29.68 333.098 29.836C332.846 29.992 332.72 30.208 332.72 30.484C332.72 30.688 332.792 30.856 332.936 30.988C333.092 31.108 333.362 31.21 333.746 31.294L335.276 31.636C336.212 31.852 336.89 32.176 337.31 32.608C337.73 33.04 337.94 33.616 337.94 34.336C337.94 35.2 337.592 35.884 336.896 36.388C336.2 36.892 335.246 37.144 334.034 37.144ZM354 34.786V37H344.478V34.948L350.652 26.398H344.478V24.184H353.802V26.218L347.574 34.786H354ZM364.3 37L358.72 31.078V37H355.912V24.184H358.72V29.818L364.102 24.184H367.45L361.492 30.304L367.684 37H364.3ZM371.37 37.144C369.642 37.144 368.28 36.772 367.284 36.028L368.004 34.138C368.484 34.486 369.018 34.756 369.606 34.948C370.194 35.128 370.794 35.218 371.406 35.218C371.874 35.218 372.234 35.146 372.486 35.002C372.738 34.858 372.864 34.648 372.864 34.372C372.864 34.144 372.774 33.964 372.594 33.832C372.414 33.7 372.096 33.586 371.64 33.49L370.146 33.148C369.27 32.956 368.622 32.65 368.202 32.23C367.794 31.81 367.59 31.252 367.59 30.556C367.59 29.992 367.752 29.488 368.076 29.044C368.412 28.6 368.874 28.258 369.462 28.018C370.05 27.766 370.728 27.64 371.496 27.64C372.144 27.64 372.78 27.742 373.404 27.946C374.028 28.138 374.586 28.414 375.078 28.774L374.322 30.592C373.854 30.268 373.374 30.022 372.882 29.854C372.402 29.686 371.934 29.602 371.478 29.602C371.034 29.602 370.686 29.68 370.434 29.836C370.182 29.992 370.056 30.208 370.056 30.484C370.056 30.688 370.128 30.856 370.272 30.988C370.428 31.108 370.698 31.21 371.082 31.294L372.612 31.636C373.548 31.852 374.226 32.176 374.646 32.608C375.066 33.04 375.276 33.616 375.276 34.336C375.276 35.2 374.928 35.884 374.232 36.388C373.536 36.892 372.582 37.144 371.37 37.144ZM385.843 27.874L381.631 37.486C381.115 38.65 380.461 39.502 379.669 40.042C378.889 40.594 377.929 40.948 376.789 41.104L376.159 39.016C376.999 38.836 377.629 38.608 378.049 38.332C378.481 38.056 378.817 37.654 379.057 37.126L379.327 36.532L375.565 27.874H378.409L380.749 33.796L383.161 27.874H385.843ZM392.374 27.64C394.534 27.64 395.614 28.918 395.614 31.474V37H392.896V31.6C392.896 30.964 392.776 30.502 392.536 30.214C392.308 29.914 391.942 29.764 391.438 29.764C390.838 29.764 390.358 29.956 389.998 30.34C389.638 30.724 389.458 31.24 389.458 31.888V37H386.74V30.484C386.74 29.512 386.692 28.642 386.596 27.874H389.152L389.332 29.314C389.656 28.774 390.076 28.36 390.592 28.072C391.12 27.784 391.714 27.64 392.374 27.64ZM402.099 37.144C400.611 37.144 399.441 36.724 398.589 35.884C397.749 35.044 397.329 33.898 397.329 32.446C397.329 31.498 397.533 30.664 397.941 29.944C398.349 29.212 398.919 28.648 399.651 28.252C400.395 27.844 401.253 27.64 402.225 27.64C402.885 27.64 403.527 27.742 404.151 27.946C404.775 28.15 405.273 28.426 405.645 28.774L404.925 30.664C404.565 30.376 404.169 30.154 403.737 29.998C403.305 29.83 402.885 29.746 402.477 29.746C401.733 29.746 401.151 29.974 400.731 30.43C400.323 30.874 400.119 31.528 400.119 32.392C400.119 33.268 400.323 33.934 400.731 34.39C401.139 34.834 401.721 35.056 402.477 35.056C402.885 35.056 403.305 34.978 403.737 34.822C404.169 34.654 404.565 34.426 404.925 34.138L405.645 36.028C405.249 36.376 404.733 36.652 404.097 36.856C403.461 37.048 402.795 37.144 402.099 37.144ZM409.831 34.102V35.956C409.831 36.664 409.705 37.3 409.453 37.864C409.213 38.44 408.799 39.016 408.211 39.592L407.149 38.764C407.737 38.152 408.103 37.564 408.247 37H406.897V34.102H409.831ZM426.03 27.874V37H423.348V35.65C423.072 36.118 422.682 36.484 422.178 36.748C421.674 37.012 421.104 37.144 420.468 37.144C419.676 37.144 418.974 36.952 418.362 36.568C417.762 36.184 417.288 35.638 416.94 34.93C416.604 34.21 416.436 33.382 416.436 32.446C416.436 31.51 416.604 30.676 416.94 29.944C417.288 29.212 417.768 28.648 418.38 28.252C418.992 27.844 419.688 27.64 420.468 27.64C421.104 27.64 421.674 27.778 422.178 28.054C422.682 28.33 423.072 28.702 423.348 29.17V27.874H426.03ZM421.26 35.074C421.932 35.074 422.448 34.846 422.808 34.39C423.168 33.934 423.348 33.274 423.348 32.41C423.348 31.546 423.168 30.886 422.808 30.43C422.448 29.962 421.932 29.728 421.26 29.728C420.588 29.728 420.066 29.968 419.694 30.448C419.322 30.928 419.136 31.594 419.136 32.446C419.136 33.298 419.316 33.952 419.676 34.408C420.048 34.852 420.576 35.074 421.26 35.074ZM40.6027 60.144C38.8747 60.144 37.5127 59.772 36.5167 59.028L37.2367 57.138C37.7167 57.486 38.2507 57.756 38.8387 57.948C39.4267 58.128 40.0267 58.218 40.6387 58.218C41.1067 58.218 41.4667 58.146 41.7187 58.002C41.9707 57.858 42.0967 57.648 42.0967 57.372C42.0967 57.144 42.0067 56.964 41.8267 56.832C41.6467 56.7 41.3287 56.586 40.8727 56.49L39.3787 56.148C38.5027 55.956 37.8547 55.65 37.4347 55.23C37.0267 54.81 36.8227 54.252 36.8227 53.556C36.8227 52.992 36.9847 52.488 37.3087 52.044C37.6447 51.6 38.1067 51.258 38.6947 51.018C39.2827 50.766 39.9607 50.64 40.7287 50.64C41.3767 50.64 42.0127 50.742 42.6367 50.946C43.2607 51.138 43.8187 51.414 44.3107 51.774L43.5547 53.592C43.0867 53.268 42.6067 53.022 42.1147 52.854C41.6347 52.686 41.1667 52.602 40.7107 52.602C40.2667 52.602 39.9187 52.68 39.6667 52.836C39.4147 52.992 39.2887 53.208 39.2887 53.484C39.2887 53.688 39.3607 53.856 39.5047 53.988C39.6607 54.108 39.9307 54.21 40.3147 54.294L41.8447 54.636C42.7807 54.852 43.4587 55.176 43.8787 55.608C44.2987 56.04 44.5087 56.616 44.5087 57.336C44.5087 58.2 44.1607 58.884 43.4647 59.388C42.7687 59.892 41.8147 60.144 40.6027 60.144ZM50.4834 60.144C48.9954 60.144 47.8254 59.724 46.9734 58.884C46.1334 58.044 45.7134 56.898 45.7134 55.446C45.7134 54.498 45.9174 53.664 46.3254 52.944C46.7334 52.212 47.3034 51.648 48.0354 51.252C48.7794 50.844 49.6374 50.64 50.6094 50.64C51.2694 50.64 51.9114 50.742 52.5354 50.946C53.1594 51.15 53.6574 51.426 54.0294 51.774L53.3094 53.664C52.9494 53.376 52.5534 53.154 52.1214 52.998C51.6894 52.83 51.2694 52.746 50.8614 52.746C50.1174 52.746 49.5354 52.974 49.1154 53.43C48.7074 53.874 48.5034 54.528 48.5034 55.392C48.5034 56.268 48.7074 56.934 49.1154 57.39C49.5234 57.834 50.1054 58.056 50.8614 58.056C51.2694 58.056 51.6894 57.978 52.1214 57.822C52.5534 57.654 52.9494 57.426 53.3094 57.138L54.0294 59.028C53.6334 59.376 53.1174 59.652 52.4814 59.856C51.8454 60.048 51.1794 60.144 50.4834 60.144ZM64.4656 50.874V60H61.7836V58.65C61.5076 59.118 61.1176 59.484 60.6136 59.748C60.1096 60.012 59.5396 60.144 58.9036 60.144C58.1116 60.144 57.4096 59.952 56.7976 59.568C56.1976 59.184 55.7236 58.638 55.3756 57.93C55.0396 57.21 54.8716 56.382 54.8716 55.446C54.8716 54.51 55.0396 53.676 55.3756 52.944C55.7236 52.212 56.2036 51.648 56.8156 51.252C57.4276 50.844 58.1236 50.64 58.9036 50.64C59.5396 50.64 60.1096 50.778 60.6136 51.054C61.1176 51.33 61.5076 51.702 61.7836 52.17V50.874H64.4656ZM59.6956 58.074C60.3676 58.074 60.8836 57.846 61.2436 57.39C61.6036 56.934 61.7836 56.274 61.7836 55.41C61.7836 54.546 61.6036 53.886 61.2436 53.43C60.8836 52.962 60.3676 52.728 59.6956 52.728C59.0236 52.728 58.5016 52.968 58.1296 53.448C57.7576 53.928 57.5716 54.594 57.5716 55.446C57.5716 56.298 57.7516 56.952 58.1116 57.408C58.4836 57.852 59.0116 58.074 59.6956 58.074ZM66.6595 46.752H69.3775V60H66.6595V46.752ZM71.599 50.874H74.317V60H71.599V50.874ZM74.407 46.59V49.146H71.509V46.59H74.407ZM82.1724 50.64C84.3324 50.64 85.4124 51.918 85.4124 54.474V60H82.6944V54.6C82.6944 53.964 82.5744 53.502 82.3344 53.214C82.1064 52.914 81.7404 52.764 81.2364 52.764C80.6364 52.764 80.1564 52.956 79.7964 53.34C79.4364 53.724 79.2564 54.24 79.2564 54.888V60H76.5384V53.484C76.5384 52.512 76.4904 51.642 76.3944 50.874H78.9504L79.1304 52.314C79.4544 51.774 79.8744 51.36 80.3904 51.072C80.9184 50.784 81.5124 50.64 82.1724 50.64ZM96.8115 50.874V59.586C96.8115 61.038 96.3915 62.142 95.5515 62.898C94.7115 63.654 93.4875 64.032 91.8795 64.032C90.4275 64.032 89.1675 63.75 88.0995 63.186L88.5135 61.17C89.6175 61.722 90.7095 61.998 91.7895 61.998C92.5695 61.998 93.1515 61.812 93.5355 61.44C93.9195 61.08 94.1115 60.528 94.1115 59.784V58.2C93.8235 58.644 93.4215 59.016 92.9055 59.316C92.3895 59.604 91.8195 59.748 91.1955 59.748C90.4035 59.748 89.7015 59.562 89.0895 59.19C88.4775 58.806 87.9975 58.272 87.6495 57.588C87.3015 56.892 87.1275 56.094 87.1275 55.194C87.1275 54.294 87.3015 53.502 87.6495 52.818C87.9975 52.122 88.4775 51.588 89.0895 51.216C89.7015 50.832 90.4035 50.64 91.1955 50.64C91.8315 50.64 92.4075 50.778 92.9235 51.054C93.4395 51.33 93.8355 51.702 94.1115 52.17V50.874H96.8115ZM91.9875 57.678C92.6475 57.678 93.1635 57.462 93.5355 57.03C93.9195 56.586 94.1115 55.974 94.1115 55.194C94.1115 54.426 93.9255 53.826 93.5535 53.394C93.1815 52.95 92.6595 52.728 91.9875 52.728C91.3155 52.728 90.7875 52.95 90.4035 53.394C90.0195 53.826 89.8275 54.426 89.8275 55.194C89.8275 55.962 90.0195 56.568 90.4035 57.012C90.7875 57.456 91.3155 57.678 91.9875 57.678ZM113.192 50.874V60H110.51V58.65C110.234 59.118 109.844 59.484 109.34 59.748C108.836 60.012 108.266 60.144 107.63 60.144C106.838 60.144 106.136 59.952 105.524 59.568C104.924 59.184 104.45 58.638 104.102 57.93C103.766 57.21 103.598 56.382 103.598 55.446C103.598 54.51 103.766 53.676 104.102 52.944C104.45 52.212 104.93 51.648 105.542 51.252C106.154 50.844 106.85 50.64 107.63 50.64C108.266 50.64 108.836 50.778 109.34 51.054C109.844 51.33 110.234 51.702 110.51 52.17V50.874H113.192ZM108.422 58.074C109.094 58.074 109.61 57.846 109.97 57.39C110.33 56.934 110.51 56.274 110.51 55.41C110.51 54.546 110.33 53.886 109.97 53.43C109.61 52.962 109.094 52.728 108.422 52.728C107.75 52.728 107.228 52.968 106.856 53.448C106.484 53.928 106.298 54.594 106.298 55.446C106.298 56.298 106.478 56.952 106.838 57.408C107.21 57.852 107.738 58.074 108.422 58.074ZM121.02 50.64C123.18 50.64 124.26 51.918 124.26 54.474V60H121.542V54.6C121.542 53.964 121.422 53.502 121.182 53.214C120.954 52.914 120.588 52.764 120.084 52.764C119.484 52.764 119.004 52.956 118.644 53.34C118.284 53.724 118.104 54.24 118.104 54.888V60H115.386V53.484C115.386 52.512 115.338 51.642 115.242 50.874H117.798L117.978 52.314C118.302 51.774 118.722 51.36 119.238 51.072C119.766 50.784 120.36 50.64 121.02 50.64ZM135.569 46.752V60H132.887V58.65C132.611 59.118 132.221 59.484 131.717 59.748C131.213 60.012 130.643 60.144 130.007 60.144C129.227 60.144 128.531 59.946 127.919 59.55C127.307 59.142 126.827 58.578 126.479 57.858C126.143 57.126 125.975 56.292 125.975 55.356C125.975 54.42 126.143 53.598 126.479 52.89C126.827 52.17 127.301 51.618 127.901 51.234C128.513 50.838 129.215 50.64 130.007 50.64C130.619 50.64 131.177 50.772 131.681 51.036C132.185 51.288 132.575 51.642 132.851 52.098V46.752H135.569ZM130.799 58.074C131.471 58.074 131.987 57.846 132.347 57.39C132.707 56.922 132.887 56.256 132.887 55.392C132.887 54.54 132.701 53.886 132.329 53.43C131.969 52.962 131.459 52.728 130.799 52.728C130.127 52.728 129.605 52.956 129.233 53.412C128.861 53.868 128.675 54.516 128.675 55.356C128.675 56.22 128.861 56.892 129.233 57.372C129.605 57.84 130.127 58.074 130.799 58.074ZM148.406 50.64C149.186 50.64 149.882 50.844 150.494 51.252C151.106 51.648 151.58 52.212 151.916 52.944C152.264 53.676 152.438 54.51 152.438 55.446C152.438 56.382 152.27 57.21 151.934 57.93C151.598 58.638 151.124 59.184 150.512 59.568C149.9 59.952 149.198 60.144 148.406 60.144C147.77 60.144 147.2 60.012 146.696 59.748C146.192 59.484 145.808 59.118 145.544 58.65V63.888H142.826V53.484C142.826 52.512 142.778 51.642 142.682 50.874H145.238L145.418 52.386C145.658 51.846 146.042 51.42 146.57 51.108C147.11 50.796 147.722 50.64 148.406 50.64ZM147.632 58.074C148.304 58.074 148.82 57.852 149.18 57.408C149.54 56.952 149.72 56.298 149.72 55.446C149.72 54.594 149.534 53.928 149.162 53.448C148.802 52.968 148.292 52.728 147.632 52.728C146.96 52.728 146.438 52.962 146.066 53.43C145.706 53.886 145.526 54.546 145.526 55.41C145.526 56.274 145.706 56.934 146.066 57.39C146.438 57.846 146.96 58.074 147.632 58.074ZM159.491 50.658C159.875 50.658 160.199 50.718 160.463 50.838L160.445 53.322C160.001 53.118 159.557 53.016 159.113 53.016C158.393 53.016 157.841 53.214 157.457 53.61C157.085 53.994 156.899 54.534 156.899 55.23V60H154.181V53.484C154.181 52.512 154.133 51.642 154.037 50.874H156.593L156.773 52.44C157.001 51.864 157.355 51.426 157.835 51.126C158.327 50.814 158.879 50.658 159.491 50.658ZM161.564 50.874H164.282V60H161.564V50.874ZM164.372 46.59V49.146H161.474V46.59H164.372ZM175.503 50.892L171.489 60H169.185L165.225 50.892H168.069L170.409 56.796L172.821 50.892H175.503ZM185.368 50.874V60H182.686V58.65C182.41 59.118 182.02 59.484 181.516 59.748C181.012 60.012 180.442 60.144 179.806 60.144C179.014 60.144 178.312 59.952 177.7 59.568C177.1 59.184 176.626 58.638 176.278 57.93C175.942 57.21 175.774 56.382 175.774 55.446C175.774 54.51 175.942 53.676 176.278 52.944C176.626 52.212 177.106 51.648 177.718 51.252C178.33 50.844 179.026 50.64 179.806 50.64C180.442 50.64 181.012 50.778 181.516 51.054C182.02 51.33 182.41 51.702 182.686 52.17V50.874H185.368ZM180.598 58.074C181.27 58.074 181.786 57.846 182.146 57.39C182.506 56.934 182.686 56.274 182.686 55.41C182.686 54.546 182.506 53.886 182.146 53.43C181.786 52.962 181.27 52.728 180.598 52.728C179.926 52.728 179.404 52.968 179.032 53.448C178.66 53.928 178.474 54.594 178.474 55.446C178.474 56.298 178.654 56.952 179.014 57.408C179.386 57.852 179.914 58.074 180.598 58.074ZM191.882 60.144C190.394 60.144 189.224 59.724 188.372 58.884C187.532 58.044 187.112 56.898 187.112 55.446C187.112 54.498 187.316 53.664 187.724 52.944C188.132 52.212 188.702 51.648 189.434 51.252C190.178 50.844 191.036 50.64 192.008 50.64C192.668 50.64 193.31 50.742 193.934 50.946C194.558 51.15 195.056 51.426 195.428 51.774L194.708 53.664C194.348 53.376 193.952 53.154 193.52 52.998C193.088 52.83 192.668 52.746 192.26 52.746C191.516 52.746 190.934 52.974 190.514 53.43C190.106 53.874 189.902 54.528 189.902 55.392C189.902 56.268 190.106 56.934 190.514 57.39C190.922 57.834 191.504 58.056 192.26 58.056C192.668 58.056 193.088 57.978 193.52 57.822C193.952 57.654 194.348 57.426 194.708 57.138L195.428 59.028C195.032 59.376 194.516 59.652 193.88 59.856C193.244 60.048 192.578 60.144 191.882 60.144ZM205.72 50.874L201.508 60.486C200.992 61.65 200.338 62.502 199.546 63.042C198.766 63.594 197.806 63.948 196.666 64.104L196.036 62.016C196.876 61.836 197.506 61.608 197.926 61.332C198.358 61.056 198.694 60.654 198.934 60.126L199.204 59.532L195.442 50.874H198.286L200.626 56.796L203.038 50.874H205.72ZM219.869 55.662H213.857C213.905 56.514 214.127 57.138 214.523 57.534C214.919 57.918 215.507 58.11 216.287 58.11C216.755 58.11 217.223 58.032 217.691 57.876C218.159 57.72 218.591 57.492 218.987 57.192L219.707 59.028C219.275 59.376 218.735 59.652 218.087 59.856C217.451 60.048 216.809 60.144 216.161 60.144C214.625 60.144 213.419 59.724 212.543 58.884C211.667 58.032 211.229 56.874 211.229 55.41C211.229 54.486 211.415 53.664 211.787 52.944C212.171 52.212 212.705 51.648 213.389 51.252C214.073 50.844 214.847 50.64 215.711 50.64C216.995 50.64 218.009 51.06 218.753 51.9C219.497 52.728 219.869 53.85 219.869 55.266V55.662ZM215.783 52.548C215.267 52.548 214.847 52.698 214.523 52.998C214.211 53.298 214.007 53.736 213.911 54.312H217.529C217.385 53.136 216.803 52.548 215.783 52.548ZM227.21 50.64C229.37 50.64 230.45 51.918 230.45 54.474V60H227.732V54.6C227.732 53.964 227.612 53.502 227.372 53.214C227.144 52.914 226.778 52.764 226.274 52.764C225.674 52.764 225.194 52.956 224.834 53.34C224.474 53.724 224.294 54.24 224.294 54.888V60H221.576V53.484C221.576 52.512 221.528 51.642 221.432 50.874H223.988L224.168 52.314C224.492 51.774 224.912 51.36 225.428 51.072C225.956 50.784 226.55 50.64 227.21 50.64ZM241.849 50.874V59.586C241.849 61.038 241.429 62.142 240.589 62.898C239.749 63.654 238.525 64.032 236.917 64.032C235.465 64.032 234.205 63.75 233.137 63.186L233.551 61.17C234.655 61.722 235.747 61.998 236.827 61.998C237.607 61.998 238.189 61.812 238.573 61.44C238.957 61.08 239.149 60.528 239.149 59.784V58.2C238.861 58.644 238.459 59.016 237.943 59.316C237.427 59.604 236.857 59.748 236.233 59.748C235.441 59.748 234.739 59.562 234.127 59.19C233.515 58.806 233.035 58.272 232.687 57.588C232.339 56.892 232.165 56.094 232.165 55.194C232.165 54.294 232.339 53.502 232.687 52.818C233.035 52.122 233.515 51.588 234.127 51.216C234.739 50.832 235.441 50.64 236.233 50.64C236.869 50.64 237.445 50.778 237.961 51.054C238.477 51.33 238.873 51.702 239.149 52.17V50.874H241.849ZM237.025 57.678C237.685 57.678 238.201 57.462 238.573 57.03C238.957 56.586 239.149 55.974 239.149 55.194C239.149 54.426 238.963 53.826 238.591 53.394C238.219 52.95 237.697 52.728 237.025 52.728C236.353 52.728 235.825 52.95 235.441 53.394C235.057 53.826 234.865 54.426 234.865 55.194C234.865 55.962 235.057 56.568 235.441 57.012C235.825 57.456 236.353 57.678 237.025 57.678ZM244.023 50.874H246.741V60H244.023V50.874ZM246.831 46.59V49.146H243.933V46.59H246.831ZM254.596 50.64C256.756 50.64 257.836 51.918 257.836 54.474V60H255.118V54.6C255.118 53.964 254.998 53.502 254.758 53.214C254.53 52.914 254.164 52.764 253.66 52.764C253.06 52.764 252.58 52.956 252.22 53.34C251.86 53.724 251.68 54.24 251.68 54.888V60H248.962V53.484C248.962 52.512 248.914 51.642 248.818 50.874H251.374L251.554 52.314C251.878 51.774 252.298 51.36 252.814 51.072C253.342 50.784 253.936 50.64 254.596 50.64ZM268.191 55.662H262.179C262.227 56.514 262.449 57.138 262.845 57.534C263.241 57.918 263.829 58.11 264.609 58.11C265.077 58.11 265.545 58.032 266.013 57.876C266.481 57.72 266.913 57.492 267.309 57.192L268.029 59.028C267.597 59.376 267.057 59.652 266.409 59.856C265.773 60.048 265.131 60.144 264.483 60.144C262.947 60.144 261.741 59.724 260.865 58.884C259.989 58.032 259.551 56.874 259.551 55.41C259.551 54.486 259.737 53.664 260.109 52.944C260.493 52.212 261.027 51.648 261.711 51.252C262.395 50.844 263.169 50.64 264.033 50.64C265.317 50.64 266.331 51.06 267.075 51.9C267.819 52.728 268.191 53.85 268.191 55.266V55.662ZM264.105 52.548C263.589 52.548 263.169 52.698 262.845 52.998C262.533 53.298 262.329 53.736 262.233 54.312H265.851C265.707 53.136 265.125 52.548 264.105 52.548ZM279.748 48.894C279.328 48.894 278.992 49.014 278.74 49.254C278.488 49.482 278.362 49.854 278.362 50.37V50.874H280.27V52.908H278.362V60H275.644V52.908H273.934V50.874H275.644V50.298C275.644 49.146 275.938 48.252 276.526 47.616C277.114 46.98 277.966 46.662 279.082 46.662C279.706 46.662 280.222 46.74 280.63 46.896V49.02C280.282 48.936 279.988 48.894 279.748 48.894ZM286.154 60.144C285.182 60.144 284.33 59.952 283.598 59.568C282.878 59.184 282.32 58.632 281.924 57.912C281.54 57.192 281.348 56.352 281.348 55.392C281.348 54.432 281.54 53.592 281.924 52.872C282.32 52.152 282.878 51.6 283.598 51.216C284.33 50.832 285.182 50.64 286.154 50.64C287.114 50.64 287.954 50.832 288.674 51.216C289.394 51.6 289.946 52.152 290.33 52.872C290.726 53.592 290.924 54.432 290.924 55.392C290.924 56.352 290.726 57.192 290.33 57.912C289.946 58.632 289.394 59.184 288.674 59.568C287.954 59.952 287.114 60.144 286.154 60.144ZM286.154 58.074C286.826 58.074 287.336 57.852 287.684 57.408C288.044 56.964 288.224 56.292 288.224 55.392C288.224 54.504 288.044 53.838 287.684 53.394C287.336 52.938 286.826 52.71 286.154 52.71C285.47 52.71 284.948 52.938 284.588 53.394C284.228 53.838 284.048 54.504 284.048 55.392C284.048 57.18 284.75 58.074 286.154 58.074ZM297.971 50.658C298.355 50.658 298.679 50.718 298.943 50.838L298.925 53.322C298.481 53.118 298.037 53.016 297.593 53.016C296.873 53.016 296.321 53.214 295.937 53.61C295.565 53.994 295.379 54.534 295.379 55.23V60H292.661V53.484C292.661 52.512 292.613 51.642 292.517 50.874H295.073L295.253 52.44C295.481 51.864 295.835 51.426 296.315 51.126C296.807 50.814 297.359 50.658 297.971 50.658ZM305.287 47.184H314.125V49.362H308.023V52.386H313.747V54.582H308.023V57.822H314.125V60H305.287V47.184ZM319.302 52.908V56.454C319.302 56.958 319.434 57.33 319.698 57.57C319.962 57.798 320.304 57.912 320.724 57.912C320.988 57.912 321.288 57.87 321.624 57.786V59.892C321.192 60.06 320.67 60.144 320.058 60.144C318.93 60.144 318.066 59.826 317.466 59.19C316.878 58.554 316.584 57.66 316.584 56.508V52.908H314.856V50.874H316.584V48.732L319.302 47.85V50.874H321.624V52.908H319.302ZM328.653 50.64C330.813 50.64 331.893 51.918 331.893 54.474V60H329.175V54.6C329.175 53.964 329.055 53.502 328.815 53.214C328.587 52.914 328.221 52.764 327.717 52.764C327.117 52.764 326.637 52.956 326.277 53.34C325.917 53.724 325.737 54.24 325.737 54.888V60H323.019V46.752H325.737V52.116C326.061 51.636 326.475 51.27 326.979 51.018C327.483 50.766 328.041 50.64 328.653 50.64ZM342.248 55.662H336.236C336.284 56.514 336.506 57.138 336.902 57.534C337.298 57.918 337.886 58.11 338.666 58.11C339.134 58.11 339.602 58.032 340.07 57.876C340.538 57.72 340.97 57.492 341.366 57.192L342.086 59.028C341.654 59.376 341.114 59.652 340.466 59.856C339.83 60.048 339.188 60.144 338.54 60.144C337.004 60.144 335.798 59.724 334.922 58.884C334.046 58.032 333.608 56.874 333.608 55.41C333.608 54.486 333.794 53.664 334.166 52.944C334.55 52.212 335.084 51.648 335.768 51.252C336.452 50.844 337.226 50.64 338.09 50.64C339.374 50.64 340.388 51.06 341.132 51.9C341.876 52.728 342.248 53.85 342.248 55.266V55.662ZM338.162 52.548C337.646 52.548 337.226 52.698 336.902 52.998C336.59 53.298 336.386 53.736 336.29 54.312H339.908C339.764 53.136 339.182 52.548 338.162 52.548ZM349.264 50.658C349.648 50.658 349.972 50.718 350.236 50.838L350.218 53.322C349.774 53.118 349.33 53.016 348.886 53.016C348.166 53.016 347.614 53.214 347.23 53.61C346.858 53.994 346.672 54.534 346.672 55.23V60H343.954V53.484C343.954 52.512 343.906 51.642 343.81 50.874H346.366L346.546 52.44C346.774 51.864 347.128 51.426 347.608 51.126C348.1 50.814 348.652 50.658 349.264 50.658ZM359.351 55.662H353.339C353.387 56.514 353.609 57.138 354.005 57.534C354.401 57.918 354.989 58.11 355.769 58.11C356.237 58.11 356.705 58.032 357.173 57.876C357.641 57.72 358.073 57.492 358.469 57.192L359.189 59.028C358.757 59.376 358.217 59.652 357.569 59.856C356.933 60.048 356.291 60.144 355.643 60.144C354.107 60.144 352.901 59.724 352.025 58.884C351.149 58.032 350.711 56.874 350.711 55.41C350.711 54.486 350.897 53.664 351.269 52.944C351.653 52.212 352.187 51.648 352.871 51.252C353.555 50.844 354.329 50.64 355.193 50.64C356.477 50.64 357.491 51.06 358.235 51.9C358.979 52.728 359.351 53.85 359.351 55.266V55.662ZM355.265 52.548C354.749 52.548 354.329 52.698 354.005 52.998C353.693 53.298 353.489 53.736 353.393 54.312H357.011C356.867 53.136 356.285 52.548 355.265 52.548ZM369.77 50.874V60H367.124V58.668C366.836 59.148 366.458 59.514 365.99 59.766C365.522 60.018 364.994 60.144 364.406 60.144C363.266 60.144 362.414 59.826 361.85 59.19C361.286 58.554 361.004 57.594 361.004 56.31V50.874H363.722V56.364C363.722 57.468 364.196 58.02 365.144 58.02C365.708 58.02 366.164 57.828 366.512 57.444C366.86 57.06 367.034 56.556 367.034 55.932V50.874H369.77ZM383.134 50.64C384.178 50.64 384.952 50.958 385.456 51.594C385.972 52.218 386.23 53.178 386.23 54.474V60H383.512V54.564C383.512 53.928 383.41 53.472 383.206 53.196C383.002 52.908 382.666 52.764 382.198 52.764C381.646 52.764 381.22 52.956 380.92 53.34C380.62 53.724 380.47 54.264 380.47 54.96V60H377.752V54.564C377.752 53.94 377.644 53.484 377.428 53.196C377.224 52.908 376.894 52.764 376.438 52.764C375.886 52.764 375.454 52.956 375.142 53.34C374.842 53.724 374.692 54.264 374.692 54.96V60H371.974V53.484C371.974 52.512 371.926 51.642 371.83 50.874H374.386L374.548 52.242C374.824 51.726 375.208 51.33 375.7 51.054C376.204 50.778 376.78 50.64 377.428 50.64C378.784 50.64 379.684 51.204 380.128 52.332C380.428 51.816 380.842 51.408 381.37 51.108C381.91 50.796 382.498 50.64 383.134 50.64ZM391.092 57.102V60H388.158V57.102H391.092Z" fill="#626262"/>
</svg>
