<svg width="380" height="38" viewBox="0 0 380 38" fill="none" xmlns="http://www.w3.org/2000/svg">
<path d="M6.56439 14.162C5.29239 14.162 4.18239 13.898 3.23439 13.37C2.29839 12.83 1.57239 12.062 1.05639 11.066C0.552391 10.07 0.300391 8.906 0.300391 7.574C0.300391 6.242 0.552391 5.084 1.05639 4.1C1.57239 3.116 2.29839 2.36 3.23439 1.832C4.18239 1.292 5.29239 1.022 6.56439 1.022C7.83639 1.022 8.94039 1.292 9.87639 1.832C10.8124 2.36 11.5324 3.116 12.0364 4.1C12.5404 5.084 12.7924 6.242 12.7924 7.574C12.7924 8.906 12.5404 10.07 12.0364 11.066C11.5324 12.062 10.8124 12.83 9.87639 13.37C8.94039 13.898 7.83639 14.162 6.56439 14.162ZM6.56439 11.966C7.64439 11.966 8.48439 11.588 9.08439 10.832C9.69639 10.076 10.0024 8.99 10.0024 7.574C10.0024 6.158 9.69639 5.078 9.08439 4.334C8.48439 3.59 7.64439 3.218 6.56439 3.218C5.48439 3.218 4.63839 3.59 4.02639 4.334C3.42639 5.078 3.12639 6.158 3.12639 7.574C3.12639 9.002 3.42639 10.094 4.02639 10.85C4.63839 11.594 5.48439 11.966 6.56439 11.966ZM20.387 4.64C21.167 4.64 21.863 4.844 22.475 5.252C23.087 5.648 23.561 6.212 23.897 6.944C24.245 7.676 24.419 8.51 24.419 9.446C24.419 10.382 24.251 11.21 23.915 11.93C23.579 12.638 23.105 13.184 22.493 13.568C21.881 13.952 21.179 14.144 20.387 14.144C19.751 14.144 19.181 14.012 18.677 13.748C18.173 13.484 17.789 13.118 17.525 12.65V17.888H14.807V7.484C14.807 6.512 14.759 5.642 14.663 4.874H17.219L17.399 6.386C17.639 5.846 18.023 5.42 18.551 5.108C19.091 4.796 19.703 4.64 20.387 4.64ZM19.613 12.074C20.285 12.074 20.801 11.852 21.161 11.408C21.521 10.952 21.701 10.298 21.701 9.446C21.701 8.594 21.515 7.928 21.143 7.448C20.783 6.968 20.273 6.728 19.613 6.728C18.941 6.728 18.419 6.962 18.047 7.43C17.687 7.886 17.507 8.546 17.507 9.41C17.507 10.274 17.687 10.934 18.047 11.39C18.419 11.846 18.941 12.074 19.613 12.074ZM34.3525 9.662H28.3405C28.3885 10.514 28.6105 11.138 29.0065 11.534C29.4025 11.918 29.9905 12.11 30.7705 12.11C31.2385 12.11 31.7065 12.032 32.1745 11.876C32.6425 11.72 33.0745 11.492 33.4705 11.192L34.1905 13.028C33.7585 13.376 33.2185 13.652 32.5705 13.856C31.9345 14.048 31.2925 14.144 30.6445 14.144C29.1085 14.144 27.9025 13.724 27.0265 12.884C26.1505 12.032 25.7125 10.874 25.7125 9.41C25.7125 8.486 25.8985 7.664 26.2705 6.944C26.6545 6.212 27.1885 5.648 27.8725 5.252C28.5565 4.844 29.3305 4.64 30.1945 4.64C31.4785 4.64 32.4925 5.06 33.2365 5.9C33.9805 6.728 34.3525 7.85 34.3525 9.266V9.662ZM30.2665 6.548C29.7505 6.548 29.3305 6.698 29.0065 6.998C28.6945 7.298 28.4905 7.736 28.3945 8.312H32.0125C31.8685 7.136 31.2865 6.548 30.2665 6.548ZM41.6929 4.64C43.8529 4.64 44.9329 5.918 44.9329 8.474V14H42.2149V8.6C42.2149 7.964 42.0949 7.502 41.8549 7.214C41.6269 6.914 41.2609 6.764 40.7569 6.764C40.1569 6.764 39.6769 6.956 39.3169 7.34C38.9569 7.724 38.7769 8.24 38.7769 8.888V14H36.0589V7.484C36.0589 6.512 36.0109 5.642 35.9149 4.874H38.4709L38.6509 6.314C38.9749 5.774 39.3949 5.36 39.9109 5.072C40.4389 4.784 41.0329 4.64 41.6929 4.64ZM51.76 14.162C50.788 14.162 49.852 14.036 48.952 13.784C48.064 13.52 47.326 13.154 46.738 12.686L47.638 10.67C48.874 11.534 50.254 11.966 51.778 11.966C52.594 11.966 53.218 11.84 53.65 11.588C54.094 11.324 54.316 10.958 54.316 10.49C54.316 10.082 54.112 9.764 53.704 9.536C53.308 9.296 52.606 9.068 51.598 8.852C50.47 8.624 49.57 8.348 48.898 8.024C48.238 7.688 47.752 7.286 47.44 6.818C47.14 6.338 46.99 5.744 46.99 5.036C46.99 4.268 47.2 3.578 47.62 2.966C48.052 2.354 48.652 1.88 49.42 1.544C50.188 1.196 51.076 1.022 52.084 1.022C52.996 1.022 53.872 1.154 54.712 1.418C55.552 1.682 56.224 2.042 56.728 2.498L55.828 4.514C54.7 3.65 53.458 3.218 52.102 3.218C51.382 3.218 50.806 3.362 50.374 3.65C49.942 3.938 49.726 4.328 49.726 4.82C49.726 5.108 49.804 5.348 49.96 5.54C50.128 5.732 50.404 5.906 50.788 6.062C51.172 6.206 51.718 6.35 52.426 6.494C54.07 6.854 55.252 7.322 55.972 7.898C56.704 8.474 57.07 9.26 57.07 10.256C57.07 11.456 56.602 12.41 55.666 13.118C54.73 13.814 53.428 14.162 51.76 14.162ZM65.2281 14L61.6461 9.914V14H58.9281V0.751999H61.6461V8.798L65.0661 4.892H68.3241L64.4541 9.266L68.5581 14H65.2281ZM78.0707 4.874L73.8587 14.486C73.3427 15.65 72.6887 16.502 71.8967 17.042C71.1167 17.594 70.1567 17.948 69.0167 18.104L68.3867 16.016C69.2267 15.836 69.8567 15.608 70.2767 15.332C70.7087 15.056 71.0447 14.654 71.2847 14.126L71.5547 13.532L67.7927 4.874H70.6367L72.9767 10.796L75.3887 4.874H78.0707ZM84.0296 0.751999H86.7476V14H84.0296V0.751999ZM97.1591 9.662H91.1471C91.1951 10.514 91.4171 11.138 91.8131 11.534C92.2091 11.918 92.7971 12.11 93.5771 12.11C94.0451 12.11 94.5131 12.032 94.9811 11.876C95.4491 11.72 95.8811 11.492 96.2771 11.192L96.9971 13.028C96.5651 13.376 96.0251 13.652 95.3771 13.856C94.7411 14.048 94.0991 14.144 93.4511 14.144C91.9151 14.144 90.7091 13.724 89.8331 12.884C88.9571 12.032 88.5191 10.874 88.5191 9.41C88.5191 8.486 88.7051 7.664 89.0771 6.944C89.4611 6.212 89.9951 5.648 90.6791 5.252C91.3631 4.844 92.1371 4.64 93.0011 4.64C94.2851 4.64 95.2991 5.06 96.0431 5.9C96.7871 6.728 97.1591 7.85 97.1591 9.266V9.662ZM93.0731 6.548C92.5571 6.548 92.1371 6.698 91.8131 6.998C91.5011 7.298 91.2971 7.736 91.2011 8.312H94.8191C94.6751 7.136 94.0931 6.548 93.0731 6.548ZM102.11 6.908V10.454C102.11 10.958 102.242 11.33 102.506 11.57C102.77 11.798 103.112 11.912 103.532 11.912C103.796 11.912 104.096 11.87 104.432 11.786V13.892C104 14.06 103.478 14.144 102.866 14.144C101.738 14.144 100.874 13.826 100.274 13.19C99.6858 12.554 99.3918 11.66 99.3918 10.508V6.908H97.6638V4.874H99.3918V2.732L102.11 1.85V4.874H104.432V6.908H102.11ZM109.319 14.144C107.591 14.144 106.229 13.772 105.233 13.028L105.953 11.138C106.433 11.486 106.967 11.756 107.555 11.948C108.143 12.128 108.743 12.218 109.355 12.218C109.823 12.218 110.183 12.146 110.435 12.002C110.687 11.858 110.813 11.648 110.813 11.372C110.813 11.144 110.723 10.964 110.543 10.832C110.363 10.7 110.045 10.586 109.589 10.49L108.095 10.148C107.219 9.956 106.571 9.65 106.151 9.23C105.743 8.81 105.539 8.252 105.539 7.556C105.539 6.992 105.701 6.488 106.025 6.044C106.361 5.6 106.823 5.258 107.411 5.018C107.999 4.766 108.677 4.64 109.445 4.64C110.093 4.64 110.729 4.742 111.353 4.946C111.977 5.138 112.535 5.414 113.027 5.774L112.271 7.592C111.803 7.268 111.323 7.022 110.831 6.854C110.351 6.686 109.883 6.602 109.427 6.602C108.983 6.602 108.635 6.68 108.383 6.836C108.131 6.992 108.005 7.208 108.005 7.484C108.005 7.688 108.077 7.856 108.221 7.988C108.377 8.108 108.647 8.21 109.031 8.294L110.561 8.636C111.497 8.852 112.175 9.176 112.595 9.608C113.015 10.04 113.225 10.616 113.225 11.336C113.225 12.2 112.877 12.884 112.181 13.388C111.485 13.892 110.531 14.144 109.319 14.144ZM128.942 4.874L124.73 14.486C124.214 15.65 123.56 16.502 122.768 17.042C121.988 17.594 121.028 17.948 119.888 18.104L119.258 16.016C120.098 15.836 120.728 15.608 121.148 15.332C121.58 15.056 121.916 14.654 122.156 14.126L122.426 13.532L118.664 4.874H121.508L123.848 10.796L126.26 4.874H128.942ZM134.018 14.144C133.046 14.144 132.194 13.952 131.462 13.568C130.742 13.184 130.184 12.632 129.788 11.912C129.404 11.192 129.212 10.352 129.212 9.392C129.212 8.432 129.404 7.592 129.788 6.872C130.184 6.152 130.742 5.6 131.462 5.216C132.194 4.832 133.046 4.64 134.018 4.64C134.978 4.64 135.818 4.832 136.538 5.216C137.258 5.6 137.81 6.152 138.194 6.872C138.59 7.592 138.788 8.432 138.788 9.392C138.788 10.352 138.59 11.192 138.194 11.912C137.81 12.632 137.258 13.184 136.538 13.568C135.818 13.952 134.978 14.144 134.018 14.144ZM134.018 12.074C134.69 12.074 135.2 11.852 135.548 11.408C135.908 10.964 136.088 10.292 136.088 9.392C136.088 8.504 135.908 7.838 135.548 7.394C135.2 6.938 134.69 6.71 134.018 6.71C133.334 6.71 132.812 6.938 132.452 7.394C132.092 7.838 131.912 8.504 131.912 9.392C131.912 11.18 132.614 12.074 134.018 12.074ZM149.238 4.874V14H146.592V12.668C146.304 13.148 145.926 13.514 145.458 13.766C144.99 14.018 144.462 14.144 143.874 14.144C142.734 14.144 141.882 13.826 141.318 13.19C140.754 12.554 140.472 11.594 140.472 10.31V4.874H143.19V10.364C143.19 11.468 143.664 12.02 144.612 12.02C145.176 12.02 145.632 11.828 145.98 11.444C146.328 11.06 146.502 10.556 146.502 9.932V4.874H149.238ZM167.664 4.64C168.708 4.64 169.482 4.958 169.986 5.594C170.502 6.218 170.76 7.178 170.76 8.474V14H168.042V8.564C168.042 7.928 167.94 7.472 167.736 7.196C167.532 6.908 167.196 6.764 166.728 6.764C166.176 6.764 165.75 6.956 165.45 7.34C165.15 7.724 165 8.264 165 8.96V14H162.282V8.564C162.282 7.94 162.174 7.484 161.958 7.196C161.754 6.908 161.424 6.764 160.968 6.764C160.416 6.764 159.984 6.956 159.672 7.34C159.372 7.724 159.222 8.264 159.222 8.96V14H156.504V7.484C156.504 6.512 156.456 5.642 156.36 4.874H158.916L159.078 6.242C159.354 5.726 159.738 5.33 160.23 5.054C160.734 4.778 161.31 4.64 161.958 4.64C163.314 4.64 164.214 5.204 164.658 6.332C164.958 5.816 165.372 5.408 165.9 5.108C166.44 4.796 167.028 4.64 167.664 4.64ZM172.905 4.874H175.623V14H172.905V4.874ZM175.713 0.589999V3.146H172.815V0.589999H175.713ZM183.478 4.64C185.638 4.64 186.718 5.918 186.718 8.474V14H184V8.6C184 7.964 183.88 7.502 183.64 7.214C183.412 6.914 183.046 6.764 182.542 6.764C181.942 6.764 181.462 6.956 181.102 7.34C180.742 7.724 180.562 8.24 180.562 8.888V14H177.844V7.484C177.844 6.512 177.796 5.642 177.7 4.874H180.256L180.436 6.314C180.76 5.774 181.18 5.36 181.696 5.072C182.224 4.784 182.818 4.64 183.478 4.64ZM192.303 6.908V10.454C192.303 10.958 192.435 11.33 192.699 11.57C192.963 11.798 193.305 11.912 193.725 11.912C193.989 11.912 194.289 11.87 194.625 11.786V13.892C194.193 14.06 193.671 14.144 193.059 14.144C191.931 14.144 191.067 13.826 190.467 13.19C189.879 12.554 189.585 11.66 189.585 10.508V6.908H187.857V4.874H189.585V2.732L192.303 1.85V4.874H194.625V6.908H192.303ZM210.226 4.874V14H207.544V12.65C207.268 13.118 206.878 13.484 206.374 13.748C205.87 14.012 205.3 14.144 204.664 14.144C203.872 14.144 203.17 13.952 202.558 13.568C201.958 13.184 201.484 12.638 201.136 11.93C200.8 11.21 200.632 10.382 200.632 9.446C200.632 8.51 200.8 7.676 201.136 6.944C201.484 6.212 201.964 5.648 202.576 5.252C203.188 4.844 203.884 4.64 204.664 4.64C205.3 4.64 205.87 4.778 206.374 5.054C206.878 5.33 207.268 5.702 207.544 6.17V4.874H210.226ZM205.456 12.074C206.128 12.074 206.644 11.846 207.004 11.39C207.364 10.934 207.544 10.274 207.544 9.41C207.544 8.546 207.364 7.886 207.004 7.43C206.644 6.962 206.128 6.728 205.456 6.728C204.784 6.728 204.262 6.968 203.89 7.448C203.518 7.928 203.332 8.594 203.332 9.446C203.332 10.298 203.512 10.952 203.872 11.408C204.244 11.852 204.772 12.074 205.456 12.074ZM218.054 4.64C220.214 4.64 221.294 5.918 221.294 8.474V14H218.576V8.6C218.576 7.964 218.456 7.502 218.216 7.214C217.988 6.914 217.622 6.764 217.118 6.764C216.518 6.764 216.038 6.956 215.678 7.34C215.318 7.724 215.138 8.24 215.138 8.888V14H212.42V7.484C212.42 6.512 212.372 5.642 212.276 4.874H214.832L215.012 6.314C215.336 5.774 215.756 5.36 216.272 5.072C216.8 4.784 217.394 4.64 218.054 4.64ZM232.603 0.751999V14H229.921V12.65C229.645 13.118 229.255 13.484 228.751 13.748C228.247 14.012 227.677 14.144 227.041 14.144C226.261 14.144 225.565 13.946 224.953 13.55C224.341 13.142 223.861 12.578 223.513 11.858C223.177 11.126 223.009 10.292 223.009 9.356C223.009 8.42 223.177 7.598 223.513 6.89C223.861 6.17 224.335 5.618 224.935 5.234C225.547 4.838 226.249 4.64 227.041 4.64C227.653 4.64 228.211 4.772 228.715 5.036C229.219 5.288 229.609 5.642 229.885 6.098V0.751999H232.603ZM227.833 12.074C228.505 12.074 229.021 11.846 229.381 11.39C229.741 10.922 229.921 10.256 229.921 9.392C229.921 8.54 229.735 7.886 229.363 7.43C229.003 6.962 228.493 6.728 227.833 6.728C227.161 6.728 226.639 6.956 226.267 7.412C225.895 7.868 225.709 8.516 225.709 9.356C225.709 10.22 225.895 10.892 226.267 11.372C226.639 11.84 227.161 12.074 227.833 12.074ZM243.28 6.908V10.454C243.28 10.958 243.412 11.33 243.676 11.57C243.94 11.798 244.282 11.912 244.702 11.912C244.966 11.912 245.266 11.87 245.602 11.786V13.892C245.17 14.06 244.648 14.144 244.036 14.144C242.908 14.144 242.044 13.826 241.444 13.19C240.856 12.554 240.562 11.66 240.562 10.508V6.908H238.834V4.874H240.562V2.732L243.28 1.85V4.874H245.602V6.908H243.28ZM252.306 4.658C252.69 4.658 253.014 4.718 253.278 4.838L253.26 7.322C252.816 7.118 252.372 7.016 251.928 7.016C251.208 7.016 250.656 7.214 250.272 7.61C249.9 7.994 249.714 8.534 249.714 9.23V14H246.996V7.484C246.996 6.512 246.948 5.642 246.852 4.874H249.408L249.588 6.44C249.816 5.864 250.17 5.426 250.65 5.126C251.142 4.814 251.694 4.658 252.306 4.658ZM263.347 4.874V14H260.665V12.65C260.389 13.118 259.999 13.484 259.495 13.748C258.991 14.012 258.421 14.144 257.785 14.144C256.993 14.144 256.291 13.952 255.679 13.568C255.079 13.184 254.605 12.638 254.257 11.93C253.921 11.21 253.753 10.382 253.753 9.446C253.753 8.51 253.921 7.676 254.257 6.944C254.605 6.212 255.085 5.648 255.697 5.252C256.309 4.844 257.005 4.64 257.785 4.64C258.421 4.64 258.991 4.778 259.495 5.054C259.999 5.33 260.389 5.702 260.665 6.17V4.874H263.347ZM258.577 12.074C259.249 12.074 259.765 11.846 260.125 11.39C260.485 10.934 260.665 10.274 260.665 9.41C260.665 8.546 260.485 7.886 260.125 7.43C259.765 6.962 259.249 6.728 258.577 6.728C257.905 6.728 257.383 6.968 257.011 7.448C256.639 7.928 256.453 8.594 256.453 9.446C256.453 10.298 256.633 10.952 256.993 11.408C257.365 11.852 257.893 12.074 258.577 12.074ZM274.685 0.751999V14H272.003V12.65C271.727 13.118 271.337 13.484 270.833 13.748C270.329 14.012 269.759 14.144 269.123 14.144C268.343 14.144 267.647 13.946 267.035 13.55C266.423 13.142 265.943 12.578 265.595 11.858C265.259 11.126 265.091 10.292 265.091 9.356C265.091 8.42 265.259 7.598 265.595 6.89C265.943 6.17 266.417 5.618 267.017 5.234C267.629 4.838 268.331 4.64 269.123 4.64C269.735 4.64 270.293 4.772 270.797 5.036C271.301 5.288 271.691 5.642 271.967 6.098V0.751999H274.685ZM269.915 12.074C270.587 12.074 271.103 11.846 271.463 11.39C271.823 10.922 272.003 10.256 272.003 9.392C272.003 8.54 271.817 7.886 271.445 7.43C271.085 6.962 270.575 6.728 269.915 6.728C269.243 6.728 268.721 6.956 268.349 7.412C267.977 7.868 267.791 8.516 267.791 9.356C267.791 10.22 267.977 10.892 268.349 11.372C268.721 11.84 269.243 12.074 269.915 12.074ZM285.069 9.662H279.057C279.105 10.514 279.327 11.138 279.723 11.534C280.119 11.918 280.707 12.11 281.487 12.11C281.955 12.11 282.423 12.032 282.891 11.876C283.359 11.72 283.791 11.492 284.187 11.192L284.907 13.028C284.475 13.376 283.935 13.652 283.287 13.856C282.651 14.048 282.009 14.144 281.361 14.144C279.825 14.144 278.619 13.724 277.743 12.884C276.867 12.032 276.429 10.874 276.429 9.41C276.429 8.486 276.615 7.664 276.987 6.944C277.371 6.212 277.905 5.648 278.589 5.252C279.273 4.844 280.047 4.64 280.911 4.64C282.195 4.64 283.209 5.06 283.953 5.9C284.697 6.728 285.069 7.85 285.069 9.266V9.662ZM280.983 6.548C280.467 6.548 280.047 6.698 279.723 6.998C279.411 7.298 279.207 7.736 279.111 8.312H282.729C282.585 7.136 282.003 6.548 280.983 6.548ZM303.124 1.184V14H301.036L294.646 5.828V14H292.018V1.184H294.088L300.478 9.338V1.184H303.124ZM305.694 1.184H314.334V3.398H308.466V6.368H313.974V8.6H308.466V14H305.694V1.184ZM319.386 3.47H315.372V1.184H326.244V3.47H322.23V14H319.386V3.47ZM329.59 14.144C327.862 14.144 326.5 13.772 325.504 13.028L326.224 11.138C326.704 11.486 327.238 11.756 327.826 11.948C328.414 12.128 329.014 12.218 329.626 12.218C330.094 12.218 330.454 12.146 330.706 12.002C330.958 11.858 331.084 11.648 331.084 11.372C331.084 11.144 330.994 10.964 330.814 10.832C330.634 10.7 330.316 10.586 329.86 10.49L328.366 10.148C327.49 9.956 326.842 9.65 326.422 9.23C326.014 8.81 325.81 8.252 325.81 7.556C325.81 6.992 325.972 6.488 326.296 6.044C326.632 5.6 327.094 5.258 327.682 5.018C328.27 4.766 328.948 4.64 329.716 4.64C330.364 4.64 331 4.742 331.624 4.946C332.248 5.138 332.806 5.414 333.298 5.774L332.542 7.592C332.074 7.268 331.594 7.022 331.102 6.854C330.622 6.686 330.154 6.602 329.698 6.602C329.254 6.602 328.906 6.68 328.654 6.836C328.402 6.992 328.276 7.208 328.276 7.484C328.276 7.688 328.348 7.856 328.492 7.988C328.648 8.108 328.918 8.21 329.302 8.294L330.832 8.636C331.768 8.852 332.446 9.176 332.866 9.608C333.286 10.04 333.496 10.616 333.496 11.336C333.496 12.2 333.148 12.884 332.452 13.388C331.756 13.892 330.802 14.144 329.59 14.144ZM345.001 2.894C344.581 2.894 344.245 3.014 343.993 3.254C343.741 3.482 343.615 3.854 343.615 4.37V4.874H345.523V6.908H343.615V14H340.897V6.908H339.187V4.874H340.897V4.298C340.897 3.146 341.191 2.252 341.779 1.616C342.367 0.979999 343.219 0.661999 344.335 0.661999C344.959 0.661999 345.475 0.739999 345.883 0.895999V3.02C345.535 2.936 345.241 2.894 345.001 2.894ZM351.407 14.144C350.435 14.144 349.583 13.952 348.851 13.568C348.131 13.184 347.573 12.632 347.177 11.912C346.793 11.192 346.601 10.352 346.601 9.392C346.601 8.432 346.793 7.592 347.177 6.872C347.573 6.152 348.131 5.6 348.851 5.216C349.583 4.832 350.435 4.64 351.407 4.64C352.367 4.64 353.207 4.832 353.927 5.216C354.647 5.6 355.199 6.152 355.583 6.872C355.979 7.592 356.177 8.432 356.177 9.392C356.177 10.352 355.979 11.192 355.583 11.912C355.199 12.632 354.647 13.184 353.927 13.568C353.207 13.952 352.367 14.144 351.407 14.144ZM351.407 12.074C352.079 12.074 352.589 11.852 352.937 11.408C353.297 10.964 353.477 10.292 353.477 9.392C353.477 8.504 353.297 7.838 352.937 7.394C352.589 6.938 352.079 6.71 351.407 6.71C350.723 6.71 350.201 6.938 349.841 7.394C349.481 7.838 349.301 8.504 349.301 9.392C349.301 11.18 350.003 12.074 351.407 12.074ZM363.224 4.658C363.608 4.658 363.932 4.718 364.196 4.838L364.178 7.322C363.734 7.118 363.29 7.016 362.846 7.016C362.126 7.016 361.574 7.214 361.19 7.61C360.818 7.994 360.632 8.534 360.632 9.23V14H357.914V7.484C357.914 6.512 357.866 5.642 357.77 4.874H360.326L360.506 6.44C360.734 5.864 361.088 5.426 361.568 5.126C362.06 4.814 362.612 4.658 363.224 4.658ZM379.504 4.874V14H376.822V12.65C376.546 13.118 376.156 13.484 375.652 13.748C375.148 14.012 374.578 14.144 373.942 14.144C373.15 14.144 372.448 13.952 371.836 13.568C371.236 13.184 370.762 12.638 370.414 11.93C370.078 11.21 369.91 10.382 369.91 9.446C369.91 8.51 370.078 7.676 370.414 6.944C370.762 6.212 371.242 5.648 371.854 5.252C372.466 4.844 373.162 4.64 373.942 4.64C374.578 4.64 375.148 4.778 375.652 5.054C376.156 5.33 376.546 5.702 376.822 6.17V4.874H379.504ZM374.734 12.074C375.406 12.074 375.922 11.846 376.282 11.39C376.642 10.934 376.822 10.274 376.822 9.41C376.822 8.546 376.642 7.886 376.282 7.43C375.922 6.962 375.406 6.728 374.734 6.728C374.062 6.728 373.54 6.968 373.168 7.448C372.796 7.928 372.61 8.594 372.61 9.446C372.61 10.298 372.79 10.952 373.15 11.408C373.522 11.852 374.05 12.074 374.734 12.074ZM23.9544 25.894C23.5344 25.894 23.1984 26.014 22.9464 26.254C22.6944 26.482 22.5684 26.854 22.5684 27.37V27.874H24.4764V29.908H22.5684V37H19.8504V29.908H18.1404V27.874H19.8504V27.298C19.8504 26.146 20.1444 25.252 20.7324 24.616C21.3204 23.98 22.1724 23.662 23.2884 23.662C23.9124 23.662 24.4284 23.74 24.8364 23.896V26.02C24.4884 25.936 24.1944 25.894 23.9544 25.894ZM31.4021 27.658C31.7861 27.658 32.1101 27.718 32.3741 27.838L32.3561 30.322C31.9121 30.118 31.4681 30.016 31.0241 30.016C30.3041 30.016 29.7521 30.214 29.3681 30.61C28.9961 30.994 28.8101 31.534 28.8101 32.23V37H26.0921V30.484C26.0921 29.512 26.0441 28.642 25.9481 27.874H28.5041L28.6841 29.44C28.9121 28.864 29.2661 28.426 29.7461 28.126C30.2381 27.814 30.7901 27.658 31.4021 27.658ZM42.4432 27.874V37H39.7612V35.65C39.4852 36.118 39.0952 36.484 38.5912 36.748C38.0872 37.012 37.5172 37.144 36.8812 37.144C36.0892 37.144 35.3872 36.952 34.7752 36.568C34.1752 36.184 33.7012 35.638 33.3532 34.93C33.0172 34.21 32.8492 33.382 32.8492 32.446C32.8492 31.51 33.0172 30.676 33.3532 29.944C33.7012 29.212 34.1812 28.648 34.7932 28.252C35.4052 27.844 36.1012 27.64 36.8812 27.64C37.5172 27.64 38.0872 27.778 38.5912 28.054C39.0952 28.33 39.4852 28.702 39.7612 29.17V27.874H42.4432ZM37.6732 35.074C38.3452 35.074 38.8612 34.846 39.2212 34.39C39.5812 33.934 39.7612 33.274 39.7612 32.41C39.7612 31.546 39.5812 30.886 39.2212 30.43C38.8612 29.962 38.3452 29.728 37.6732 29.728C37.0012 29.728 36.4792 29.968 36.1072 30.448C35.7352 30.928 35.5492 31.594 35.5492 32.446C35.5492 33.298 35.7292 33.952 36.0892 34.408C36.4612 34.852 36.9892 35.074 37.6732 35.074ZM48.9571 37.144C47.4691 37.144 46.2991 36.724 45.4471 35.884C44.6071 35.044 44.1871 33.898 44.1871 32.446C44.1871 31.498 44.3911 30.664 44.7991 29.944C45.2071 29.212 45.7771 28.648 46.5091 28.252C47.2531 27.844 48.1111 27.64 49.0831 27.64C49.7431 27.64 50.3851 27.742 51.0091 27.946C51.6331 28.15 52.1311 28.426 52.5031 28.774L51.7831 30.664C51.4231 30.376 51.0271 30.154 50.5951 29.998C50.1631 29.83 49.7431 29.746 49.3351 29.746C48.5911 29.746 48.0091 29.974 47.5891 30.43C47.1811 30.874 46.9771 31.528 46.9771 32.392C46.9771 33.268 47.1811 33.934 47.5891 34.39C47.9971 34.834 48.5791 35.056 49.3351 35.056C49.7431 35.056 50.1631 34.978 50.5951 34.822C51.0271 34.654 51.4231 34.426 51.7831 34.138L52.5031 36.028C52.1071 36.376 51.5911 36.652 50.9551 36.856C50.3191 37.048 49.6531 37.144 48.9571 37.144ZM57.3032 29.908V33.454C57.3032 33.958 57.4352 34.33 57.6992 34.57C57.9632 34.798 58.3052 34.912 58.7252 34.912C58.9892 34.912 59.2892 34.87 59.6252 34.786V36.892C59.1932 37.06 58.6712 37.144 58.0592 37.144C56.9312 37.144 56.0672 36.826 55.4672 36.19C54.8792 35.554 54.5852 34.66 54.5852 33.508V29.908H52.8572V27.874H54.5852V25.732L57.3032 24.85V27.874H59.6252V29.908H57.3032ZM61.0199 27.874H63.7379V37H61.0199V27.874ZM63.8279 23.59V26.146H60.9299V23.59H63.8279ZM70.3153 37.144C69.3433 37.144 68.4913 36.952 67.7593 36.568C67.0393 36.184 66.4813 35.632 66.0853 34.912C65.7013 34.192 65.5093 33.352 65.5093 32.392C65.5093 31.432 65.7013 30.592 66.0853 29.872C66.4813 29.152 67.0393 28.6 67.7593 28.216C68.4913 27.832 69.3433 27.64 70.3153 27.64C71.2753 27.64 72.1153 27.832 72.8353 28.216C73.5553 28.6 74.1073 29.152 74.4913 29.872C74.8873 30.592 75.0853 31.432 75.0853 32.392C75.0853 33.352 74.8873 34.192 74.4913 34.912C74.1073 35.632 73.5553 36.184 72.8353 36.568C72.1153 36.952 71.2753 37.144 70.3153 37.144ZM70.3153 35.074C70.9873 35.074 71.4973 34.852 71.8453 34.408C72.2053 33.964 72.3853 33.292 72.3853 32.392C72.3853 31.504 72.2053 30.838 71.8453 30.394C71.4973 29.938 70.9873 29.71 70.3153 29.71C69.6313 29.71 69.1093 29.938 68.7493 30.394C68.3893 30.838 68.2093 31.504 68.2093 32.392C68.2093 34.18 68.9113 35.074 70.3153 35.074ZM82.4566 27.64C84.6166 27.64 85.6966 28.918 85.6966 31.474V37H82.9786V31.6C82.9786 30.964 82.8586 30.502 82.6186 30.214C82.3906 29.914 82.0246 29.764 81.5206 29.764C80.9206 29.764 80.4406 29.956 80.0806 30.34C79.7206 30.724 79.5406 31.24 79.5406 31.888V37H76.8226V30.484C76.8226 29.512 76.7746 28.642 76.6786 27.874H79.2346L79.4146 29.314C79.7386 28.774 80.1586 28.36 80.6746 28.072C81.2026 27.784 81.7966 27.64 82.4566 27.64ZM97.2802 37.144C96.3082 37.144 95.4562 36.952 94.7242 36.568C94.0042 36.184 93.4462 35.632 93.0502 34.912C92.6662 34.192 92.4742 33.352 92.4742 32.392C92.4742 31.432 92.6662 30.592 93.0502 29.872C93.4462 29.152 94.0042 28.6 94.7242 28.216C95.4562 27.832 96.3082 27.64 97.2802 27.64C98.2402 27.64 99.0802 27.832 99.8002 28.216C100.52 28.6 101.072 29.152 101.456 29.872C101.852 30.592 102.05 31.432 102.05 32.392C102.05 33.352 101.852 34.192 101.456 34.912C101.072 35.632 100.52 36.184 99.8002 36.568C99.0802 36.952 98.2402 37.144 97.2802 37.144ZM97.2802 35.074C97.9522 35.074 98.4622 34.852 98.8102 34.408C99.1702 33.964 99.3502 33.292 99.3502 32.392C99.3502 31.504 99.1702 30.838 98.8102 30.394C98.4622 29.938 97.9522 29.71 97.2802 29.71C96.5962 29.71 96.0742 29.938 95.7142 30.394C95.3542 30.838 95.1742 31.504 95.1742 32.392C95.1742 34.18 95.8762 35.074 97.2802 35.074ZM108.488 25.894C108.068 25.894 107.732 26.014 107.48 26.254C107.228 26.482 107.102 26.854 107.102 27.37V27.874H109.01V29.908H107.102V37H104.384V29.908H102.674V27.874H104.384V27.298C104.384 26.146 104.678 25.252 105.266 24.616C105.854 23.98 106.706 23.662 107.822 23.662C108.446 23.662 108.962 23.74 109.37 23.896V26.02C109.022 25.936 108.728 25.894 108.488 25.894ZM119.108 29.908V33.454C119.108 33.958 119.24 34.33 119.504 34.57C119.768 34.798 120.11 34.912 120.53 34.912C120.794 34.912 121.094 34.87 121.43 34.786V36.892C120.998 37.06 120.476 37.144 119.864 37.144C118.736 37.144 117.872 36.826 117.272 36.19C116.684 35.554 116.39 34.66 116.39 33.508V29.908H114.662V27.874H116.39V25.732L119.108 24.85V27.874H121.43V29.908H119.108ZM128.459 27.64C130.619 27.64 131.699 28.918 131.699 31.474V37H128.981V31.6C128.981 30.964 128.861 30.502 128.621 30.214C128.393 29.914 128.027 29.764 127.523 29.764C126.923 29.764 126.443 29.956 126.083 30.34C125.723 30.724 125.543 31.24 125.543 31.888V37H122.825V23.752H125.543V29.116C125.867 28.636 126.281 28.27 126.785 28.018C127.289 27.766 127.847 27.64 128.459 27.64ZM142.054 32.662H136.042C136.09 33.514 136.312 34.138 136.708 34.534C137.104 34.918 137.692 35.11 138.472 35.11C138.94 35.11 139.408 35.032 139.876 34.876C140.344 34.72 140.776 34.492 141.172 34.192L141.892 36.028C141.46 36.376 140.92 36.652 140.272 36.856C139.636 37.048 138.994 37.144 138.346 37.144C136.81 37.144 135.604 36.724 134.728 35.884C133.852 35.032 133.414 33.874 133.414 32.41C133.414 31.486 133.6 30.664 133.972 29.944C134.356 29.212 134.89 28.648 135.574 28.252C136.258 27.844 137.032 27.64 137.896 27.64C139.18 27.64 140.194 28.06 140.938 28.9C141.682 29.728 142.054 30.85 142.054 32.266V32.662ZM137.968 29.548C137.452 29.548 137.032 29.698 136.708 29.998C136.396 30.298 136.192 30.736 136.096 31.312H139.714C139.57 30.136 138.988 29.548 137.968 29.548ZM153.143 37.144C151.655 37.144 150.485 36.724 149.633 35.884C148.793 35.044 148.373 33.898 148.373 32.446C148.373 31.498 148.577 30.664 148.985 29.944C149.393 29.212 149.963 28.648 150.695 28.252C151.439 27.844 152.297 27.64 153.269 27.64C153.929 27.64 154.571 27.742 155.195 27.946C155.819 28.15 156.317 28.426 156.689 28.774L155.969 30.664C155.609 30.376 155.213 30.154 154.781 29.998C154.349 29.83 153.929 29.746 153.521 29.746C152.777 29.746 152.195 29.974 151.775 30.43C151.367 30.874 151.163 31.528 151.163 32.392C151.163 33.268 151.367 33.934 151.775 34.39C152.183 34.834 152.765 35.056 153.521 35.056C153.929 35.056 154.349 34.978 154.781 34.822C155.213 34.654 155.609 34.426 155.969 34.138L156.689 36.028C156.293 36.376 155.777 36.652 155.141 36.856C154.505 37.048 153.839 37.144 153.143 37.144ZM166.693 27.874V37H164.047V35.668C163.759 36.148 163.381 36.514 162.913 36.766C162.445 37.018 161.917 37.144 161.329 37.144C160.189 37.144 159.337 36.826 158.773 36.19C158.209 35.554 157.927 34.594 157.927 33.31V27.874H160.645V33.364C160.645 34.468 161.119 35.02 162.067 35.02C162.631 35.02 163.087 34.828 163.435 34.444C163.783 34.06 163.957 33.556 163.957 32.932V27.874H166.693ZM174.207 27.658C174.591 27.658 174.915 27.718 175.179 27.838L175.161 30.322C174.717 30.118 174.273 30.016 173.829 30.016C173.109 30.016 172.557 30.214 172.173 30.61C171.801 30.994 171.615 31.534 171.615 32.23V37H168.897V30.484C168.897 29.512 168.849 28.642 168.753 27.874H171.309L171.489 29.44C171.717 28.864 172.071 28.426 172.551 28.126C173.043 27.814 173.595 27.658 174.207 27.658ZM181.59 27.658C181.974 27.658 182.298 27.718 182.562 27.838L182.544 30.322C182.1 30.118 181.656 30.016 181.212 30.016C180.492 30.016 179.94 30.214 179.556 30.61C179.184 30.994 178.998 31.534 178.998 32.23V37H176.28V30.484C176.28 29.512 176.232 28.642 176.136 27.874H178.692L178.872 29.44C179.1 28.864 179.454 28.426 179.934 28.126C180.426 27.814 180.978 27.658 181.59 27.658ZM191.677 32.662H185.665C185.713 33.514 185.935 34.138 186.331 34.534C186.727 34.918 187.315 35.11 188.095 35.11C188.563 35.11 189.031 35.032 189.499 34.876C189.967 34.72 190.399 34.492 190.795 34.192L191.515 36.028C191.083 36.376 190.543 36.652 189.895 36.856C189.259 37.048 188.617 37.144 187.969 37.144C186.433 37.144 185.227 36.724 184.351 35.884C183.475 35.032 183.037 33.874 183.037 32.41C183.037 31.486 183.223 30.664 183.595 29.944C183.979 29.212 184.513 28.648 185.197 28.252C185.881 27.844 186.655 27.64 187.519 27.64C188.803 27.64 189.817 28.06 190.561 28.9C191.305 29.728 191.677 30.85 191.677 32.266V32.662ZM187.591 29.548C187.075 29.548 186.655 29.698 186.331 29.998C186.019 30.298 185.815 30.736 185.719 31.312H189.337C189.193 30.136 188.611 29.548 187.591 29.548ZM199.017 27.64C201.177 27.64 202.257 28.918 202.257 31.474V37H199.539V31.6C199.539 30.964 199.419 30.502 199.179 30.214C198.951 29.914 198.585 29.764 198.081 29.764C197.481 29.764 197.001 29.956 196.641 30.34C196.281 30.724 196.101 31.24 196.101 31.888V37H193.383V30.484C193.383 29.512 193.335 28.642 193.239 27.874H195.795L195.975 29.314C196.299 28.774 196.719 28.36 197.235 28.072C197.763 27.784 198.357 27.64 199.017 27.64ZM207.842 29.908V33.454C207.842 33.958 207.974 34.33 208.238 34.57C208.502 34.798 208.844 34.912 209.264 34.912C209.528 34.912 209.828 34.87 210.164 34.786V36.892C209.732 37.06 209.21 37.144 208.598 37.144C207.47 37.144 206.606 36.826 206.006 36.19C205.418 35.554 205.124 34.66 205.124 33.508V29.908H203.396V27.874H205.124V25.732L207.842 24.85V27.874H210.164V29.908H207.842ZM220.941 37.144C219.453 37.144 218.283 36.724 217.431 35.884C216.591 35.044 216.171 33.898 216.171 32.446C216.171 31.498 216.375 30.664 216.783 29.944C217.191 29.212 217.761 28.648 218.493 28.252C219.237 27.844 220.095 27.64 221.067 27.64C221.727 27.64 222.369 27.742 222.993 27.946C223.617 28.15 224.115 28.426 224.487 28.774L223.767 30.664C223.407 30.376 223.011 30.154 222.579 29.998C222.147 29.83 221.727 29.746 221.319 29.746C220.575 29.746 219.993 29.974 219.573 30.43C219.165 30.874 218.961 31.528 218.961 32.392C218.961 33.268 219.165 33.934 219.573 34.39C219.981 34.834 220.563 35.056 221.319 35.056C221.727 35.056 222.147 34.978 222.579 34.822C223.011 34.654 223.407 34.426 223.767 34.138L224.487 36.028C224.091 36.376 223.575 36.652 222.939 36.856C222.303 37.048 221.637 37.144 220.941 37.144ZM230.136 37.144C229.164 37.144 228.312 36.952 227.58 36.568C226.86 36.184 226.302 35.632 225.906 34.912C225.522 34.192 225.33 33.352 225.33 32.392C225.33 31.432 225.522 30.592 225.906 29.872C226.302 29.152 226.86 28.6 227.58 28.216C228.312 27.832 229.164 27.64 230.136 27.64C231.096 27.64 231.936 27.832 232.656 28.216C233.376 28.6 233.928 29.152 234.312 29.872C234.708 30.592 234.906 31.432 234.906 32.392C234.906 33.352 234.708 34.192 234.312 34.912C233.928 35.632 233.376 36.184 232.656 36.568C231.936 36.952 231.096 37.144 230.136 37.144ZM230.136 35.074C230.808 35.074 231.318 34.852 231.666 34.408C232.026 33.964 232.206 33.292 232.206 32.392C232.206 31.504 232.026 30.838 231.666 30.394C231.318 29.938 230.808 29.71 230.136 29.71C229.452 29.71 228.93 29.938 228.57 30.394C228.21 30.838 228.03 31.504 228.03 32.392C228.03 34.18 228.732 35.074 230.136 35.074ZM240.135 37.144C238.407 37.144 237.045 36.772 236.049 36.028L236.769 34.138C237.249 34.486 237.783 34.756 238.371 34.948C238.959 35.128 239.559 35.218 240.171 35.218C240.639 35.218 240.999 35.146 241.251 35.002C241.503 34.858 241.629 34.648 241.629 34.372C241.629 34.144 241.539 33.964 241.359 33.832C241.179 33.7 240.861 33.586 240.405 33.49L238.911 33.148C238.035 32.956 237.387 32.65 236.967 32.23C236.559 31.81 236.355 31.252 236.355 30.556C236.355 29.992 236.517 29.488 236.841 29.044C237.177 28.6 237.639 28.258 238.227 28.018C238.815 27.766 239.493 27.64 240.261 27.64C240.909 27.64 241.545 27.742 242.169 27.946C242.793 28.138 243.351 28.414 243.843 28.774L243.087 30.592C242.619 30.268 242.139 30.022 241.647 29.854C241.167 29.686 240.699 29.602 240.243 29.602C239.799 29.602 239.451 29.68 239.199 29.836C238.947 29.992 238.821 30.208 238.821 30.484C238.821 30.688 238.893 30.856 239.037 30.988C239.193 31.108 239.463 31.21 239.847 31.294L241.377 31.636C242.313 31.852 242.991 32.176 243.411 32.608C243.831 33.04 244.041 33.616 244.041 34.336C244.041 35.2 243.693 35.884 242.997 36.388C242.301 36.892 241.347 37.144 240.135 37.144ZM249.028 29.908V33.454C249.028 33.958 249.16 34.33 249.424 34.57C249.688 34.798 250.03 34.912 250.45 34.912C250.714 34.912 251.014 34.87 251.35 34.786V36.892C250.918 37.06 250.396 37.144 249.784 37.144C248.656 37.144 247.792 36.826 247.192 36.19C246.604 35.554 246.31 34.66 246.31 33.508V29.908H244.582V27.874H246.31V25.732L249.028 24.85V27.874H251.35V29.908H249.028ZM262.163 37.144C261.191 37.144 260.339 36.952 259.607 36.568C258.887 36.184 258.329 35.632 257.933 34.912C257.549 34.192 257.357 33.352 257.357 32.392C257.357 31.432 257.549 30.592 257.933 29.872C258.329 29.152 258.887 28.6 259.607 28.216C260.339 27.832 261.191 27.64 262.163 27.64C263.123 27.64 263.963 27.832 264.683 28.216C265.403 28.6 265.955 29.152 266.339 29.872C266.735 30.592 266.933 31.432 266.933 32.392C266.933 33.352 266.735 34.192 266.339 34.912C265.955 35.632 265.403 36.184 264.683 36.568C263.963 36.952 263.123 37.144 262.163 37.144ZM262.163 35.074C262.835 35.074 263.345 34.852 263.693 34.408C264.053 33.964 264.233 33.292 264.233 32.392C264.233 31.504 264.053 30.838 263.693 30.394C263.345 29.938 262.835 29.71 262.163 29.71C261.479 29.71 260.957 29.938 260.597 30.394C260.237 30.838 260.057 31.504 260.057 32.392C260.057 34.18 260.759 35.074 262.163 35.074ZM274.304 27.64C276.464 27.64 277.544 28.918 277.544 31.474V37H274.826V31.6C274.826 30.964 274.706 30.502 274.466 30.214C274.238 29.914 273.872 29.764 273.368 29.764C272.768 29.764 272.288 29.956 271.928 30.34C271.568 30.724 271.388 31.24 271.388 31.888V37H268.67V30.484C268.67 29.512 268.622 28.642 268.526 27.874H271.082L271.262 29.314C271.586 28.774 272.006 28.36 272.522 28.072C273.05 27.784 273.644 27.64 274.304 27.64ZM284.952 24.184H293.79V26.362H287.688V29.386H293.412V31.582H287.688V34.822H293.79V37H284.952V24.184ZM298.967 29.908V33.454C298.967 33.958 299.099 34.33 299.363 34.57C299.627 34.798 299.969 34.912 300.389 34.912C300.653 34.912 300.953 34.87 301.289 34.786V36.892C300.857 37.06 300.335 37.144 299.723 37.144C298.595 37.144 297.731 36.826 297.131 36.19C296.543 35.554 296.249 34.66 296.249 33.508V29.908H294.521V27.874H296.249V25.732L298.967 24.85V27.874H301.289V29.908H298.967ZM308.318 27.64C310.478 27.64 311.558 28.918 311.558 31.474V37H308.84V31.6C308.84 30.964 308.72 30.502 308.48 30.214C308.252 29.914 307.886 29.764 307.382 29.764C306.782 29.764 306.302 29.956 305.942 30.34C305.582 30.724 305.402 31.24 305.402 31.888V37H302.684V23.752H305.402V29.116C305.726 28.636 306.14 28.27 306.644 28.018C307.148 27.766 307.706 27.64 308.318 27.64ZM321.913 32.662H315.901C315.949 33.514 316.171 34.138 316.567 34.534C316.963 34.918 317.551 35.11 318.331 35.11C318.799 35.11 319.267 35.032 319.735 34.876C320.203 34.72 320.635 34.492 321.031 34.192L321.751 36.028C321.319 36.376 320.779 36.652 320.131 36.856C319.495 37.048 318.853 37.144 318.205 37.144C316.669 37.144 315.463 36.724 314.587 35.884C313.711 35.032 313.273 33.874 313.273 32.41C313.273 31.486 313.459 30.664 313.831 29.944C314.215 29.212 314.749 28.648 315.433 28.252C316.117 27.844 316.891 27.64 317.755 27.64C319.039 27.64 320.053 28.06 320.797 28.9C321.541 29.728 321.913 30.85 321.913 32.266V32.662ZM317.827 29.548C317.311 29.548 316.891 29.698 316.567 29.998C316.255 30.298 316.051 30.736 315.955 31.312H319.573C319.429 30.136 318.847 29.548 317.827 29.548ZM328.929 27.658C329.313 27.658 329.637 27.718 329.901 27.838L329.883 30.322C329.439 30.118 328.995 30.016 328.551 30.016C327.831 30.016 327.279 30.214 326.895 30.61C326.523 30.994 326.337 31.534 326.337 32.23V37H323.619V30.484C323.619 29.512 323.571 28.642 323.475 27.874H326.031L326.211 29.44C326.439 28.864 326.793 28.426 327.273 28.126C327.765 27.814 328.317 27.658 328.929 27.658ZM339.714 27.874V37H337.068V35.668C336.78 36.148 336.402 36.514 335.934 36.766C335.466 37.018 334.938 37.144 334.35 37.144C333.21 37.144 332.358 36.826 331.794 36.19C331.23 35.554 330.948 34.594 330.948 33.31V27.874H333.666V33.364C333.666 34.468 334.14 35.02 335.088 35.02C335.652 35.02 336.108 34.828 336.456 34.444C336.804 34.06 336.978 33.556 336.978 32.932V27.874H339.714ZM353.078 27.64C354.122 27.64 354.896 27.958 355.4 28.594C355.916 29.218 356.174 30.178 356.174 31.474V37H353.456V31.564C353.456 30.928 353.354 30.472 353.15 30.196C352.946 29.908 352.61 29.764 352.142 29.764C351.59 29.764 351.164 29.956 350.864 30.34C350.564 30.724 350.414 31.264 350.414 31.96V37H347.696V31.564C347.696 30.94 347.588 30.484 347.372 30.196C347.168 29.908 346.838 29.764 346.382 29.764C345.83 29.764 345.398 29.956 345.086 30.34C344.786 30.724 344.636 31.264 344.636 31.96V37H341.918V30.484C341.918 29.512 341.87 28.642 341.774 27.874H344.33L344.492 29.242C344.768 28.726 345.152 28.33 345.644 28.054C346.148 27.778 346.724 27.64 347.372 27.64C348.728 27.64 349.628 28.204 350.072 29.332C350.372 28.816 350.786 28.408 351.314 28.108C351.854 27.796 352.442 27.64 353.078 27.64ZM361.037 34.102V37H358.103V34.102H361.037Z" fill="#626262"/>
</svg>
