<svg width="85" height="14" viewBox="0 0 85 14" fill="none" xmlns="http://www.w3.org/2000/svg">
<path d="M0.204337 1.31958H3.94326C5.00376 1.31958 5.9147 1.50992 6.67608 1.89061C7.43746 2.2713 8.01756 2.82421 8.41638 3.54934C8.82426 4.27446 9.0282 5.14008 9.0282 6.14619C9.0282 7.16137 8.8288 8.03152 8.42998 8.75664C8.03116 9.48177 7.45106 10.0392 6.68968 10.429C5.92829 10.8097 5.01282 11 3.94326 11H0.204337V1.31958ZM3.8073 9.28689C5.87391 9.28689 6.90721 8.23999 6.90721 6.14619C6.90721 4.07052 5.87391 3.03269 3.8073 3.03269H2.32533V9.28689H3.8073ZM17.8315 7.72334H13.2904C13.3266 8.36689 13.4943 8.83822 13.7934 9.13733C14.0925 9.42738 14.5367 9.57241 15.1258 9.57241C15.4793 9.57241 15.8328 9.51349 16.1863 9.39566C16.5398 9.27783 16.8661 9.10561 17.1653 8.87901L17.7091 10.2658C17.3828 10.5287 16.9749 10.7371 16.4855 10.8912C16.0051 11.0363 15.5201 11.1088 15.0307 11.1088C13.8705 11.1088 12.9595 10.7915 12.2979 10.157C11.6362 9.51349 11.3053 8.63881 11.3053 7.53299C11.3053 6.83506 11.4458 6.21417 11.7268 5.67033C12.0169 5.11742 12.4202 4.69141 12.9369 4.3923C13.4535 4.08412 14.0382 3.93003 14.6908 3.93003C15.6606 3.93003 16.4265 4.24727 16.9885 4.88176C17.5505 5.50718 17.8315 6.35467 17.8315 7.42423V7.72334ZM14.7452 5.37121C14.3554 5.37121 14.0382 5.48452 13.7934 5.71112C13.5578 5.93772 13.4037 6.26856 13.3312 6.70363H16.064C15.9552 5.81535 15.5156 5.37121 14.7452 5.37121ZM22.8458 11.1088C21.5405 11.1088 20.5118 10.8278 19.7595 10.2658L20.3033 8.83822C20.6659 9.10108 21.0692 9.30502 21.5134 9.45004C21.9575 9.58601 22.4107 9.65399 22.873 9.65399C23.2265 9.65399 23.4984 9.5996 23.6887 9.49083C23.8791 9.38206 23.9742 9.22344 23.9742 9.01497C23.9742 8.84275 23.9063 8.70679 23.7703 8.60709C23.6343 8.50738 23.3941 8.42127 23.0497 8.34876L21.9212 8.09043C21.2596 7.94541 20.7701 7.71428 20.4529 7.39703C20.1447 7.07979 19.9906 6.65831 19.9906 6.1326C19.9906 5.70659 20.113 5.32589 20.3577 4.99052C20.6115 4.65515 20.9604 4.39683 21.4046 4.21555C21.8487 4.0252 22.3608 3.93003 22.9409 3.93003C23.4304 3.93003 23.9108 4.00707 24.3821 4.16116C24.8535 4.30619 25.2749 4.51466 25.6466 4.78658L25.0755 6.15979C24.722 5.91506 24.3595 5.72925 23.9878 5.60235C23.6253 5.47545 23.2718 5.412 22.9273 5.412C22.592 5.412 22.3291 5.47092 22.1388 5.58875C21.9484 5.70659 21.8533 5.86974 21.8533 6.07821C21.8533 6.2323 21.9076 6.3592 22.0164 6.4589C22.1342 6.54954 22.3382 6.62659 22.6282 6.69004L23.7839 6.94836C24.4909 7.11152 25.003 7.35625 25.3203 7.68255C25.6375 8.00886 25.7961 8.44393 25.7961 8.98778C25.7961 9.64039 25.5333 10.157 25.0076 10.5377C24.4818 10.9184 23.7612 11.1088 22.8458 11.1088ZM31.3968 11.1088C30.2728 11.1088 29.3891 10.7915 28.7455 10.157C28.111 9.52256 27.7938 8.65694 27.7938 7.56019C27.7938 6.84413 27.9479 6.21417 28.2561 5.67033C28.5642 5.11742 28.9948 4.69141 29.5477 4.3923C30.1097 4.08412 30.7577 3.93003 31.4919 3.93003C31.9905 3.93003 32.4754 4.00707 32.9467 4.16116C33.418 4.31525 33.7942 4.52372 34.0752 4.78658L33.5313 6.21417C33.2594 5.99664 32.9603 5.82895 32.634 5.71112C32.3077 5.58422 31.9905 5.52077 31.6823 5.52077C31.1203 5.52077 30.6807 5.69299 30.3635 6.03742C30.0553 6.37279 29.9012 6.86679 29.9012 7.5194C29.9012 8.18108 30.0553 8.68413 30.3635 9.02857C30.6716 9.36394 31.1112 9.53162 31.6823 9.53162C31.9905 9.53162 32.3077 9.4727 32.634 9.35487C32.9603 9.22798 33.2594 9.05576 33.5313 8.83822L34.0752 10.2658C33.7761 10.5287 33.3863 10.7371 32.9059 10.8912C32.4255 11.0363 31.9225 11.1088 31.3968 11.1088ZM40.1498 3.94362C40.4398 3.94362 40.6846 3.98894 40.884 4.07959L40.8704 5.95585C40.535 5.80176 40.1996 5.72471 39.8643 5.72471C39.3204 5.72471 38.9035 5.87427 38.6134 6.17338C38.3324 6.46344 38.1919 6.87132 38.1919 7.39703V11H36.1389V6.07821C36.1389 5.34402 36.1027 4.68688 36.0302 4.10678H37.9608L38.0968 5.28964C38.269 4.85456 38.5364 4.52372 38.8989 4.29712C39.2706 4.06146 39.6875 3.94362 40.1498 3.94362ZM42.8031 4.10678H44.8562V11H42.8031V4.10678ZM44.9241 0.870906V2.80155H42.7352V0.870906H44.9241ZM51.8366 3.93003C52.4257 3.93003 52.9515 4.08412 53.4137 4.3923C53.876 4.69141 54.234 5.11742 54.4878 5.67033C54.7507 6.22324 54.8821 6.85319 54.8821 7.56019C54.8821 8.26718 54.7552 8.8926 54.5014 9.43645C54.2476 9.97123 53.8896 10.3836 53.4273 10.6737C52.9651 10.9637 52.4348 11.1088 51.8366 11.1088C51.3562 11.1088 50.9256 11.0091 50.545 10.8097C50.1643 10.6102 49.8742 10.3338 49.6748 9.98029V13.9368H47.6218V6.07821C47.6218 5.34402 47.5855 4.68688 47.513 4.10678H49.4437L49.5796 5.24885C49.7609 4.84097 50.051 4.51919 50.4498 4.28353C50.8577 4.04786 51.3199 3.93003 51.8366 3.93003ZM51.2519 9.54522C51.7595 9.54522 52.1493 9.37753 52.4212 9.04216C52.6931 8.69773 52.8291 8.20374 52.8291 7.56019C52.8291 6.91664 52.6886 6.41358 52.4076 6.05102C52.1357 5.68846 51.7505 5.50718 51.2519 5.50718C50.7444 5.50718 50.3501 5.68393 50.0691 6.03742C49.7972 6.38186 49.6612 6.88038 49.6612 7.53299C49.6612 8.18561 49.7972 8.68413 50.0691 9.02857C50.3501 9.373 50.7444 9.54522 51.2519 9.54522ZM59.8036 5.64314V8.32157C59.8036 8.70226 59.9033 8.98325 60.1027 9.16453C60.3021 9.33674 60.5604 9.42285 60.8777 9.42285C61.0771 9.42285 61.3037 9.39113 61.5575 9.32768V10.9184C61.2312 11.0453 60.8369 11.1088 60.3746 11.1088C59.5226 11.1088 58.87 10.8686 58.4168 10.3882C57.9726 9.90778 57.7506 9.23251 57.7506 8.36236V5.64314H56.4453V4.10678H57.7506V2.48884L59.8036 1.82263V4.10678H61.5575V5.64314H59.8036ZM63.6986 4.10678H65.7517V11H63.6986V4.10678ZM65.8196 0.870906V2.80155H63.6307V0.870906H65.8196ZM71.8075 11.1088C71.0734 11.1088 70.4298 10.9637 69.8769 10.6737C69.3331 10.3836 68.9116 9.9667 68.6125 9.42285C68.3224 8.87901 68.1774 8.24452 68.1774 7.5194C68.1774 6.79427 68.3224 6.15979 68.6125 5.61594C68.9116 5.0721 69.3331 4.65515 69.8769 4.3651C70.4298 4.07505 71.0734 3.93003 71.8075 3.93003C72.5327 3.93003 73.1672 4.07505 73.711 4.3651C74.2548 4.65515 74.6718 5.0721 74.9618 5.61594C75.261 6.15979 75.4105 6.79427 75.4105 7.5194C75.4105 8.24452 75.261 8.87901 74.9618 9.42285C74.6718 9.9667 74.2548 10.3836 73.711 10.6737C73.1672 10.9637 72.5327 11.1088 71.8075 11.1088ZM71.8075 9.54522C72.3151 9.54522 72.7004 9.37753 72.9632 9.04216C73.2351 8.70679 73.3711 8.1992 73.3711 7.5194C73.3711 6.84866 73.2351 6.3456 72.9632 6.01023C72.7004 5.6658 72.3151 5.49358 71.8075 5.49358C71.2909 5.49358 70.8966 5.6658 70.6247 6.01023C70.3528 6.3456 70.2168 6.84866 70.2168 7.5194C70.2168 8.86994 70.747 9.54522 71.8075 9.54522ZM82.066 3.93003C83.6976 3.93003 84.5133 4.89535 84.5133 6.826V11H82.4603V6.92117C82.4603 6.44077 82.3697 6.09181 82.1884 5.87427C82.0162 5.64767 81.7397 5.53437 81.359 5.53437C80.9058 5.53437 80.5433 5.67939 80.2713 5.96944C79.9994 6.25949 79.8635 6.64925 79.8635 7.13871V11H77.8104V6.07821C77.8104 5.34402 77.7742 4.68688 77.7017 4.10678H79.6323L79.7683 5.19447C80.013 4.78658 80.3303 4.47387 80.72 4.25634C81.1188 4.0388 81.5675 3.93003 82.066 3.93003Z" fill="#9B9EAA"/>
</svg>
