<svg width="157" height="57" viewBox="0 0 157 57" fill="none" xmlns="http://www.w3.org/2000/svg">
<rect x="0.5" y="0.5" width="155.656" height="55.3844" rx="8.99756" fill="#858585" stroke="#CBCBCB"/>
<path d="M51.9653 23.3196H58.641V24.9647H54.0319V27.2489H58.3555V28.9076H54.0319V31.3549H58.641V33H51.9653V23.3196ZM68.0989 33H65.6788L64.0065 30.8926L62.3342 33H59.9276L62.8372 29.4514L60.1044 26.1068H62.5245L64.0065 28.0238L65.4884 26.1068H67.9222L65.1893 29.4514L68.0989 33ZM73.9267 25.93C74.5159 25.93 75.0416 26.0841 75.5039 26.3923C75.9662 26.6914 76.3242 27.1174 76.578 27.6703C76.8408 28.2232 76.9723 28.8532 76.9723 29.5602C76.9723 30.2672 76.8454 30.8926 76.5916 31.4364C76.3378 31.9712 75.9798 32.3836 75.5175 32.6737C75.0552 32.9637 74.525 33.1088 73.9267 33.1088C73.4463 33.1088 73.0158 33.0091 72.6351 32.8097C72.2544 32.6102 71.9644 32.3338 71.765 31.9803V35.9368H69.7119V28.0782C69.7119 27.344 69.6757 26.6869 69.6032 26.1068H71.5338L71.6698 27.2489C71.8511 26.841 72.1411 26.5192 72.5399 26.2835C72.9478 26.0479 73.4101 25.93 73.9267 25.93ZM73.3421 31.5452C73.8497 31.5452 74.2395 31.3775 74.5114 31.0422C74.7833 30.6977 74.9193 30.2037 74.9193 29.5602C74.9193 28.9166 74.7788 28.4136 74.4978 28.051C74.2259 27.6885 73.8406 27.5072 73.3421 27.5072C72.8345 27.5072 72.4402 27.6839 72.1592 28.0374C71.8873 28.3819 71.7514 28.8804 71.7514 29.533C71.7514 30.1856 71.8873 30.6841 72.1592 31.0286C72.4402 31.373 72.8345 31.5452 73.3421 31.5452ZM79.3769 22.9933H81.4299V33H79.3769V22.9933ZM87.4858 33.1088C86.7516 33.1088 86.108 32.9637 85.5551 32.6737C85.0113 32.3836 84.5898 31.9667 84.2907 31.4229C84.0006 30.879 83.8556 30.2445 83.8556 29.5194C83.8556 28.7943 84.0006 28.1598 84.2907 27.6159C84.5898 27.0721 85.0113 26.6552 85.5551 26.3651C86.108 26.0751 86.7516 25.93 87.4858 25.93C88.2109 25.93 88.8454 26.0751 89.3892 26.3651C89.9331 26.6552 90.35 27.0721 90.6401 27.6159C90.9392 28.1598 91.0887 28.7943 91.0887 29.5194C91.0887 30.2445 90.9392 30.879 90.6401 31.4229C90.35 31.9667 89.9331 32.3836 89.3892 32.6737C88.8454 32.9637 88.2109 33.1088 87.4858 33.1088ZM87.4858 31.5452C87.9934 31.5452 88.3786 31.3775 88.6414 31.0422C88.9134 30.7068 89.0493 30.1992 89.0493 29.5194C89.0493 28.8487 88.9134 28.3456 88.6414 28.0102C88.3786 27.6658 87.9934 27.4936 87.4858 27.4936C86.9691 27.4936 86.5748 27.6658 86.3029 28.0102C86.031 28.3456 85.895 28.8487 85.895 29.5194C85.895 30.8699 86.4253 31.5452 87.4858 31.5452ZM97.4995 25.9436C97.7896 25.9436 98.0343 25.9889 98.2337 26.0796L98.2201 27.9558C97.8847 27.8018 97.5494 27.7247 97.214 27.7247C96.6701 27.7247 96.2532 27.8743 95.9631 28.1734C95.6822 28.4634 95.5417 28.8713 95.5417 29.397V33H93.4887V28.0782C93.4887 27.344 93.4524 26.6869 93.3799 26.1068H95.3105L95.4465 27.2896C95.6187 26.8546 95.8861 26.5237 96.2487 26.2971C96.6203 26.0615 97.0372 25.9436 97.4995 25.9436ZM106.206 29.7233H101.665C101.701 30.3669 101.869 30.8382 102.168 31.1373C102.467 31.4274 102.912 31.5724 103.501 31.5724C103.854 31.5724 104.208 31.5135 104.561 31.3957C104.915 31.2778 105.241 31.1056 105.54 30.879L106.084 32.2658C105.758 32.5287 105.35 32.7371 104.86 32.8912C104.38 33.0363 103.895 33.1088 103.406 33.1088C102.245 33.1088 101.334 32.7915 100.673 32.157C100.011 31.5135 99.6802 30.6388 99.6802 29.533C99.6802 28.8351 99.8207 28.2142 100.102 27.6703C100.392 27.1174 100.795 26.6914 101.312 26.3923C101.828 26.0841 102.413 25.93 103.066 25.93C104.035 25.93 104.801 26.2473 105.363 26.8818C105.925 27.5072 106.206 28.3547 106.206 29.4242V29.7233ZM103.12 27.3712C102.73 27.3712 102.413 27.4845 102.168 27.7111C101.933 27.9377 101.779 28.2686 101.706 28.7036H104.439C104.33 27.8154 103.89 27.3712 103.12 27.3712Z" fill="white"/>
</svg>
