<svg width="99" height="12" viewBox="0 0 99 12" fill="none" xmlns="http://www.w3.org/2000/svg">
<path d="M0.204337 1.31958H6.88002V2.96471H2.27094V5.24885H6.5945V6.90757H2.27094V9.35487H6.88002V11H0.204337V1.31958ZM16.3379 11H13.9178L12.2455 8.8926L10.5732 11H8.16666L11.0762 7.45142L8.34341 4.10678H10.7635L12.2455 6.02383L13.7275 4.10678H16.1612L13.4283 7.45142L16.3379 11ZM20.5342 5.64314V8.32157C20.5342 8.70226 20.6339 8.98325 20.8333 9.16453C21.0327 9.33674 21.2911 9.42285 21.6083 9.42285C21.8077 9.42285 22.0343 9.39113 22.2881 9.32768V10.9184C21.9618 11.0453 21.5675 11.1088 21.1053 11.1088C20.2532 11.1088 19.6006 10.8686 19.1474 10.3882C18.7033 9.90778 18.4812 9.23251 18.4812 8.36236V5.64314H17.176V4.10678H18.4812V2.48884L20.5342 1.82263V4.10678H22.2881V5.64314H20.5342ZM30.6155 7.72334H26.0744C26.1107 8.36689 26.2784 8.83822 26.5775 9.13733C26.8766 9.42738 27.3207 9.57241 27.9099 9.57241C28.2634 9.57241 28.6169 9.51349 28.9704 9.39566C29.3239 9.27783 29.6502 9.10561 29.9493 8.87901L30.4931 10.2658C30.1668 10.5287 29.759 10.7371 29.2695 10.8912C28.7891 11.0363 28.3042 11.1088 27.8147 11.1088C26.6545 11.1088 25.7436 10.7915 25.0819 10.157C24.4202 9.51349 24.0894 8.63881 24.0894 7.53299C24.0894 6.83506 24.2299 6.21417 24.5109 5.67033C24.8009 5.11742 25.2043 4.69141 25.7209 4.3923C26.2376 4.08412 26.8222 3.93003 27.4748 3.93003C28.4447 3.93003 29.2106 4.24727 29.7726 4.88176C30.3345 5.50718 30.6155 6.35467 30.6155 7.42423V7.72334ZM27.5292 5.37121C27.1394 5.37121 26.8222 5.48452 26.5775 5.71112C26.3418 5.93772 26.1877 6.26856 26.1152 6.70363H28.848C28.7393 5.81535 28.2996 5.37121 27.5292 5.37121ZM37.003 3.94362C37.2931 3.94362 37.5378 3.98894 37.7372 4.07959L37.7236 5.95585C37.3882 5.80176 37.0529 5.72471 36.7175 5.72471C36.1737 5.72471 35.7567 5.87427 35.4667 6.17338C35.1857 6.46344 35.0452 6.87132 35.0452 7.39703V11H32.9922V6.07821C32.9922 5.34402 32.9559 4.68688 32.8834 4.10678H34.8141L34.95 5.28964C35.1222 4.85456 35.3896 4.52372 35.7522 4.29712C36.1238 4.06146 36.5408 3.94362 37.003 3.94362ZM43.912 3.93003C45.5435 3.93003 46.3593 4.89535 46.3593 6.826V11H44.3063V6.92117C44.3063 6.44077 44.2156 6.09181 44.0343 5.87427C43.8621 5.64767 43.5857 5.53437 43.205 5.53437C42.7518 5.53437 42.3892 5.67939 42.1173 5.96944C41.8454 6.25949 41.7094 6.64925 41.7094 7.13871V11H39.6564V6.07821C39.6564 5.34402 39.6201 4.68688 39.5476 4.10678H41.4783L41.6142 5.19447C41.859 4.78658 42.1762 4.47387 42.566 4.25634C42.9648 4.0388 43.4134 3.93003 43.912 3.93003ZM55.9891 4.10678V11H53.9633V9.98029C53.7548 10.3338 53.4603 10.6102 53.0796 10.8097C52.6989 11.0091 52.2683 11.1088 51.7879 11.1088C51.1897 11.1088 50.6595 10.9637 50.1972 10.6737C49.744 10.3836 49.386 9.97123 49.1231 9.43645C48.8693 8.8926 48.7424 8.26718 48.7424 7.56019C48.7424 6.85319 48.8693 6.22324 49.1231 5.67033C49.386 5.11742 49.7485 4.69141 50.2108 4.3923C50.6731 4.08412 51.1988 3.93003 51.7879 3.93003C52.2683 3.93003 52.6989 4.03427 53.0796 4.24274C53.4603 4.45121 53.7548 4.7322 53.9633 5.0857V4.10678H55.9891ZM52.3862 9.54522C52.8938 9.54522 53.2835 9.373 53.5554 9.02857C53.8273 8.68413 53.9633 8.18561 53.9633 7.53299C53.9633 6.88038 53.8273 6.38186 53.5554 6.03742C53.2835 5.68393 52.8938 5.50718 52.3862 5.50718C51.8786 5.50718 51.4843 5.68846 51.2033 6.05102C50.9223 6.41358 50.7818 6.91664 50.7818 7.56019C50.7818 8.20374 50.9178 8.69773 51.1897 9.04216C51.4707 9.37753 51.8695 9.54522 52.3862 9.54522ZM58.7339 0.993271H60.787V11H58.7339V0.993271ZM68.6001 1.31958H70.7211V9.2733H75.0447V11H68.6001V1.31958ZM77.2926 4.10678H79.3456V11H77.2926V4.10678ZM79.4136 0.870906V2.80155H77.2246V0.870906H79.4136ZM86.3668 3.93003C87.9984 3.93003 88.8141 4.89535 88.8141 6.826V11H86.7611V6.92117C86.7611 6.44077 86.6705 6.09181 86.4892 5.87427C86.317 5.64767 86.0405 5.53437 85.6599 5.53437C85.2066 5.53437 84.8441 5.67939 84.5722 5.96944C84.3002 6.25949 84.1643 6.64925 84.1643 7.13871V11H82.1113V6.07821C82.1113 5.34402 82.075 4.68688 82.0025 4.10678H83.9331L84.0691 5.19447C84.3138 4.78658 84.6311 4.47387 85.0208 4.25634C85.4197 4.0388 85.8683 3.93003 86.3668 3.93003ZM96.2958 11L93.5902 7.91369V11H91.5372V0.993271H93.5902V7.07073L96.1735 4.12037H98.6343L95.7112 7.42423L98.8111 11H96.2958Z" fill="#9B9EAA"/>
</svg>
