<svg width="347" height="49" viewBox="0 0 347 49" fill="none" xmlns="http://www.w3.org/2000/svg">
<path d="M3.19508 3.04628H0.163153V1.31958H8.3752V3.04628H5.34327V11H3.19508V3.04628ZM12.6427 11.1088C11.9085 11.1088 11.2649 10.9637 10.712 10.6737C10.1682 10.3836 9.7467 9.9667 9.44759 9.42285C9.15754 8.87901 9.01251 8.24452 9.01251 7.5194C9.01251 6.79427 9.15754 6.15979 9.44759 5.61594C9.7467 5.0721 10.1682 4.65515 10.712 4.3651C11.2649 4.07505 11.9085 3.93003 12.6427 3.93003C13.3678 3.93003 14.0023 4.07505 14.5461 4.3651C15.09 4.65515 15.5069 5.0721 15.797 5.61594C16.0961 6.15979 16.2456 6.79427 16.2456 7.5194C16.2456 8.24452 16.0961 8.87901 15.797 9.42285C15.5069 9.9667 15.09 10.3836 14.5461 10.6737C14.0023 10.9637 13.3678 11.1088 12.6427 11.1088ZM12.6427 9.54522C13.1503 9.54522 13.5355 9.37753 13.7983 9.04216C14.0703 8.70679 14.2062 8.1992 14.2062 7.5194C14.2062 6.84866 14.0703 6.3456 13.7983 6.01023C13.5355 5.6658 13.1503 5.49358 12.6427 5.49358C12.126 5.49358 11.7317 5.6658 11.4598 6.01023C11.1879 6.3456 11.0519 6.84866 11.0519 7.5194C11.0519 8.86994 11.5822 9.54522 12.6427 9.54522ZM31.9867 3.93003C32.7753 3.93003 33.3599 4.17023 33.7406 4.65062C34.1304 5.12195 34.3253 5.84708 34.3253 6.826V11H32.2723V6.89398C32.2723 6.41358 32.1952 6.06915 32.0411 5.86067C31.887 5.64314 31.6332 5.53437 31.2797 5.53437C30.8628 5.53437 30.541 5.67939 30.3144 5.96944C30.0878 6.25949 29.9745 6.66738 29.9745 7.19309V11H27.9215V6.89398C27.9215 6.42265 27.8399 6.07821 27.6768 5.86067C27.5227 5.64314 27.2734 5.53437 26.929 5.53437C26.512 5.53437 26.1857 5.67939 25.9501 5.96944C25.7235 6.25949 25.6102 6.66738 25.6102 7.19309V11H23.5572V6.07821C23.5572 5.34402 23.5209 4.68688 23.4484 4.10678H25.379L25.5014 5.14008C25.7099 4.75033 25.9999 4.45121 26.3715 4.24274C26.7522 4.03427 27.1873 3.93003 27.6768 3.93003C28.701 3.93003 29.3808 4.35604 29.7162 5.20806C29.9428 4.81831 30.2555 4.51013 30.6543 4.28353C31.0622 4.04786 31.5063 3.93003 31.9867 3.93003ZM37.0327 4.10678H39.0857V11H37.0327V4.10678ZM39.1537 0.870906V2.80155H36.9647V0.870906H39.1537ZM46.1069 3.93003C47.7384 3.93003 48.5542 4.89535 48.5542 6.826V11H46.5012V6.92117C46.5012 6.44077 46.4106 6.09181 46.2293 5.87427C46.0571 5.64767 45.7806 5.53437 45.3999 5.53437C44.9467 5.53437 44.5842 5.67939 44.3122 5.96944C44.0403 6.25949 43.9043 6.64925 43.9043 7.13871V11H41.8513V6.07821C41.8513 5.34402 41.8151 4.68688 41.7426 4.10678H43.6732L43.8092 5.19447C44.0539 4.78658 44.3711 4.47387 44.7609 4.25634C45.1597 4.0388 45.6084 3.93003 46.1069 3.93003ZM53.8605 5.64314V8.32157C53.8605 8.70226 53.9602 8.98325 54.1596 9.16453C54.359 9.33674 54.6174 9.42285 54.9346 9.42285C55.134 9.42285 55.3606 9.39113 55.6144 9.32768V10.9184C55.2881 11.0453 54.8938 11.1088 54.4316 11.1088C53.5795 11.1088 52.9269 10.8686 52.4737 10.3882C52.0296 9.90778 51.8075 9.23251 51.8075 8.36236V5.64314H50.5023V4.10678H51.8075V2.48884L53.8605 1.82263V4.10678H55.6144V5.64314H53.8605ZM65.9574 11.1088C65.2232 11.1088 64.5797 10.9637 64.0268 10.6737C63.4829 10.3836 63.0615 9.9667 62.7623 9.42285C62.4723 8.87901 62.3273 8.24452 62.3273 7.5194C62.3273 6.79427 62.4723 6.15979 62.7623 5.61594C63.0615 5.0721 63.4829 4.65515 64.0268 4.3651C64.5797 4.07505 65.2232 3.93003 65.9574 3.93003C66.6826 3.93003 67.317 4.07505 67.8609 4.3651C68.4047 4.65515 68.8217 5.0721 69.1117 5.61594C69.4108 6.15979 69.5604 6.79427 69.5604 7.5194C69.5604 8.24452 69.4108 8.87901 69.1117 9.42285C68.8217 9.9667 68.4047 10.3836 67.8609 10.6737C67.317 10.9637 66.6826 11.1088 65.9574 11.1088ZM65.9574 9.54522C66.465 9.54522 66.8502 9.37753 67.1131 9.04216C67.385 8.70679 67.521 8.1992 67.521 7.5194C67.521 6.84866 67.385 6.3456 67.1131 6.01023C66.8502 5.6658 66.465 5.49358 65.9574 5.49358C65.4408 5.49358 65.0465 5.6658 64.7746 6.01023C64.5026 6.3456 64.3667 6.84866 64.3667 7.5194C64.3667 8.86994 64.8969 9.54522 65.9574 9.54522ZM76.2159 3.93003C77.8474 3.93003 78.6632 4.89535 78.6632 6.826V11H76.6102V6.92117C76.6102 6.44077 76.5195 6.09181 76.3383 5.87427C76.166 5.64767 75.8896 5.53437 75.5089 5.53437C75.0557 5.53437 74.6931 5.67939 74.4212 5.96944C74.1493 6.25949 74.0133 6.64925 74.0133 7.13871V11H71.9603V6.07821C71.9603 5.34402 71.9241 4.68688 71.8516 4.10678H73.7822L73.9182 5.19447C74.1629 4.78658 74.4801 4.47387 74.8699 4.25634C75.2687 4.0388 75.7174 3.93003 76.2159 3.93003ZM92.1985 9.46364V11H86.1211V9.55881L89.6017 5.64314H86.1755V4.10678H92.0626V5.49358L88.5276 9.46364H92.1985ZM99.3538 11L96.6482 7.91369V11H94.5952V0.993271H96.6482V7.07073L99.2314 4.12037H101.692L98.7692 7.42423L101.869 11H99.3538ZM106.998 11.1224C106.264 11.1224 105.557 11.0272 104.877 10.8368C104.206 10.6374 103.649 10.361 103.205 10.0075L103.885 8.48472C104.818 9.13733 105.861 9.46364 107.012 9.46364C107.628 9.46364 108.099 9.36847 108.426 9.17812C108.761 8.97871 108.929 8.70226 108.929 8.34876C108.929 8.04058 108.775 7.80038 108.466 7.62817C108.167 7.44689 107.637 7.27467 106.876 7.11152C106.024 6.9393 105.344 6.73083 104.836 6.4861C104.338 6.2323 103.971 5.92866 103.735 5.57516C103.508 5.21259 103.395 4.76392 103.395 4.22914C103.395 3.64904 103.554 3.12786 103.871 2.66559C104.197 2.20332 104.651 1.84529 105.231 1.5915C105.811 1.32864 106.481 1.19721 107.243 1.19721C107.932 1.19721 108.593 1.29692 109.228 1.49633C109.862 1.69574 110.37 1.96766 110.751 2.31209L110.071 3.83486C109.219 3.18224 108.281 2.85594 107.256 2.85594C106.713 2.85594 106.278 2.96471 105.951 3.18224C105.625 3.39978 105.462 3.69436 105.462 4.06599C105.462 4.28353 105.521 4.46481 105.638 4.60983C105.765 4.75486 105.974 4.88629 106.264 5.00412C106.554 5.11289 106.966 5.22166 107.501 5.33043C108.743 5.60235 109.636 5.95585 110.18 6.39092C110.733 6.826 111.009 7.41969 111.009 8.17201C111.009 9.07842 110.655 9.79901 109.948 10.3338C109.241 10.8595 108.258 11.1224 106.998 11.1224ZM120.165 4.10678L116.984 11.3671C116.594 12.2463 116.1 12.8899 115.502 13.2977C114.913 13.7147 114.188 13.9821 113.327 14.0999L112.851 12.5228C113.485 12.3868 113.961 12.2146 114.278 12.0061C114.605 11.7976 114.858 11.494 115.04 11.0952L115.244 10.6465L112.402 4.10678H114.55L116.318 8.57989L118.14 4.10678H120.165ZM126.186 3.93003C127.817 3.93003 128.633 4.89535 128.633 6.826V11H126.58V6.92117C126.58 6.44077 126.489 6.09181 126.308 5.87427C126.136 5.64767 125.86 5.53437 125.479 5.53437C125.026 5.53437 124.663 5.67939 124.391 5.96944C124.119 6.25949 123.983 6.64925 123.983 7.13871V11H121.93V6.07821C121.93 5.34402 121.894 4.68688 121.821 4.10678H123.752L123.888 5.19447C124.133 4.78658 124.45 4.47387 124.84 4.25634C125.239 4.0388 125.687 3.93003 126.186 3.93003ZM134.619 11.1088C133.495 11.1088 132.612 10.7915 131.968 10.157C131.333 9.52256 131.016 8.65694 131.016 7.56019C131.016 6.84413 131.17 6.21417 131.479 5.67033C131.787 5.11742 132.217 4.69141 132.77 4.3923C133.332 4.08412 133.98 3.93003 134.714 3.93003C135.213 3.93003 135.698 4.00707 136.169 4.16116C136.641 4.31525 137.017 4.52372 137.298 4.78658L136.754 6.21417C136.482 5.99664 136.183 5.82895 135.856 5.71112C135.53 5.58422 135.213 5.52077 134.905 5.52077C134.343 5.52077 133.903 5.69299 133.586 6.03742C133.278 6.37279 133.124 6.86679 133.124 7.5194C133.124 8.18108 133.278 8.68413 133.586 9.02857C133.894 9.36394 134.334 9.53162 134.905 9.53162C135.213 9.53162 135.53 9.4727 135.856 9.35487C136.183 9.22798 136.482 9.05576 136.754 8.83822L137.298 10.2658C136.999 10.5287 136.609 10.7371 136.128 10.8912C135.648 11.0363 135.145 11.1088 134.619 11.1088ZM141.547 8.81103V10.2114C141.547 10.7462 141.452 11.2266 141.262 11.6526C141.08 12.0877 140.768 12.5228 140.324 12.9578L139.521 12.3324C139.965 11.8702 140.242 11.426 140.351 11H139.331V8.81103H141.547ZM155.85 4.10678L152.668 11.3671C152.279 12.2463 151.785 12.8899 151.186 13.2977C150.597 13.7147 149.872 13.9821 149.011 14.0999L148.535 12.5228C149.17 12.3868 149.645 12.2146 149.963 12.0061C150.289 11.7976 150.543 11.494 150.724 11.0952L150.928 10.6465L148.086 4.10678H150.235L152.002 8.57989L153.824 4.10678H155.85ZM160.772 11.1088C160.038 11.1088 159.394 10.9637 158.842 10.6737C158.298 10.3836 157.876 9.9667 157.577 9.42285C157.287 8.87901 157.142 8.24452 157.142 7.5194C157.142 6.79427 157.287 6.15979 157.577 5.61594C157.876 5.0721 158.298 4.65515 158.842 4.3651C159.394 4.07505 160.038 3.93003 160.772 3.93003C161.497 3.93003 162.132 4.07505 162.676 4.3651C163.219 4.65515 163.636 5.0721 163.926 5.61594C164.226 6.15979 164.375 6.79427 164.375 7.5194C164.375 8.24452 164.226 8.87901 163.926 9.42285C163.636 9.9667 163.219 10.3836 162.676 10.6737C162.132 10.9637 161.497 11.1088 160.772 11.1088ZM160.772 9.54522C161.28 9.54522 161.665 9.37753 161.928 9.04216C162.2 8.70679 162.336 8.1992 162.336 7.5194C162.336 6.84866 162.2 6.3456 161.928 6.01023C161.665 5.6658 161.28 5.49358 160.772 5.49358C160.256 5.49358 159.861 5.6658 159.589 6.01023C159.317 6.3456 159.181 6.84866 159.181 7.5194C159.181 8.86994 159.712 9.54522 160.772 9.54522ZM173.356 4.10678V11H171.357V9.99389C171.139 10.3565 170.854 10.6329 170.5 10.8233C170.147 11.0136 169.748 11.1088 169.304 11.1088C168.443 11.1088 167.799 10.8686 167.373 10.3882C166.947 9.90778 166.734 9.18265 166.734 8.2128V4.10678H168.787V8.25359C168.787 9.08748 169.145 9.50443 169.861 9.50443C170.287 9.50443 170.632 9.3594 170.895 9.06935C171.158 8.7793 171.289 8.39861 171.289 7.92728V4.10678H173.356ZM185.275 3.93003C186.907 3.93003 187.723 4.89535 187.723 6.826V11H185.669V6.92117C185.669 6.44077 185.579 6.09181 185.398 5.87427C185.225 5.64767 184.949 5.53437 184.568 5.53437C184.115 5.53437 183.752 5.67939 183.481 5.96944C183.209 6.25949 183.073 6.64925 183.073 7.13871V11H181.02V6.07821C181.02 5.34402 180.983 4.68688 180.911 4.10678H182.842L182.977 5.19447C183.222 4.78658 183.539 4.47387 183.929 4.25634C184.328 4.0388 184.777 3.93003 185.275 3.93003ZM196.632 7.72334H192.091C192.127 8.36689 192.295 8.83822 192.594 9.13733C192.893 9.42738 193.337 9.57241 193.926 9.57241C194.28 9.57241 194.633 9.51349 194.987 9.39566C195.34 9.27783 195.666 9.10561 195.966 8.87901L196.509 10.2658C196.183 10.5287 195.775 10.7371 195.286 10.8912C194.805 11.0363 194.32 11.1088 193.831 11.1088C192.671 11.1088 191.76 10.7915 191.098 10.157C190.436 9.51349 190.106 8.63881 190.106 7.53299C190.106 6.83506 190.246 6.21417 190.527 5.67033C190.817 5.11742 191.221 4.69141 191.737 4.3923C192.254 4.08412 192.838 3.93003 193.491 3.93003C194.461 3.93003 195.227 4.24727 195.789 4.88176C196.351 5.50718 196.632 6.35467 196.632 7.42423V7.72334ZM193.545 5.37121C193.156 5.37121 192.838 5.48452 192.594 5.71112C192.358 5.93772 192.204 6.26856 192.131 6.70363H194.864C194.756 5.81535 194.316 5.37121 193.545 5.37121ZM205.195 7.72334H200.654C200.69 8.36689 200.857 8.83822 201.157 9.13733C201.456 9.42738 201.9 9.57241 202.489 9.57241C202.843 9.57241 203.196 9.51349 203.55 9.39566C203.903 9.27783 204.229 9.10561 204.528 8.87901L205.072 10.2658C204.746 10.5287 204.338 10.7371 203.849 10.8912C203.368 11.0363 202.883 11.1088 202.394 11.1088C201.234 11.1088 200.323 10.7915 199.661 10.157C198.999 9.51349 198.669 8.63881 198.669 7.53299C198.669 6.83506 198.809 6.21417 199.09 5.67033C199.38 5.11742 199.783 4.69141 200.3 4.3923C200.817 4.08412 201.401 3.93003 202.054 3.93003C203.024 3.93003 203.79 4.24727 204.352 4.88176C204.914 5.50718 205.195 6.35467 205.195 7.42423V7.72334ZM202.108 5.37121C201.719 5.37121 201.401 5.48452 201.157 5.71112C200.921 5.93772 200.767 6.26856 200.694 6.70363H203.427C203.318 5.81535 202.879 5.37121 202.108 5.37121ZM214.478 0.993271V11H212.452V9.98029C212.244 10.3338 211.949 10.6102 211.569 10.8097C211.188 11.0091 210.757 11.1088 210.277 11.1088C209.688 11.1088 209.162 10.9592 208.7 10.6601C208.238 10.3519 207.875 9.92591 207.612 9.38206C207.358 8.82916 207.231 8.1992 207.231 7.49221C207.231 6.78521 207.358 6.16432 207.612 5.62954C207.875 5.0857 208.233 4.66875 208.686 4.3787C209.148 4.07959 209.679 3.93003 210.277 3.93003C210.739 3.93003 211.161 4.02973 211.541 4.22914C211.922 4.41949 212.217 4.68688 212.425 5.03131V0.993271H214.478ZM210.875 9.54522C211.383 9.54522 211.772 9.373 212.044 9.02857C212.316 8.67507 212.452 8.17201 212.452 7.5194C212.452 6.87585 212.312 6.38186 212.031 6.03742C211.759 5.68393 211.374 5.50718 210.875 5.50718C210.368 5.50718 209.973 5.67939 209.692 6.02383C209.411 6.36826 209.271 6.85772 209.271 7.49221C209.271 8.14482 209.411 8.65241 209.692 9.01497C209.973 9.36847 210.368 9.54522 210.875 9.54522ZM224.718 5.64314V8.32157C224.718 8.70226 224.818 8.98325 225.017 9.16453C225.216 9.33674 225.475 9.42285 225.792 9.42285C225.991 9.42285 226.218 9.39113 226.472 9.32768V10.9184C226.145 11.0453 225.751 11.1088 225.289 11.1088C224.437 11.1088 223.784 10.8686 223.331 10.3882C222.887 9.90778 222.665 9.23251 222.665 8.36236V5.64314H221.36V4.10678H222.665V2.48884L224.718 1.82263V4.10678H226.472V5.64314H224.718ZM231.903 11.1088C231.169 11.1088 230.525 10.9637 229.972 10.6737C229.429 10.3836 229.007 9.9667 228.708 9.42285C228.418 8.87901 228.273 8.24452 228.273 7.5194C228.273 6.79427 228.418 6.15979 228.708 5.61594C229.007 5.0721 229.429 4.65515 229.972 4.3651C230.525 4.07505 231.169 3.93003 231.903 3.93003C232.628 3.93003 233.263 4.07505 233.807 4.3651C234.35 4.65515 234.767 5.0721 235.057 5.61594C235.357 6.15979 235.506 6.79427 235.506 7.5194C235.506 8.24452 235.357 8.87901 235.057 9.42285C234.767 9.9667 234.35 10.3836 233.807 10.6737C233.263 10.9637 232.628 11.1088 231.903 11.1088ZM231.903 9.54522C232.411 9.54522 232.796 9.37753 233.059 9.04216C233.331 8.70679 233.467 8.1992 233.467 7.5194C233.467 6.84866 233.331 6.3456 233.059 6.01023C232.796 5.6658 232.411 5.49358 231.903 5.49358C231.386 5.49358 230.992 5.6658 230.72 6.01023C230.448 6.3456 230.312 6.84866 230.312 7.5194C230.312 8.86994 230.843 9.54522 231.903 9.54522ZM245.401 5.64314V8.32157C245.401 8.70226 245.501 8.98325 245.7 9.16453C245.899 9.33674 246.158 9.42285 246.475 9.42285C246.674 9.42285 246.901 9.39113 247.155 9.32768V10.9184C246.828 11.0453 246.434 11.1088 245.972 11.1088C245.12 11.1088 244.467 10.8686 244.014 10.3882C243.57 9.90778 243.348 9.23251 243.348 8.36236V5.64314H242.043V4.10678H243.348V2.48884L245.401 1.82263V4.10678H247.155V5.64314H245.401ZM253.307 3.94362C253.597 3.94362 253.842 3.98894 254.041 4.07959L254.027 5.95585C253.692 5.80176 253.357 5.72471 253.021 5.72471C252.477 5.72471 252.06 5.87427 251.77 6.17338C251.489 6.46344 251.349 6.87132 251.349 7.39703V11H249.296V6.07821C249.296 5.34402 249.26 4.68688 249.187 4.10678H251.118L251.254 5.28964C251.426 4.85456 251.693 4.52372 252.056 4.29712C252.428 4.06146 252.845 3.94362 253.307 3.94362ZM262.734 4.10678V11H260.708V9.98029C260.5 10.3338 260.205 10.6102 259.825 10.8097C259.444 11.0091 259.013 11.1088 258.533 11.1088C257.935 11.1088 257.405 10.9637 256.942 10.6737C256.489 10.3836 256.131 9.97123 255.868 9.43645C255.614 8.8926 255.487 8.26718 255.487 7.56019C255.487 6.85319 255.614 6.22324 255.868 5.67033C256.131 5.11742 256.494 4.69141 256.956 4.3923C257.418 4.08412 257.944 3.93003 258.533 3.93003C259.013 3.93003 259.444 4.03427 259.825 4.24274C260.205 4.45121 260.5 4.7322 260.708 5.0857V4.10678H262.734ZM259.131 9.54522C259.639 9.54522 260.029 9.373 260.3 9.02857C260.572 8.68413 260.708 8.18561 260.708 7.53299C260.708 6.88038 260.572 6.38186 260.3 6.03742C260.029 5.68393 259.639 5.50718 259.131 5.50718C258.624 5.50718 258.229 5.68846 257.948 6.05102C257.667 6.41358 257.527 6.91664 257.527 7.56019C257.527 8.20374 257.663 8.69773 257.935 9.04216C258.216 9.37753 258.615 9.54522 259.131 9.54522ZM269.735 3.93003C271.366 3.93003 272.182 4.89535 272.182 6.826V11H270.129V6.92117C270.129 6.44077 270.038 6.09181 269.857 5.87427C269.685 5.64767 269.408 5.53437 269.028 5.53437C268.574 5.53437 268.212 5.67939 267.94 5.96944C267.668 6.25949 267.532 6.64925 267.532 7.13871V11H265.479V6.07821C265.479 5.34402 265.443 4.68688 265.37 4.10678H267.301L267.437 5.19447C267.682 4.78658 267.999 4.47387 268.389 4.25634C268.787 4.0388 269.236 3.93003 269.735 3.93003ZM277.543 11.1088C276.237 11.1088 275.209 10.8278 274.456 10.2658L275 8.83822C275.363 9.10108 275.766 9.30502 276.21 9.45004C276.654 9.58601 277.107 9.65399 277.57 9.65399C277.923 9.65399 278.195 9.5996 278.386 9.49083C278.576 9.38206 278.671 9.22344 278.671 9.01497C278.671 8.84275 278.603 8.70679 278.467 8.60709C278.331 8.50738 278.091 8.42127 277.747 8.34876L276.618 8.09043C275.956 7.94541 275.467 7.71428 275.15 7.39703C274.841 7.07979 274.687 6.65831 274.687 6.1326C274.687 5.70659 274.81 5.32589 275.054 4.99052C275.308 4.65515 275.657 4.39683 276.101 4.21555C276.546 4.0252 277.058 3.93003 277.638 3.93003C278.127 3.93003 278.608 4.00707 279.079 4.16116C279.55 4.30619 279.972 4.51466 280.343 4.78658L279.772 6.15979C279.419 5.91506 279.056 5.72925 278.685 5.60235C278.322 5.47545 277.969 5.412 277.624 5.412C277.289 5.412 277.026 5.47092 276.836 5.58875C276.645 5.70659 276.55 5.86974 276.55 6.07821C276.55 6.2323 276.604 6.3592 276.713 6.4589C276.831 6.54954 277.035 6.62659 277.325 6.69004L278.481 6.94836C279.188 7.11152 279.7 7.35625 280.017 7.68255C280.334 8.00886 280.493 8.44393 280.493 8.98778C280.493 9.64039 280.23 10.157 279.704 10.5377C279.179 10.9184 278.458 11.1088 277.543 11.1088ZM286.447 2.61121C286.13 2.61121 285.876 2.70185 285.686 2.88313C285.495 3.05535 285.4 3.33633 285.4 3.72609V4.10678H286.841V5.64314H285.4V11H283.347V5.64314H282.056V4.10678H283.347V3.6717C283.347 2.80155 283.569 2.12628 284.013 1.64588C284.457 1.16549 285.101 0.925291 285.944 0.925291C286.415 0.925291 286.805 0.984207 287.113 1.10204V2.70638C286.85 2.64293 286.628 2.61121 286.447 2.61121ZM295.269 7.72334H290.728C290.764 8.36689 290.932 8.83822 291.231 9.13733C291.53 9.42738 291.975 9.57241 292.564 9.57241C292.917 9.57241 293.271 9.51349 293.624 9.39566C293.978 9.27783 294.304 9.10561 294.603 8.87901L295.147 10.2658C294.821 10.5287 294.413 10.7371 293.923 10.8912C293.443 11.0363 292.958 11.1088 292.469 11.1088C291.308 11.1088 290.397 10.7915 289.736 10.157C289.074 9.51349 288.743 8.63881 288.743 7.53299C288.743 6.83506 288.884 6.21417 289.165 5.67033C289.455 5.11742 289.858 4.69141 290.375 4.3923C290.891 4.08412 291.476 3.93003 292.129 3.93003C293.098 3.93003 293.864 4.24727 294.426 4.88176C294.988 5.50718 295.269 6.35467 295.269 7.42423V7.72334ZM292.183 5.37121C291.793 5.37121 291.476 5.48452 291.231 5.71112C290.996 5.93772 290.842 6.26856 290.769 6.70363H293.502C293.393 5.81535 292.953 5.37121 292.183 5.37121ZM301.657 3.94362C301.947 3.94362 302.192 3.98894 302.391 4.07959L302.377 5.95585C302.042 5.80176 301.707 5.72471 301.371 5.72471C300.827 5.72471 300.411 5.87427 300.12 6.17338C299.839 6.46344 299.699 6.87132 299.699 7.39703V11H297.646V6.07821C297.646 5.34402 297.61 4.68688 297.537 4.10678H299.468L299.604 5.28964C299.776 4.85456 300.043 4.52372 300.406 4.29712C300.778 4.06146 301.195 3.94362 301.657 3.94362ZM311.859 11.1088C310.554 11.1088 309.525 10.8278 308.773 10.2658L309.317 8.83822C309.68 9.10108 310.083 9.30502 310.527 9.45004C310.971 9.58601 311.424 9.65399 311.887 9.65399C312.24 9.65399 312.512 9.5996 312.702 9.49083C312.893 9.38206 312.988 9.22344 312.988 9.01497C312.988 8.84275 312.92 8.70679 312.784 8.60709C312.648 8.50738 312.408 8.42127 312.063 8.34876L310.935 8.09043C310.273 7.94541 309.784 7.71428 309.467 7.39703C309.158 7.07979 309.004 6.65831 309.004 6.1326C309.004 5.70659 309.127 5.32589 309.371 4.99052C309.625 4.65515 309.974 4.39683 310.418 4.21555C310.862 4.0252 311.375 3.93003 311.955 3.93003C312.444 3.93003 312.924 4.00707 313.396 4.16116C313.867 4.30619 314.289 4.51466 314.66 4.78658L314.089 6.15979C313.736 5.91506 313.373 5.72925 313.002 5.60235C312.639 5.47545 312.285 5.412 311.941 5.412C311.606 5.412 311.343 5.47092 311.152 5.58875C310.962 5.70659 310.867 5.86974 310.867 6.07821C310.867 6.2323 310.921 6.3592 311.03 6.4589C311.148 6.54954 311.352 6.62659 311.642 6.69004L312.798 6.94836C313.505 7.11152 314.017 7.35625 314.334 7.68255C314.651 8.00886 314.81 8.44393 314.81 8.98778C314.81 9.64039 314.547 10.157 314.021 10.5377C313.495 10.9184 312.775 11.1088 311.859 11.1088ZM320.438 11.1088C319.703 11.1088 319.06 10.9637 318.507 10.6737C317.963 10.3836 317.542 9.9667 317.243 9.42285C316.952 8.87901 316.807 8.24452 316.807 7.5194C316.807 6.79427 316.952 6.15979 317.243 5.61594C317.542 5.0721 317.963 4.65515 318.507 4.3651C319.06 4.07505 319.703 3.93003 320.438 3.93003C321.163 3.93003 321.797 4.07505 322.341 4.3651C322.885 4.65515 323.302 5.0721 323.592 5.61594C323.891 6.15979 324.041 6.79427 324.041 7.5194C324.041 8.24452 323.891 8.87901 323.592 9.42285C323.302 9.9667 322.885 10.3836 322.341 10.6737C321.797 10.9637 321.163 11.1088 320.438 11.1088ZM320.438 9.54522C320.945 9.54522 321.33 9.37753 321.593 9.04216C321.865 8.70679 322.001 8.1992 322.001 7.5194C322.001 6.84866 321.865 6.3456 321.593 6.01023C321.33 5.6658 320.945 5.49358 320.438 5.49358C319.921 5.49358 319.527 5.6658 319.255 6.01023C318.983 6.3456 318.847 6.84866 318.847 7.5194C318.847 8.86994 319.377 9.54522 320.438 9.54522ZM334.87 3.93003C335.659 3.93003 336.243 4.17023 336.624 4.65062C337.014 5.12195 337.209 5.84708 337.209 6.826V11H335.156V6.89398C335.156 6.41358 335.079 6.06915 334.924 5.86067C334.77 5.64314 334.517 5.53437 334.163 5.53437C333.746 5.53437 333.424 5.67939 333.198 5.96944C332.971 6.25949 332.858 6.66738 332.858 7.19309V11H330.805V6.89398C330.805 6.42265 330.723 6.07821 330.56 5.86067C330.406 5.64314 330.157 5.53437 329.812 5.53437C329.395 5.53437 329.069 5.67939 328.833 5.96944C328.607 6.25949 328.494 6.66738 328.494 7.19309V11H326.441V6.07821C326.441 5.34402 326.404 4.68688 326.332 4.10678H328.262L328.385 5.14008C328.593 4.75033 328.883 4.45121 329.255 4.24274C329.636 4.03427 330.071 3.93003 330.56 3.93003C331.584 3.93003 332.264 4.35604 332.6 5.20806C332.826 4.81831 333.139 4.51013 333.538 4.28353C333.946 4.04786 334.39 3.93003 334.87 3.93003ZM346.102 7.72334H341.561C341.597 8.36689 341.765 8.83822 342.064 9.13733C342.363 9.42738 342.807 9.57241 343.397 9.57241C343.75 9.57241 344.104 9.51349 344.457 9.39566C344.811 9.27783 345.137 9.10561 345.436 8.87901L345.98 10.2658C345.654 10.5287 345.246 10.7371 344.756 10.8912C344.276 11.0363 343.791 11.1088 343.301 11.1088C342.141 11.1088 341.23 10.7915 340.569 10.157C339.907 9.51349 339.576 8.63881 339.576 7.53299C339.576 6.83506 339.717 6.21417 339.998 5.67033C340.288 5.11742 340.691 4.69141 341.208 4.3923C341.724 4.08412 342.309 3.93003 342.962 3.93003C343.931 3.93003 344.697 4.24727 345.259 4.88176C345.821 5.50718 346.102 6.35467 346.102 7.42423V7.72334ZM343.016 5.37121C342.626 5.37121 342.309 5.48452 342.064 5.71112C341.829 5.93772 341.674 6.26856 341.602 6.70363H344.335C344.226 5.81535 343.786 5.37121 343.016 5.37121ZM0.965323 18.3196H7.64101V19.9647H3.03193V22.2489H7.35549V23.9076H3.03193V26.3549H7.64101V28H0.965323V18.3196ZM12.5281 20.0463H9.49613V18.3196H17.7082V20.0463H14.6762V28H12.5281V20.0463ZM28.5705 18.3196V28H26.4903V23.9348H22.0036V28H19.9234V18.3196H22.0036V22.2353H26.4903V18.3196H28.5705ZM39.9987 19.6112C39.6814 19.6112 39.4276 19.7018 39.2373 19.8831C39.0469 20.0553 38.9518 20.3363 38.9518 20.7261V21.1068H40.3929V22.6431H38.9518V28H36.8987V22.6431H35.6071V21.1068H36.8987V20.6717C36.8987 19.8016 37.1208 19.1263 37.565 18.6459C38.0091 18.1655 38.6526 17.9253 39.4956 17.9253C39.9669 17.9253 40.3567 17.9842 40.6649 18.102V19.7064C40.402 19.6429 40.1799 19.6112 39.9987 19.6112ZM46.7119 20.9436C47.002 20.9436 47.2467 20.9889 47.4461 21.0796L47.4325 22.9558C47.0972 22.8018 46.7618 22.7247 46.4264 22.7247C45.8826 22.7247 45.4656 22.8743 45.1756 23.1734C44.8946 23.4634 44.7541 23.8713 44.7541 24.397V28H42.7011V23.0782C42.7011 22.344 42.6648 21.6869 42.5923 21.1068H44.523L44.6589 22.2896C44.8312 21.8546 45.0985 21.5237 45.4611 21.2971C45.8327 21.0615 46.2497 20.9436 46.7119 20.9436ZM52.5228 28.1088C51.7886 28.1088 51.1451 27.9637 50.5921 27.6737C50.0483 27.3836 49.6268 26.9667 49.3277 26.4229C49.0377 25.879 48.8926 25.2445 48.8926 24.5194C48.8926 23.7943 49.0377 23.1598 49.3277 22.6159C49.6268 22.0721 50.0483 21.6552 50.5921 21.3651C51.1451 21.0751 51.7886 20.93 52.5228 20.93C53.2479 20.93 53.8824 21.0751 54.4262 21.3651C54.9701 21.6552 55.387 22.0721 55.6771 22.6159C55.9762 23.1598 56.1258 23.7943 56.1258 24.5194C56.1258 25.2445 55.9762 25.879 55.6771 26.4229C55.387 26.9667 54.9701 27.3836 54.4262 27.6737C53.8824 27.9637 53.2479 28.1088 52.5228 28.1088ZM52.5228 26.5452C53.0304 26.5452 53.4156 26.3775 53.6785 26.0422C53.9504 25.7068 54.0863 25.1992 54.0863 24.5194C54.0863 23.8487 53.9504 23.3456 53.6785 23.0102C53.4156 22.6658 53.0304 22.4936 52.5228 22.4936C52.0061 22.4936 51.6119 22.6658 51.3399 23.0102C51.068 23.3456 50.932 23.8487 50.932 24.5194C50.932 25.8699 51.4623 26.5452 52.5228 26.5452ZM66.9553 20.93C67.7438 20.93 68.3285 21.1702 68.7092 21.6506C69.0989 22.122 69.2938 22.8471 69.2938 23.826V28H67.2408V23.894C67.2408 23.4136 67.1637 23.0691 67.0096 22.8607C66.8556 22.6431 66.6018 22.5344 66.2483 22.5344C65.8313 22.5344 65.5095 22.6794 65.2829 22.9694C65.0563 23.2595 64.943 23.6674 64.943 24.1931V28H62.89V23.894C62.89 23.4226 62.8084 23.0782 62.6453 22.8607C62.4912 22.6431 62.2419 22.5344 61.8975 22.5344C61.4806 22.5344 61.1543 22.6794 60.9186 22.9694C60.692 23.2595 60.5787 23.6674 60.5787 24.1931V28H58.5257V23.0782C58.5257 22.344 58.4894 21.6869 58.4169 21.1068H60.3476L60.4699 22.1401C60.6784 21.7503 60.9684 21.4512 61.3401 21.2427C61.7208 21.0343 62.1558 20.93 62.6453 20.93C63.6695 20.93 64.3493 21.356 64.6847 22.2081C64.9113 21.8183 65.224 21.5101 65.6228 21.2835C66.0307 21.0479 66.4749 20.93 66.9553 20.93ZM85.3424 20.93C86.131 20.93 86.7156 21.1702 87.0963 21.6506C87.486 22.122 87.6809 22.8471 87.6809 23.826V28H85.6279V23.894C85.6279 23.4136 85.5509 23.0691 85.3968 22.8607C85.2427 22.6431 84.9889 22.5344 84.6354 22.5344C84.2184 22.5344 83.8967 22.6794 83.6701 22.9694C83.4435 23.2595 83.3302 23.6674 83.3302 24.1931V28H81.2772V23.894C81.2772 23.4226 81.1956 23.0782 81.0324 22.8607C80.8783 22.6431 80.6291 22.5344 80.2846 22.5344C79.8677 22.5344 79.5414 22.6794 79.3057 22.9694C79.0791 23.2595 78.9658 23.6674 78.9658 24.1931V28H76.9128V23.0782C76.9128 22.344 76.8765 21.6869 76.804 21.1068H78.7347L78.857 22.1401C79.0655 21.7503 79.3556 21.4512 79.7272 21.2427C80.1079 21.0343 80.543 20.93 81.0324 20.93C82.0567 20.93 82.7365 21.356 83.0718 22.2081C83.2984 21.8183 83.6111 21.5101 84.01 21.2835C84.4179 21.0479 84.862 20.93 85.3424 20.93ZM97.2952 21.1068V28H95.2693V26.9803C95.0609 27.3338 94.7663 27.6102 94.3856 27.8097C94.0049 28.0091 93.5744 28.1088 93.094 28.1088C92.4957 28.1088 91.9655 27.9637 91.5032 27.6737C91.05 27.3836 90.692 26.9712 90.4291 26.4364C90.1753 25.8926 90.0484 25.2672 90.0484 24.5602C90.0484 23.8532 90.1753 23.2232 90.4291 22.6703C90.692 22.1174 91.0546 21.6914 91.5168 21.3923C91.9791 21.0841 92.5048 20.93 93.094 20.93C93.5744 20.93 94.0049 21.0343 94.3856 21.2427C94.7663 21.4512 95.0609 21.7322 95.2693 22.0857V21.1068H97.2952ZM93.6922 26.5452C94.1998 26.5452 94.5895 26.373 94.8615 26.0286C95.1334 25.6841 95.2693 25.1856 95.2693 24.533C95.2693 23.8804 95.1334 23.3819 94.8615 23.0374C94.5895 22.6839 94.1998 22.5072 93.6922 22.5072C93.1846 22.5072 92.7903 22.6885 92.5093 23.051C92.2284 23.4136 92.0879 23.9166 92.0879 24.5602C92.0879 25.2037 92.2238 25.6977 92.4957 26.0422C92.7767 26.3775 93.1755 26.5452 93.6922 26.5452ZM100.04 21.1068H102.093V28H100.04V21.1068ZM102.161 17.8709V19.8016H99.972V17.8709H102.161ZM109.114 20.93C110.746 20.93 111.562 21.8954 111.562 23.826V28H109.508V23.9212C109.508 23.4408 109.418 23.0918 109.237 22.8743C109.064 22.6477 108.788 22.5344 108.407 22.5344C107.954 22.5344 107.591 22.6794 107.32 22.9694C107.048 23.2595 106.912 23.6492 106.912 24.1387V28H104.859V23.0782C104.859 22.344 104.822 21.6869 104.75 21.1068H106.681L106.816 22.1945C107.061 21.7866 107.378 21.4739 107.768 21.2563C108.167 21.0388 108.616 20.93 109.114 20.93ZM118.54 20.93C120.172 20.93 120.987 21.8954 120.987 23.826V28H118.934V23.9212C118.934 23.4408 118.844 23.0918 118.662 22.8743C118.49 22.6477 118.214 22.5344 117.833 22.5344C117.38 22.5344 117.017 22.6794 116.745 22.9694C116.474 23.2595 116.338 23.6492 116.338 24.1387V28H114.285V23.0782C114.285 22.344 114.248 21.6869 114.176 21.1068H116.106L116.242 22.1945C116.487 21.7866 116.804 21.4739 117.194 21.2563C117.593 21.0388 118.042 20.93 118.54 20.93ZM129.897 24.7233H125.356C125.392 25.3669 125.56 25.8382 125.859 26.1373C126.158 26.4274 126.602 26.5724 127.191 26.5724C127.545 26.5724 127.898 26.5135 128.252 26.3957C128.605 26.2778 128.931 26.1056 129.23 25.879L129.774 27.2658C129.448 27.5287 129.04 27.7371 128.551 27.8912C128.07 28.0363 127.585 28.1088 127.096 28.1088C125.936 28.1088 125.025 27.7915 124.363 27.157C123.701 26.5135 123.371 25.6388 123.371 24.533C123.371 23.8351 123.511 23.2142 123.792 22.6703C124.082 22.1174 124.485 21.6914 125.002 21.3923C125.519 21.0841 126.103 20.93 126.756 20.93C127.726 20.93 128.492 21.2473 129.054 21.8818C129.616 22.5072 129.897 23.3547 129.897 24.4242V24.7233ZM126.81 22.3712C126.421 22.3712 126.103 22.4845 125.859 22.7111C125.623 22.9377 125.469 23.2686 125.396 23.7036H128.129C128.02 22.8154 127.581 22.3712 126.81 22.3712ZM134.724 22.6431V25.3216C134.724 25.7023 134.824 25.9832 135.023 26.1645C135.222 26.3367 135.481 26.4229 135.798 26.4229C135.997 26.4229 136.224 26.3911 136.478 26.3277V27.9184C136.151 28.0453 135.757 28.1088 135.295 28.1088C134.443 28.1088 133.79 27.8686 133.337 27.3882C132.893 26.9078 132.671 26.2325 132.671 25.3624V22.6431H131.366V21.1068H132.671V19.4888L134.724 18.8226V21.1068H136.478V22.6431H134.724ZM146.114 22.6431V25.3216C146.114 25.7023 146.213 25.9832 146.413 26.1645C146.612 26.3367 146.871 26.4229 147.188 26.4229C147.387 26.4229 147.614 26.3911 147.868 26.3277V27.9184C147.541 28.0453 147.147 28.1088 146.685 28.1088C145.833 28.1088 145.18 27.8686 144.727 27.3882C144.283 26.9078 144.061 26.2325 144.061 25.3624V22.6431H142.756V21.1068H144.061V19.4888L146.114 18.8226V21.1068H147.868V22.6431H146.114ZM153.299 28.1088C152.565 28.1088 151.921 27.9637 151.368 27.6737C150.825 27.3836 150.403 26.9667 150.104 26.4229C149.814 25.879 149.669 25.2445 149.669 24.5194C149.669 23.7943 149.814 23.1598 150.104 22.6159C150.403 22.0721 150.825 21.6552 151.368 21.3651C151.921 21.0751 152.565 20.93 153.299 20.93C154.024 20.93 154.659 21.0751 155.203 21.3651C155.746 21.6552 156.163 22.0721 156.453 22.6159C156.753 23.1598 156.902 23.7943 156.902 24.5194C156.902 25.2445 156.753 25.879 156.453 26.4229C156.163 26.9667 155.746 27.3836 155.203 27.6737C154.659 27.9637 154.024 28.1088 153.299 28.1088ZM153.299 26.5452C153.807 26.5452 154.192 26.3775 154.455 26.0422C154.727 25.7068 154.863 25.1992 154.863 24.5194C154.863 23.8487 154.727 23.3456 154.455 23.0102C154.192 22.6658 153.807 22.4936 153.299 22.4936C152.782 22.4936 152.388 22.6658 152.116 23.0102C151.844 23.3456 151.708 23.8487 151.708 24.5194C151.708 25.8699 152.239 26.5452 153.299 26.5452ZM171.012 21.1068L167.83 28.3671C167.44 29.2463 166.946 29.8899 166.348 30.2977C165.759 30.7147 165.034 30.9821 164.173 31.0999L163.697 29.5228C164.331 29.3868 164.807 29.2146 165.125 29.0061C165.451 28.7976 165.705 28.494 165.886 28.0952L166.09 27.6465L163.248 21.1068H165.396L167.164 25.5799L168.986 21.1068H171.012ZM175.934 28.1088C175.2 28.1088 174.556 27.9637 174.003 27.6737C173.459 27.3836 173.038 26.9667 172.739 26.4229C172.449 25.879 172.304 25.2445 172.304 24.5194C172.304 23.7943 172.449 23.1598 172.739 22.6159C173.038 22.0721 173.459 21.6552 174.003 21.3651C174.556 21.0751 175.2 20.93 175.934 20.93C176.659 20.93 177.294 21.0751 177.837 21.3651C178.381 21.6552 178.798 22.0721 179.088 22.6159C179.387 23.1598 179.537 23.7943 179.537 24.5194C179.537 25.2445 179.387 25.879 179.088 26.4229C178.798 26.9667 178.381 27.3836 177.837 27.6737C177.294 27.9637 176.659 28.1088 175.934 28.1088ZM175.934 26.5452C176.442 26.5452 176.827 26.3775 177.09 26.0422C177.362 25.7068 177.497 25.1992 177.497 24.5194C177.497 23.8487 177.362 23.3456 177.09 23.0102C176.827 22.6658 176.442 22.4936 175.934 22.4936C175.417 22.4936 175.023 22.6658 174.751 23.0102C174.479 23.3456 174.343 23.8487 174.343 24.5194C174.343 25.8699 174.873 26.5452 175.934 26.5452ZM188.517 21.1068V28H186.519V26.9939C186.301 27.3565 186.016 27.6329 185.662 27.8233C185.309 28.0136 184.91 28.1088 184.466 28.1088C183.605 28.1088 182.961 27.8686 182.535 27.3882C182.109 26.9078 181.896 26.1827 181.896 25.2128V21.1068H183.949V25.2536C183.949 26.0875 184.307 26.5044 185.023 26.5044C185.449 26.5044 185.794 26.3594 186.056 26.0694C186.319 25.7793 186.451 25.3986 186.451 24.9273V21.1068H188.517ZM195.281 20.9436C195.571 20.9436 195.815 20.9889 196.015 21.0796L196.001 22.9558C195.666 22.8018 195.331 22.7247 194.995 22.7247C194.451 22.7247 194.034 22.8743 193.744 23.1734C193.463 23.4634 193.323 23.8713 193.323 24.397V28H191.27V23.0782C191.27 22.344 191.234 21.6869 191.161 21.1068H193.092L193.228 22.2896C193.4 21.8546 193.667 21.5237 194.03 21.2971C194.401 21.0615 194.818 20.9436 195.281 20.9436ZM208.746 26.4636V28H202.669V26.5588L206.149 22.6431H202.723V21.1068H208.61V22.4936L205.075 26.4636H208.746ZM215.902 28L213.196 24.9137V28H211.143V17.9933H213.196V24.0707L215.779 21.1204H218.24L215.317 24.4242L218.417 28H215.902ZM223.546 28.1224C222.812 28.1224 222.105 28.0272 221.425 27.8368C220.754 27.6374 220.197 27.361 219.753 27.0075L220.432 25.4847C221.366 26.1373 222.408 26.4636 223.559 26.4636C224.176 26.4636 224.647 26.3685 224.973 26.1781C225.309 25.9787 225.477 25.7023 225.477 25.3488C225.477 25.0406 225.322 24.8004 225.014 24.6282C224.715 24.4469 224.185 24.2747 223.424 24.1115C222.571 23.9393 221.892 23.7308 221.384 23.4861C220.886 23.2323 220.518 22.9287 220.283 22.5752C220.056 22.2126 219.943 21.7639 219.943 21.2291C219.943 20.649 220.102 20.1279 220.419 19.6656C220.745 19.2033 221.198 18.8453 221.778 18.5915C222.358 18.3286 223.029 18.1972 223.791 18.1972C224.479 18.1972 225.141 18.2969 225.776 18.4963C226.41 18.6957 226.918 18.9677 227.298 19.3121L226.619 20.8349C225.767 20.1822 224.828 19.8559 223.804 19.8559C223.26 19.8559 222.825 19.9647 222.499 20.1822C222.173 20.3998 222.01 20.6944 222.01 21.066C222.01 21.2835 222.068 21.4648 222.186 21.6098C222.313 21.7549 222.522 21.8863 222.812 22.0041C223.102 22.1129 223.514 22.2217 224.049 22.3304C225.291 22.6023 226.184 22.9558 226.727 23.3909C227.28 23.826 227.557 24.4197 227.557 25.172C227.557 26.0784 227.203 26.799 226.496 27.3338C225.789 27.8595 224.806 28.1224 223.546 28.1224ZM236.713 21.1068L233.532 28.3671C233.142 29.2463 232.648 29.8899 232.05 30.2977C231.461 30.7147 230.735 30.9821 229.874 31.0999L229.398 29.5228C230.033 29.3868 230.509 29.2146 230.826 29.0061C231.152 28.7976 231.406 28.494 231.587 28.0952L231.791 27.6465L228.95 21.1068H231.098L232.865 25.5799L234.687 21.1068H236.713ZM242.734 20.93C244.365 20.93 245.181 21.8954 245.181 23.826V28H243.128V23.9212C243.128 23.4408 243.037 23.0918 242.856 22.8743C242.684 22.6477 242.407 22.5344 242.027 22.5344C241.573 22.5344 241.211 22.6794 240.939 22.9694C240.667 23.2595 240.531 23.6492 240.531 24.1387V28H238.478V23.0782C238.478 22.344 238.442 21.6869 238.369 21.1068H240.3L240.436 22.1945C240.681 21.7866 240.998 21.4739 241.388 21.2563C241.786 21.0388 242.235 20.93 242.734 20.93ZM251.167 28.1088C250.043 28.1088 249.159 27.7915 248.516 27.157C247.881 26.5226 247.564 25.6569 247.564 24.5602C247.564 23.8441 247.718 23.2142 248.026 22.6703C248.334 22.1174 248.765 21.6914 249.318 21.3923C249.88 21.0841 250.528 20.93 251.262 20.93C251.761 20.93 252.246 21.0071 252.717 21.1612C253.188 21.3153 253.564 21.5237 253.845 21.7866L253.302 23.2142C253.03 22.9966 252.731 22.829 252.404 22.7111C252.078 22.5842 251.761 22.5208 251.452 22.5208C250.891 22.5208 250.451 22.693 250.134 23.0374C249.825 23.3728 249.671 23.8668 249.671 24.5194C249.671 25.1811 249.825 25.6841 250.134 26.0286C250.442 26.3639 250.881 26.5316 251.452 26.5316C251.761 26.5316 252.078 26.4727 252.404 26.3549C252.731 26.228 253.03 26.0558 253.302 25.8382L253.845 27.2658C253.546 27.5287 253.157 27.7371 252.676 27.8912C252.196 28.0363 251.693 28.1088 251.167 28.1088ZM272.092 21.1068L269.305 28H267.578L266.014 24.0027L264.519 28H262.779L259.991 21.1068H262.085L263.744 25.5527L265.389 21.1068H266.789L268.448 25.5935L270.107 21.1068H272.092ZM280.792 21.1068V28H278.766V26.9803C278.557 27.3338 278.263 27.6102 277.882 27.8097C277.501 28.0091 277.071 28.1088 276.59 28.1088C275.992 28.1088 275.462 27.9637 275 27.6737C274.546 27.3836 274.188 26.9712 273.925 26.4364C273.672 25.8926 273.545 25.2672 273.545 24.5602C273.545 23.8532 273.672 23.2232 273.925 22.6703C274.188 22.1174 274.551 21.6914 275.013 21.3923C275.475 21.0841 276.001 20.93 276.59 20.93C277.071 20.93 277.501 21.0343 277.882 21.2427C278.263 21.4512 278.557 21.7322 278.766 22.0857V21.1068H280.792ZM277.189 26.5452C277.696 26.5452 278.086 26.373 278.358 26.0286C278.63 25.6841 278.766 25.1856 278.766 24.533C278.766 23.8804 278.63 23.3819 278.358 23.0374C278.086 22.6839 277.696 22.5072 277.189 22.5072C276.681 22.5072 276.287 22.6885 276.006 23.051C275.725 23.4136 275.584 23.9166 275.584 24.5602C275.584 25.2037 275.72 25.6977 275.992 26.0422C276.273 26.3775 276.672 26.5452 277.189 26.5452ZM283.536 17.9933H285.589V28H283.536V17.9933ZM288.355 17.9933H290.408V28H288.355V17.9933ZM299.36 24.7233H294.819C294.855 25.3669 295.023 25.8382 295.322 26.1373C295.621 26.4274 296.065 26.5724 296.654 26.5724C297.008 26.5724 297.361 26.5135 297.715 26.3957C298.068 26.2778 298.395 26.1056 298.694 25.879L299.237 27.2658C298.911 27.5287 298.503 27.7371 298.014 27.8912C297.533 28.0363 297.049 28.1088 296.559 28.1088C295.399 28.1088 294.488 27.7915 293.826 27.157C293.165 26.5135 292.834 25.6388 292.834 24.533C292.834 23.8351 292.974 23.2142 293.255 22.6703C293.545 22.1174 293.949 21.6914 294.465 21.3923C294.982 21.0841 295.567 20.93 296.219 20.93C297.189 20.93 297.955 21.2473 298.517 21.8818C299.079 22.5072 299.36 23.3547 299.36 24.4242V24.7233ZM296.274 22.3712C295.884 22.3712 295.567 22.4845 295.322 22.7111C295.086 22.9377 294.932 23.2686 294.86 23.7036H297.592C297.484 22.8154 297.044 22.3712 296.274 22.3712ZM304.187 22.6431V25.3216C304.187 25.7023 304.287 25.9832 304.486 26.1645C304.685 26.3367 304.944 26.4229 305.261 26.4229C305.46 26.4229 305.687 26.3911 305.941 26.3277V27.9184C305.615 28.0453 305.22 28.1088 304.758 28.1088C303.906 28.1088 303.253 27.8686 302.8 27.3882C302.356 26.9078 302.134 26.2325 302.134 25.3624V22.6431H300.829V21.1068H302.134V19.4888L304.187 18.8226V21.1068H305.941V22.6431H304.187ZM316.284 28.1088C315.55 28.1088 314.906 27.9637 314.353 27.6737C313.809 27.3836 313.388 26.9667 313.089 26.4229C312.799 25.879 312.654 25.2445 312.654 24.5194C312.654 23.7943 312.799 23.1598 313.089 22.6159C313.388 22.0721 313.809 21.6552 314.353 21.3651C314.906 21.0751 315.55 20.93 316.284 20.93C317.009 20.93 317.644 21.0751 318.187 21.3651C318.731 21.6552 319.148 22.0721 319.438 22.6159C319.737 23.1598 319.887 23.7943 319.887 24.5194C319.887 25.2445 319.737 25.879 319.438 26.4229C319.148 26.9667 318.731 27.3836 318.187 27.6737C317.644 27.9637 317.009 28.1088 316.284 28.1088ZM316.284 26.5452C316.791 26.5452 317.177 26.3775 317.44 26.0422C317.711 25.7068 317.847 25.1992 317.847 24.5194C317.847 23.8487 317.711 23.3456 317.44 23.0102C317.177 22.6658 316.791 22.4936 316.284 22.4936C315.767 22.4936 315.373 22.6658 315.101 23.0102C314.829 23.3456 314.693 23.8487 314.693 24.5194C314.693 25.8699 315.223 26.5452 316.284 26.5452ZM326.542 20.93C328.174 20.93 328.99 21.8954 328.99 23.826V28H326.937V23.9212C326.937 23.4408 326.846 23.0918 326.665 22.8743C326.493 22.6477 326.216 22.5344 325.835 22.5344C325.382 22.5344 325.02 22.6794 324.748 22.9694C324.476 23.2595 324.34 23.6492 324.34 24.1387V28H322.287V23.0782C322.287 22.344 322.251 21.6869 322.178 21.1068H324.109L324.245 22.1945C324.489 21.7866 324.807 21.4739 325.196 21.2563C325.595 21.0388 326.044 20.93 326.542 20.93ZM333.766 21.2563V23.4453H331.55V21.2563H333.766ZM333.766 25.811V28H331.55V25.811H333.766ZM5.08494 37.93C6.71647 37.93 7.53224 38.8954 7.53224 40.826V45H5.47923V40.9212C5.47923 40.4408 5.38859 40.0918 5.20731 39.8743C5.03509 39.6477 4.75863 39.5344 4.37794 39.5344C3.92474 39.5344 3.56218 39.6794 3.29026 39.9694C3.01833 40.2595 2.88237 40.6492 2.88237 41.1387V45H0.829362V34.9933H2.88237V39.0449C3.1271 38.6823 3.43981 38.4059 3.8205 38.2155C4.20119 38.0252 4.62267 37.93 5.08494 37.93ZM12.8385 39.6431V42.3216C12.8385 42.7023 12.9382 42.9832 13.1377 43.1645C13.3371 43.3367 13.5954 43.4229 13.9126 43.4229C14.112 43.4229 14.3386 43.3911 14.5924 43.3277V44.9184C14.2661 45.0453 13.8718 45.1088 13.4096 45.1088C12.5576 45.1088 11.9049 44.8686 11.4517 44.3882C11.0076 43.9078 10.7855 43.2325 10.7855 42.3624V39.6431H9.4803V38.1068H10.7855V36.4888L12.8385 35.8226V38.1068H14.5924V39.6431H12.8385ZM19.131 39.6431V42.3216C19.131 42.7023 19.2307 42.9832 19.4301 43.1645C19.6295 43.3367 19.8878 43.4229 20.2051 43.4229C20.4045 43.4229 20.6311 43.3911 20.8849 43.3277V44.9184C20.5586 45.0453 20.1643 45.1088 19.702 45.1088C18.85 45.1088 18.1974 44.8686 17.7442 44.3882C17.3 43.9078 17.078 43.2325 17.078 42.3624V39.6431H15.7727V38.1068H17.078V36.4888L19.131 35.8226V38.1068H20.8849V39.6431H19.131ZM27.2408 37.93C27.83 37.93 28.3557 38.0841 28.818 38.3923C29.2803 38.6914 29.6383 39.1174 29.8921 39.6703C30.1549 40.2232 30.2864 40.8532 30.2864 41.5602C30.2864 42.2672 30.1595 42.8926 29.9057 43.4364C29.6519 43.9712 29.2939 44.3836 28.8316 44.6737C28.3693 44.9637 27.8391 45.1088 27.2408 45.1088C26.7604 45.1088 26.3299 45.0091 25.9492 44.8097C25.5685 44.6102 25.2785 44.3338 25.0791 43.9803V47.9368H23.0261V40.0782C23.0261 39.344 22.9898 38.6869 22.9173 38.1068H24.8479L24.9839 39.2489C25.1652 38.841 25.4552 38.5192 25.854 38.2835C26.2619 38.0479 26.7242 37.93 27.2408 37.93ZM26.6562 43.5452C27.1638 43.5452 27.5536 43.3775 27.8255 43.0422C28.0974 42.6977 28.2334 42.2037 28.2334 41.5602C28.2334 40.9166 28.0929 40.4136 27.8119 40.051C27.54 39.6885 27.1547 39.5072 26.6562 39.5072C26.1486 39.5072 25.7543 39.6839 25.4734 40.0374C25.2014 40.3819 25.0655 40.8804 25.0655 41.533C25.0655 42.1856 25.2014 42.6841 25.4734 43.0286C25.7543 43.373 26.1486 43.5452 26.6562 43.5452ZM35.3286 45.1088C34.0234 45.1088 32.9946 44.8278 32.2423 44.2658L32.7861 42.8382C33.1487 43.1011 33.5521 43.305 33.9962 43.45C34.4403 43.586 34.8935 43.654 35.3558 43.654C35.7093 43.654 35.9812 43.5996 36.1716 43.4908C36.3619 43.3821 36.4571 43.2234 36.4571 43.015C36.4571 42.8428 36.3891 42.7068 36.2531 42.6071C36.1172 42.5074 35.877 42.4213 35.5326 42.3488L34.4041 42.0904C33.7424 41.9454 33.2529 41.7143 32.9357 41.397C32.6275 41.0798 32.4734 40.6583 32.4734 40.1326C32.4734 39.7066 32.5958 39.3259 32.8405 38.9905C33.0943 38.6552 33.4433 38.3968 33.8874 38.2155C34.3316 38.0252 34.8437 37.93 35.4238 37.93C35.9132 37.93 36.3936 38.0071 36.865 38.1612C37.3363 38.3062 37.7578 38.5147 38.1294 38.7866L37.5584 40.1598C37.2049 39.9151 36.8423 39.7292 36.4707 39.6023C36.1081 39.4755 35.7546 39.412 35.4102 39.412C35.0748 39.412 34.812 39.4709 34.6216 39.5888C34.4313 39.7066 34.3361 39.8697 34.3361 40.0782C34.3361 40.2323 34.3905 40.3592 34.4992 40.4589C34.6171 40.5495 34.821 40.6266 35.1111 40.69L36.2667 40.9484C36.9737 41.1115 37.4859 41.3562 37.8031 41.6826C38.1203 42.0089 38.279 42.4439 38.279 42.9878C38.279 43.6404 38.0161 44.157 37.4904 44.5377C36.9647 44.9184 36.2441 45.1088 35.3286 45.1088ZM42.6695 38.2563V40.4453H40.4534V38.2563H42.6695ZM42.6695 42.811V45H40.4534V42.811H42.6695ZM44.7565 45.8294L48.3187 34.7349H50.0182L46.4425 45.8294H44.7565ZM49.6947 45.8294L53.2569 34.7349H54.9564L51.3806 45.8294H49.6947ZM67.366 38.1068L64.5788 45H62.8521L61.2886 41.0027L59.793 45H58.0527L55.2655 38.1068H57.3593L59.018 42.5527L60.6631 38.1068H62.0635L63.7223 42.5935L65.381 38.1068H67.366ZM76.0656 38.1068V45H74.0398V43.9803C73.8313 44.3338 73.5367 44.6102 73.156 44.8097C72.7753 45.0091 72.3448 45.1088 71.8644 45.1088C71.2662 45.1088 70.7359 44.9637 70.2737 44.6737C69.8205 44.3836 69.4624 43.9712 69.1996 43.4364C68.9458 42.8926 68.8189 42.2672 68.8189 41.5602C68.8189 40.8532 68.9458 40.2232 69.1996 39.6703C69.4624 39.1174 69.825 38.6914 70.2873 38.3923C70.7495 38.0841 71.2752 37.93 71.8644 37.93C72.3448 37.93 72.7753 38.0343 73.156 38.2427C73.5367 38.4512 73.8313 38.7322 74.0398 39.0857V38.1068H76.0656ZM72.4626 43.5452C72.9702 43.5452 73.36 43.373 73.6319 43.0286C73.9038 42.6841 74.0398 42.1856 74.0398 41.533C74.0398 40.8804 73.9038 40.3819 73.6319 40.0374C73.36 39.6839 72.9702 39.5072 72.4626 39.5072C71.955 39.5072 71.5608 39.6885 71.2798 40.051C70.9988 40.4136 70.8583 40.9166 70.8583 41.5602C70.8583 42.2037 70.9943 42.6977 71.2662 43.0422C71.5472 43.3775 71.946 43.5452 72.4626 43.5452ZM78.8104 34.9933H80.8634V45H78.8104V34.9933ZM83.6291 34.9933H85.6821V45H83.6291V34.9933ZM94.6339 41.7233H90.0928C90.1291 42.3669 90.2968 42.8382 90.5959 43.1373C90.895 43.4274 91.3392 43.5724 91.9283 43.5724C92.2818 43.5724 92.6353 43.5135 92.9888 43.3957C93.3423 43.2778 93.6686 43.1056 93.9677 42.879L94.5116 44.2658C94.1853 44.5287 93.7774 44.7371 93.2879 44.8912C92.8075 45.0363 92.3226 45.1088 91.8331 45.1088C90.6729 45.1088 89.762 44.7915 89.1003 44.157C88.4387 43.5135 88.1078 42.6388 88.1078 41.533C88.1078 40.8351 88.2483 40.2142 88.5293 39.6703C88.8193 39.1174 89.2227 38.6914 89.7393 38.3923C90.256 38.0841 90.8406 37.93 91.4932 37.93C92.4631 37.93 93.229 38.2473 93.791 38.8818C94.353 39.5072 94.6339 40.3547 94.6339 41.4242V41.7233ZM91.5476 39.3712C91.1579 39.3712 90.8406 39.4845 90.5959 39.7111C90.3602 39.9377 90.2061 40.2686 90.1336 40.7036H92.8664C92.7577 39.8154 92.3181 39.3712 91.5476 39.3712ZM99.4611 39.6431V42.3216C99.4611 42.7023 99.5608 42.9832 99.7602 43.1645C99.9596 43.3367 100.218 43.4229 100.535 43.4229C100.735 43.4229 100.961 43.3911 101.215 43.3277V44.9184C100.889 45.0453 100.494 45.1088 100.032 45.1088C99.1801 45.1088 98.5275 44.8686 98.0743 44.3882C97.6301 43.9078 97.4081 43.2325 97.4081 42.3624V39.6431H96.1029V38.1068H97.4081V36.4888L99.4611 35.8226V38.1068H101.215V39.6431H99.4611ZM105.741 42.811V45H103.525V42.811H105.741ZM114.235 43.4636V45H108.157V43.5588L111.638 39.6431H108.212V38.1068H114.099V39.4936L110.564 43.4636H114.235ZM121.39 45L118.684 41.9137V45H116.631V34.9933H118.684V41.0707L121.268 38.1204H123.729L120.805 41.4242L123.905 45H121.39ZM128.084 45.1088C126.779 45.1088 125.75 44.8278 124.998 44.2658L125.542 42.8382C125.904 43.1011 126.308 43.305 126.752 43.45C127.196 43.586 127.649 43.654 128.111 43.654C128.465 43.654 128.737 43.5996 128.927 43.4908C129.118 43.3821 129.213 43.2234 129.213 43.015C129.213 42.8428 129.145 42.7068 129.009 42.6071C128.873 42.5074 128.633 42.4213 128.288 42.3488L127.16 42.0904C126.498 41.9454 126.009 41.7143 125.691 41.397C125.383 41.0798 125.229 40.6583 125.229 40.1326C125.229 39.7066 125.351 39.3259 125.596 38.9905C125.85 38.6552 126.199 38.3968 126.643 38.2155C127.087 38.0252 127.599 37.93 128.179 37.93C128.669 37.93 129.149 38.0071 129.621 38.1612C130.092 38.3062 130.513 38.5147 130.885 38.7866L130.314 40.1598C129.961 39.9151 129.598 39.7292 129.226 39.6023C128.864 39.4755 128.51 39.412 128.166 39.412C127.83 39.412 127.568 39.4709 127.377 39.5888C127.187 39.7066 127.092 39.8697 127.092 40.0782C127.092 40.2323 127.146 40.3592 127.255 40.4589C127.373 40.5495 127.577 40.6266 127.867 40.69L129.022 40.9484C129.729 41.1115 130.242 41.3562 130.559 41.6826C130.876 42.0089 131.035 42.4439 131.035 42.9878C131.035 43.6404 130.772 44.157 130.246 44.5377C129.72 44.9184 129 45.1088 128.084 45.1088ZM140.104 38.1068L136.922 45.3671C136.533 46.2463 136.039 46.8899 135.44 47.2977C134.851 47.7147 134.126 47.9821 133.265 48.0999L132.789 46.5228C133.424 46.3868 133.9 46.2146 134.217 46.0061C134.543 45.7976 134.797 45.494 134.978 45.0952L135.182 44.6465L132.34 38.1068H134.489L136.256 42.5799L138.078 38.1068H140.104ZM146.124 37.93C147.756 37.93 148.572 38.8954 148.572 40.826V45H146.519V40.9212C146.519 40.4408 146.428 40.0918 146.247 39.8743C146.074 39.6477 145.798 39.5344 145.417 39.5344C144.964 39.5344 144.602 39.6794 144.33 39.9694C144.058 40.2595 143.922 40.6492 143.922 41.1387V45H141.869V40.0782C141.869 39.344 141.832 38.6869 141.76 38.1068H143.691L143.827 39.1945C144.071 38.7866 144.389 38.4739 144.778 38.2563C145.177 38.0388 145.626 37.93 146.124 37.93ZM154.558 45.1088C153.434 45.1088 152.55 44.7915 151.906 44.157C151.272 43.5226 150.955 42.6569 150.955 41.5602C150.955 40.8441 151.109 40.2142 151.417 39.6703C151.725 39.1174 152.156 38.6914 152.709 38.3923C153.271 38.0841 153.919 37.93 154.653 37.93C155.151 37.93 155.636 38.0071 156.108 38.1612C156.579 38.3153 156.955 38.5237 157.236 38.7866L156.692 40.2142C156.42 39.9966 156.121 39.829 155.795 39.7111C155.469 39.5842 155.151 39.5208 154.843 39.5208C154.281 39.5208 153.842 39.693 153.524 40.0374C153.216 40.3728 153.062 40.8668 153.062 41.5194C153.062 42.1811 153.216 42.6841 153.524 43.0286C153.833 43.3639 154.272 43.5316 154.843 43.5316C155.151 43.5316 155.469 43.4727 155.795 43.3549C156.121 43.228 156.42 43.0558 156.692 42.8382L157.236 44.2658C156.937 44.5287 156.547 44.7371 156.067 44.8912C155.586 45.0363 155.083 45.1088 154.558 45.1088ZM161.486 42.811V45H159.269V42.811H161.486ZM164.079 38.1068H166.132V45H164.079V38.1068ZM166.2 34.8709V36.8016H164.011V34.8709H166.2ZM172.188 45.1088C171.453 45.1088 170.81 44.9637 170.257 44.6737C169.713 44.3836 169.292 43.9667 168.992 43.4229C168.702 42.879 168.557 42.2445 168.557 41.5194C168.557 40.7943 168.702 40.1598 168.992 39.6159C169.292 39.0721 169.713 38.6552 170.257 38.3651C170.81 38.0751 171.453 37.93 172.188 37.93C172.913 37.93 173.547 38.0751 174.091 38.3651C174.635 38.6552 175.052 39.0721 175.342 39.6159C175.641 40.1598 175.791 40.7943 175.791 41.5194C175.791 42.2445 175.641 42.879 175.342 43.4229C175.052 43.9667 174.635 44.3836 174.091 44.6737C173.547 44.9637 172.913 45.1088 172.188 45.1088ZM172.188 43.5452C172.695 43.5452 173.08 43.3775 173.343 43.0422C173.615 42.7068 173.751 42.1992 173.751 41.5194C173.751 40.8487 173.615 40.3456 173.343 40.0102C173.08 39.6658 172.695 39.4936 172.188 39.4936C171.671 39.4936 171.277 39.6658 171.005 40.0102C170.733 40.3456 170.597 40.8487 170.597 41.5194C170.597 42.8699 171.127 43.5452 172.188 43.5452ZM176.994 45.8294L180.556 34.7349H182.256L178.68 45.8294H176.994Z" fill="#9B9EAA"/>
</svg>
