<svg width="81" height="11" viewBox="0 0 81 11" fill="none" xmlns="http://www.w3.org/2000/svg">
<path d="M0.965323 0.319578H3.08631V10H0.965323V0.319578ZM8.56321 4.64314V7.32157C8.56321 7.70226 8.66291 7.98325 8.86232 8.16453C9.06173 8.33674 9.32005 8.42285 9.6373 8.42285C9.83671 8.42285 10.0633 8.39113 10.3171 8.32768V9.91842C9.9908 10.0453 9.59651 10.1088 9.13424 10.1088C8.28222 10.1088 7.62961 9.86857 7.1764 9.38818C6.73226 8.90778 6.51019 8.23251 6.51019 7.36236V4.64314H5.20497V3.10678H6.51019V1.48884L8.56321 0.822634V3.10678H10.3171V4.64314H8.56321ZM18.6445 6.72334H14.1034C14.1397 7.36689 14.3073 7.83822 14.6065 8.13733C14.9056 8.42738 15.3497 8.57241 15.9389 8.57241C16.2924 8.57241 16.6459 8.51349 16.9994 8.39566C17.3529 8.27783 17.6792 8.10561 17.9783 7.87901L18.5221 9.26581C18.1958 9.52867 17.7879 9.73714 17.2985 9.89123C16.8181 10.0363 16.3332 10.1088 15.8437 10.1088C14.6835 10.1088 13.7726 9.79153 13.1109 9.15704C12.4492 8.51349 12.1184 7.63881 12.1184 6.53299C12.1184 5.83506 12.2589 5.21417 12.5399 4.67033C12.8299 4.11742 13.2333 3.69141 13.7499 3.3923C14.2666 3.08412 14.8512 2.93003 15.5038 2.93003C16.4737 2.93003 17.2396 3.24727 17.8015 3.88176C18.3635 4.50718 18.6445 5.35467 18.6445 6.42423V6.72334ZM15.5582 4.37121C15.1684 4.37121 14.8512 4.48452 14.6065 4.71112C14.3708 4.93772 14.2167 5.26856 14.1442 5.70363H16.877C16.7682 4.81535 16.3286 4.37121 15.5582 4.37121ZM29.4507 2.93003C30.2393 2.93003 30.8239 3.17023 31.2046 3.65062C31.5944 4.12195 31.7893 4.84708 31.7893 5.826V10H29.7363V5.89398C29.7363 5.41358 29.6592 5.06915 29.5051 4.86067C29.351 4.64314 29.0972 4.53437 28.7437 4.53437C28.3268 4.53437 28.005 4.67939 27.7784 4.96944C27.5518 5.25949 27.4385 5.66738 27.4385 6.19309V10H25.3855V5.89398C25.3855 5.42265 25.3039 5.07821 25.1408 4.86067C24.9867 4.64314 24.7374 4.53437 24.393 4.53437C23.976 4.53437 23.6497 4.67939 23.4141 4.96944C23.1875 5.25949 23.0742 5.66738 23.0742 6.19309V10H21.0212V5.07821C21.0212 4.34402 20.9849 3.68688 20.9124 3.10678H22.843L22.9654 4.14008C23.1739 3.75033 23.4639 3.45121 23.8356 3.24274C24.2162 3.03427 24.6513 2.93003 25.1408 2.93003C26.165 2.93003 26.8448 3.35604 27.1802 4.20806C27.4068 3.81831 27.7195 3.51013 28.1183 3.28353C28.5262 3.04786 28.9703 2.93003 29.4507 2.93003ZM47.933 0.319578V10H46.3559L41.5293 3.82737V10H39.5442V0.319578H41.1078L45.9344 6.47861V0.319578H47.933ZM57.7326 3.10678V10H55.7068V8.98029C55.4984 9.33379 55.2038 9.61025 54.8231 9.80965C54.4424 10.0091 54.0118 10.1088 53.5314 10.1088C52.9332 10.1088 52.403 9.96374 51.9407 9.67369C51.4875 9.38364 51.1295 8.97123 50.8666 8.43645C50.6128 7.8926 50.4859 7.26718 50.4859 6.56019C50.4859 5.85319 50.6128 5.22324 50.8666 4.67033C51.1295 4.11742 51.492 3.69141 51.9543 3.3923C52.4166 3.08412 52.9423 2.93003 53.5314 2.93003C54.0118 2.93003 54.4424 3.03427 54.8231 3.24274C55.2038 3.45121 55.4984 3.7322 55.7068 4.0857V3.10678H57.7326ZM54.1297 8.54522C54.6373 8.54522 55.027 8.373 55.2989 8.02857C55.5709 7.68413 55.7068 7.18561 55.7068 6.53299C55.7068 5.88038 55.5709 5.38186 55.2989 5.03742C55.027 4.68393 54.6373 4.50718 54.1297 4.50718C53.6221 4.50718 53.2278 4.68846 52.9468 5.05102C52.6658 5.41358 52.5253 5.91664 52.5253 6.56019C52.5253 7.20374 52.6613 7.69773 52.9332 8.04216C53.2142 8.37753 53.613 8.54522 54.1297 8.54522ZM68.907 2.93003C69.6956 2.93003 70.2803 3.17023 70.6609 3.65062C71.0507 4.12195 71.2456 4.84708 71.2456 5.826V10H69.1926V5.89398C69.1926 5.41358 69.1155 5.06915 68.9614 4.86067C68.8073 4.64314 68.5535 4.53437 68.2 4.53437C67.7831 4.53437 67.4613 4.67939 67.2347 4.96944C67.0081 5.25949 66.8948 5.66738 66.8948 6.19309V10H64.8418V5.89398C64.8418 5.42265 64.7602 5.07821 64.5971 4.86067C64.443 4.64314 64.1937 4.53437 63.8493 4.53437C63.4323 4.53437 63.106 4.67939 62.8704 4.96944C62.6438 5.25949 62.5305 5.66738 62.5305 6.19309V10H60.4775V5.07821C60.4775 4.34402 60.4412 3.68688 60.3687 3.10678H62.2993L62.4217 4.14008C62.6302 3.75033 62.9202 3.45121 63.2919 3.24274C63.6725 3.03427 64.1076 2.93003 64.5971 2.93003C65.6213 2.93003 66.3011 3.35604 66.6365 4.20806C66.8631 3.81831 67.1758 3.51013 67.5746 3.28353C67.9825 3.04786 68.4266 2.93003 68.907 2.93003ZM80.1392 6.72334H75.5981C75.6344 7.36689 75.8021 7.83822 76.1012 8.13733C76.4003 8.42738 76.8444 8.57241 77.4336 8.57241C77.7871 8.57241 78.1406 8.51349 78.4941 8.39566C78.8476 8.27783 79.1739 8.10561 79.473 7.87901L80.0169 9.26581C79.6906 9.52867 79.2827 9.73714 78.7932 9.89123C78.3128 10.0363 77.8279 10.1088 77.3384 10.1088C76.1782 10.1088 75.2673 9.79153 74.6056 9.15704C73.9439 8.51349 73.6131 7.63881 73.6131 6.53299C73.6131 5.83506 73.7536 5.21417 74.0346 4.67033C74.3246 4.11742 74.728 3.69141 75.2446 3.3923C75.7613 3.08412 76.3459 2.93003 76.9985 2.93003C77.9684 2.93003 78.7343 3.24727 79.2963 3.88176C79.8582 4.50718 80.1392 5.35467 80.1392 6.42423V6.72334ZM77.0529 4.37121C76.6632 4.37121 76.3459 4.48452 76.1012 4.71112C75.8655 4.93772 75.7114 5.26856 75.6389 5.70363H78.3717C78.263 4.81535 77.8234 4.37121 77.0529 4.37121Z" fill="#9B9EAA"/>
</svg>
