<svg width="127" height="12" viewBox="0 0 127 12" fill="none" xmlns="http://www.w3.org/2000/svg">
<path d="M6.42484 7.24748V11H4.30385V7.23388L0.306599 1.31958H2.71311L5.35075 5.45279L8.01559 1.31958H10.4357L6.42484 7.24748ZM13.8286 11.1088C13.0944 11.1088 12.4508 10.9637 11.8979 10.6737C11.3541 10.3836 10.9326 9.9667 10.6335 9.42285C10.3434 8.87901 10.1984 8.24452 10.1984 7.5194C10.1984 6.79427 10.3434 6.15979 10.6335 5.61594C10.9326 5.0721 11.3541 4.65515 11.8979 4.3651C12.4508 4.07505 13.0944 3.93003 13.8286 3.93003C14.5537 3.93003 15.1882 4.07505 15.732 4.3651C16.2759 4.65515 16.6928 5.0721 16.9829 5.61594C17.282 6.15979 17.4315 6.79427 17.4315 7.5194C17.4315 8.24452 17.282 8.87901 16.9829 9.42285C16.6928 9.9667 16.2759 10.3836 15.732 10.6737C15.1882 10.9637 14.5537 11.1088 13.8286 11.1088ZM13.8286 9.54522C14.3361 9.54522 14.7214 9.37753 14.9842 9.04216C15.2561 8.70679 15.3921 8.1992 15.3921 7.5194C15.3921 6.84866 15.2561 6.3456 14.9842 6.01023C14.7214 5.6658 14.3361 5.49358 13.8286 5.49358C13.3119 5.49358 12.9176 5.6658 12.6457 6.01023C12.3738 6.3456 12.2378 6.84866 12.2378 7.5194C12.2378 8.86994 12.7681 9.54522 13.8286 9.54522ZM26.412 4.10678V11H24.4133V9.99389C24.1958 10.3565 23.9103 10.6329 23.5568 10.8233C23.2033 11.0136 22.8045 11.1088 22.3603 11.1088C21.4992 11.1088 20.8557 10.8686 20.4297 10.3882C20.0037 9.90778 19.7907 9.18265 19.7907 8.2128V4.10678H21.8437V8.25359C21.8437 9.08748 22.2017 9.50443 22.9178 9.50443C23.3438 9.50443 23.6882 9.3594 23.9511 9.06935C24.2139 8.7793 24.3453 8.39861 24.3453 7.92728V4.10678H26.412ZM33.1753 3.94362C33.4653 3.94362 33.7101 3.98894 33.9095 4.07959L33.8959 5.95585C33.5605 5.80176 33.2251 5.72471 32.8898 5.72471C32.3459 5.72471 31.929 5.87427 31.6389 6.17338C31.3579 6.46344 31.2174 6.87132 31.2174 7.39703V11H29.1644V6.07821C29.1644 5.34402 29.1282 4.68688 29.0557 4.10678H30.9863L31.1223 5.28964C31.2945 4.85456 31.5619 4.52372 31.9244 4.29712C32.2961 4.06146 32.713 3.94362 33.1753 3.94362ZM40.8762 1.31958H42.9972V9.2733H47.3207V11H40.8762V1.31958ZM56.2715 9.30049V11H49.623V9.43645L52.8453 6.01023C53.5161 5.28511 53.8514 4.62343 53.8514 4.0252C53.8514 3.64451 53.7381 3.35899 53.5115 3.16865C53.294 2.96924 52.9722 2.86953 52.5462 2.86953C51.7214 2.86953 50.8648 3.18224 49.9765 3.80766L49.2967 2.2849C49.6865 1.94953 50.185 1.68667 50.7923 1.49633C51.3996 1.29692 52.016 1.19721 52.6414 1.19721C53.6475 1.19721 54.4451 1.44194 55.0343 1.9314C55.6325 2.4118 55.9316 3.05988 55.9316 3.87564C55.9316 4.43762 55.8138 4.9588 55.5781 5.4392C55.3515 5.91053 54.9663 6.43624 54.4225 7.01634L52.2335 9.30049H56.2715ZM70.0829 5.99664C70.6449 6.15979 71.08 6.44531 71.3882 6.85319C71.6963 7.26107 71.8504 7.7596 71.8504 8.34876C71.8504 9.16453 71.5468 9.81261 70.9395 10.293C70.3322 10.7643 69.5074 11 68.465 11H63.8695V1.31958H68.329C69.3352 1.31958 70.1283 1.54618 70.7084 1.99938C71.2975 2.44352 71.5921 3.05535 71.5921 3.83486C71.5921 4.34244 71.4561 4.78658 71.1842 5.16727C70.9214 5.54796 70.5543 5.82442 70.0829 5.99664ZM65.9361 5.26245H67.9755C68.5194 5.26245 68.9227 5.17181 69.1856 4.99052C69.4575 4.80018 69.5935 4.51013 69.5935 4.12037C69.5935 3.72156 69.4575 3.42697 69.1856 3.23663C68.9227 3.04628 68.5194 2.95111 67.9755 2.95111H65.9361V5.26245ZM68.2203 9.36847C68.7913 9.36847 69.2037 9.2733 69.4575 9.08295C69.7204 8.88354 69.8518 8.57083 69.8518 8.14482C69.8518 7.70974 69.7204 7.3925 69.4575 7.19309C69.2037 6.99368 68.7913 6.89398 68.2203 6.89398H65.9361V9.36847H68.2203ZM81.1949 4.10678V11H79.1691V9.98029C78.9606 10.3338 78.666 10.6102 78.2853 10.8097C77.9046 11.0091 77.4741 11.1088 76.9937 11.1088C76.3955 11.1088 75.8652 10.9637 75.4029 10.6737C74.9497 10.3836 74.5917 9.97123 74.3289 9.43645C74.0751 8.8926 73.9482 8.26718 73.9482 7.56019C73.9482 6.85319 74.0751 6.22324 74.3289 5.67033C74.5917 5.11742 74.9543 4.69141 75.4165 4.3923C75.8788 4.08412 76.4045 3.93003 76.9937 3.93003C77.4741 3.93003 77.9046 4.03427 78.2853 4.24274C78.666 4.45121 78.9606 4.7322 79.1691 5.0857V4.10678H81.1949ZM77.5919 9.54522C78.0995 9.54522 78.4893 9.373 78.7612 9.02857C79.0331 8.68413 79.1691 8.18561 79.1691 7.53299C79.1691 6.88038 79.0331 6.38186 78.7612 6.03742C78.4893 5.68393 78.0995 5.50718 77.5919 5.50718C77.0843 5.50718 76.69 5.68846 76.4091 6.05102C76.1281 6.41358 75.9876 6.91664 75.9876 7.56019C75.9876 8.20374 76.1235 8.69773 76.3955 9.04216C76.6764 9.37753 77.0753 9.54522 77.5919 9.54522ZM83.9397 0.993271H85.9927V11H83.9397V0.993271ZM95.6652 4.10678V11H93.6394V9.98029C93.4309 10.3338 93.1363 10.6102 92.7556 10.8097C92.3749 11.0091 91.9444 11.1088 91.464 11.1088C90.8658 11.1088 90.3355 10.9637 89.8732 10.6737C89.42 10.3836 89.062 9.97123 88.7991 9.43645C88.5453 8.8926 88.4185 8.26718 88.4185 7.56019C88.4185 6.85319 88.5453 6.22324 88.7991 5.67033C89.062 5.11742 89.4246 4.69141 89.8868 4.3923C90.3491 4.08412 90.8748 3.93003 91.464 3.93003C91.9444 3.93003 92.3749 4.03427 92.7556 4.24274C93.1363 4.45121 93.4309 4.7322 93.6394 5.0857V4.10678H95.6652ZM92.0622 9.54522C92.5698 9.54522 92.9595 9.373 93.2315 9.02857C93.5034 8.68413 93.6394 8.18561 93.6394 7.53299C93.6394 6.88038 93.5034 6.38186 93.2315 6.03742C92.9595 5.68393 92.5698 5.50718 92.0622 5.50718C91.5546 5.50718 91.1603 5.68846 90.8793 6.05102C90.5984 6.41358 90.4579 6.91664 90.4579 7.56019C90.4579 8.20374 90.5938 8.69773 90.8658 9.04216C91.1467 9.37753 91.5456 9.54522 92.0622 9.54522ZM102.666 3.93003C104.297 3.93003 105.113 4.89535 105.113 6.826V11H103.06V6.92117C103.06 6.44077 102.969 6.09181 102.788 5.87427C102.616 5.64767 102.339 5.53437 101.959 5.53437C101.505 5.53437 101.143 5.67939 100.871 5.96944C100.599 6.25949 100.463 6.64925 100.463 7.13871V11H98.41V6.07821C98.41 5.34402 98.3737 4.68688 98.3012 4.10678H100.232L100.368 5.19447C100.613 4.78658 100.93 4.47387 101.32 4.25634C101.718 4.0388 102.167 3.93003 102.666 3.93003ZM111.099 11.1088C109.975 11.1088 109.091 10.7915 108.448 10.157C107.813 9.52256 107.496 8.65694 107.496 7.56019C107.496 6.84413 107.65 6.21417 107.958 5.67033C108.266 5.11742 108.697 4.69141 109.25 4.3923C109.812 4.08412 110.46 3.93003 111.194 3.93003C111.693 3.93003 112.178 4.00707 112.649 4.16116C113.12 4.31525 113.496 4.52372 113.777 4.78658L113.234 6.21417C112.962 5.99664 112.663 5.82895 112.336 5.71112C112.01 5.58422 111.693 5.52077 111.384 5.52077C110.823 5.52077 110.383 5.69299 110.066 6.03742C109.757 6.37279 109.603 6.86679 109.603 7.5194C109.603 8.18108 109.757 8.68413 110.066 9.02857C110.374 9.36394 110.813 9.53162 111.384 9.53162C111.693 9.53162 112.01 9.4727 112.336 9.35487C112.663 9.22798 112.962 9.05576 113.234 8.83822L113.777 10.2658C113.478 10.5287 113.089 10.7371 112.608 10.8912C112.128 11.0363 111.625 11.1088 111.099 11.1088ZM122.027 7.72334H117.486C117.523 8.36689 117.69 8.83822 117.989 9.13733C118.288 9.42738 118.733 9.57241 119.322 9.57241C119.675 9.57241 120.029 9.51349 120.382 9.39566C120.736 9.27783 121.062 9.10561 121.361 8.87901L121.905 10.2658C121.579 10.5287 121.171 10.7371 120.681 10.8912C120.201 11.0363 119.716 11.1088 119.227 11.1088C118.066 11.1088 117.155 10.7915 116.494 10.157C115.832 9.51349 115.501 8.63881 115.501 7.53299C115.501 6.83506 115.642 6.21417 115.923 5.67033C116.213 5.11742 116.616 4.69141 117.133 4.3923C117.649 4.08412 118.234 3.93003 118.887 3.93003C119.857 3.93003 120.622 4.24727 121.184 4.88176C121.746 5.50718 122.027 6.35467 122.027 7.42423V7.72334ZM118.941 5.37121C118.551 5.37121 118.234 5.48452 117.989 5.71112C117.754 5.93772 117.6 6.26856 117.527 6.70363H120.26C120.151 5.81535 119.711 5.37121 118.941 5.37121ZM126.457 4.25634V6.44531H124.241V4.25634H126.457ZM126.457 8.81103V11H124.241V8.81103H126.457Z" fill="#9B9EAA"/>
</svg>
