<svg width="374" height="68" viewBox="0 0 374 68" fill="none" xmlns="http://www.w3.org/2000/svg">
<rect x="1.27463" y="1.27463" width="371.343" height="65.4312" rx="14.021" fill="#EDEDED" stroke="#E3E3E3" stroke-width="2.54927"/>
<path d="M134.46 25.4794V40H132.135V30.9858L128.28 40H126.547L122.672 31.0878V40H120.347V25.4794H122.427L127.424 36.8389L132.379 25.4794H134.46ZM137.45 29.701H139.978V40H137.45V29.701ZM140.121 25.0307V27.5392H137.286V25.0307H140.121ZM148.661 29.4358C151.122 29.4358 152.352 30.8498 152.352 33.6778V40H149.803V33.8002C149.803 32.9844 149.647 32.393 149.334 32.0259C149.021 31.6452 148.539 31.4549 147.886 31.4549C147.111 31.4549 146.486 31.7064 146.01 32.2094C145.534 32.6989 145.296 33.3515 145.296 34.1673V40H142.767V32.6173C142.767 31.5296 142.713 30.5575 142.604 29.701H144.99L145.174 31.3937C145.527 30.7682 146.003 30.2856 146.601 29.9457C147.213 29.6058 147.9 29.4358 148.661 29.4358ZM158.298 31.618V36.2271C158.298 37.4371 158.862 38.0422 159.991 38.0422C160.304 38.0422 160.643 37.9878 161.011 37.879V39.898C160.562 40.0612 160.018 40.1428 159.379 40.1428C158.21 40.1428 157.312 39.8165 156.687 39.1638C156.062 38.5112 155.749 37.5731 155.749 36.3494V31.618H153.771V29.701H155.749V27.1925L158.298 26.3359V29.701H161.031V31.618H158.298ZM178.128 29.701L173.335 40.6934C172.791 41.9714 172.098 42.9028 171.255 43.4874C170.412 44.072 169.372 44.4595 168.135 44.6499L167.564 42.692C168.529 42.4745 169.249 42.1958 169.725 41.8559C170.215 41.5296 170.609 41.0401 170.908 40.3875L171.235 39.6329L166.952 29.701H169.623L172.581 37.104L175.599 29.701H178.128ZM183.944 40.1632C182.897 40.1632 181.972 39.9456 181.17 39.5105C180.382 39.0755 179.77 38.4568 179.335 37.6547C178.913 36.8389 178.702 35.8872 178.702 34.7995C178.702 33.7118 178.913 32.7669 179.335 31.9647C179.77 31.1489 180.382 30.5235 181.17 30.0884C181.972 29.6534 182.897 29.4358 183.944 29.4358C184.977 29.4358 185.888 29.6534 186.677 30.0884C187.465 30.5235 188.07 31.1489 188.492 31.9647C188.927 32.7669 189.144 33.7118 189.144 34.7995C189.144 35.8872 188.927 36.8389 188.492 37.6547C188.07 38.4568 187.465 39.0755 186.677 39.5105C185.888 39.9456 184.977 40.1632 183.944 40.1632ZM183.923 38.1645C184.793 38.1645 185.453 37.8858 185.902 37.3284C186.364 36.7573 186.595 35.9144 186.595 34.7995C186.595 33.6982 186.364 32.862 185.902 32.291C185.439 31.7064 184.787 31.4141 183.944 31.4141C183.087 31.4141 182.428 31.7064 181.966 32.291C181.503 32.862 181.272 33.6982 181.272 34.7995C181.272 35.9144 181.496 36.7573 181.945 37.3284C182.407 37.8858 183.067 38.1645 183.923 38.1645ZM200.724 29.701V40H198.236V38.4093C197.91 38.9803 197.475 39.4154 196.931 39.7145C196.387 40.0136 195.761 40.1632 195.054 40.1632C192.539 40.1632 191.281 38.7492 191.281 35.9212V29.701H193.81V35.9416C193.81 36.6894 193.96 37.24 194.259 37.5935C194.572 37.947 195.048 38.1237 195.687 38.1237C196.434 38.1237 197.033 37.879 197.481 37.3895C197.93 36.9001 198.154 36.2475 198.154 35.4317V29.701H200.724ZM209.039 29.4562C209.433 29.4562 209.773 29.5106 210.058 29.6194L210.038 31.9443C209.603 31.7676 209.154 31.6792 208.692 31.6792C207.822 31.6792 207.156 31.9307 206.693 32.4338C206.245 32.9368 206.02 33.603 206.02 34.4324V40H203.492V32.6173C203.492 31.5296 203.437 30.5575 203.328 29.701H205.714L205.918 31.516C206.177 30.8498 206.585 30.34 207.142 29.9865C207.7 29.633 208.332 29.4562 209.039 29.4562ZM229.494 25.4794V40H227.537L219.705 29.8233V40H217.258V25.4794H219.216L227.027 35.6357V25.4794H229.494ZM232.653 25.4794H242.136V27.58H235.264V31.5568H241.728V33.6778H235.264V40H232.653V25.4794ZM247.969 27.6411H243.237V25.4794H255.372V27.6411H250.62V40H247.969V27.6411Z" fill="#494949"/>
</svg>
