<svg width="162" height="24" viewBox="0 0 162 24" fill="none" xmlns="http://www.w3.org/2000/svg">
<path d="M17.5111 1.05926V18H14.2276V8.74446L10.3255 18H7.92244L3.99657 8.86342V18H0.736902V1.05926H3.68725L9.15968 13.5507L14.5845 1.05926H17.5111ZM20.6895 5.93686H24.2823V18H20.6895V5.93686ZM24.4013 0.274086V3.65272H20.5706V0.274086H24.4013ZM34.666 5.62755C37.5211 5.62755 38.9487 7.31687 38.9487 10.6955V18H35.356V10.862C35.356 10.0214 35.1973 9.41067 34.8801 9.02997C34.5787 8.63342 34.0949 8.43515 33.4287 8.43515C32.6356 8.43515 32.0011 8.68894 31.5253 9.19653C31.0494 9.70411 30.8115 10.3862 30.8115 11.2427V18H27.2187V9.38687C27.2187 8.10204 27.1553 6.95204 27.0284 5.93686H30.407L30.6449 7.84032C31.0732 7.12652 31.6284 6.57928 32.3104 6.19859C33.0084 5.8179 33.7935 5.62755 34.666 5.62755ZM46.3313 8.62549V13.3127C46.3313 13.979 46.5058 14.4707 46.8548 14.7879C47.2037 15.0893 47.6558 15.24 48.211 15.24C48.5599 15.24 48.9565 15.1845 49.4006 15.0734V17.8572C48.8296 18.0793 48.1396 18.1903 47.3306 18.1903C45.8396 18.1903 44.6975 17.77 43.9044 16.9293C43.1272 16.0886 42.7385 14.9069 42.7385 13.3841V8.62549H40.4544V5.93686H42.7385V3.10547L46.3313 1.93961V5.93686H49.4006V8.62549H46.3313ZM69.8326 5.93686L64.265 18.6424C63.583 20.181 62.7185 21.3073 61.6716 22.021C60.6405 22.7507 59.3716 23.2186 57.8647 23.4248L57.0319 20.6648C58.1423 20.4269 58.975 20.1255 59.5302 19.7607C60.1012 19.3959 60.5454 18.8645 60.8626 18.1666L61.2195 17.3814L56.2467 5.93686H60.0061L63.0992 13.7648L66.2875 5.93686H69.8326ZM76.5432 18.1903C75.2584 18.1903 74.1322 17.9366 73.1646 17.429C72.2129 16.9214 71.4753 16.1917 70.9519 15.24C70.4443 14.2883 70.1905 13.1779 70.1905 11.9089C70.1905 10.64 70.4443 9.52963 70.9519 8.5779C71.4753 7.62618 72.2129 6.89652 73.1646 6.38893C74.1322 5.88134 75.2584 5.62755 76.5432 5.62755C77.8122 5.62755 78.9226 5.88134 79.8743 6.38893C80.826 6.89652 81.5557 7.62618 82.0633 8.5779C82.5867 9.52963 82.8484 10.64 82.8484 11.9089C82.8484 13.1779 82.5867 14.2883 82.0633 15.24C81.5557 16.1917 80.826 16.9214 79.8743 17.429C78.9226 17.9366 77.8122 18.1903 76.5432 18.1903ZM76.5432 15.4541C77.4315 15.4541 78.1057 15.1607 78.5657 14.5738C79.0415 13.9869 79.2795 13.0986 79.2795 11.9089C79.2795 10.7352 79.0415 9.8548 78.5657 9.26791C78.1057 8.66515 77.4315 8.36377 76.5432 8.36377C75.6391 8.36377 74.9491 8.66515 74.4732 9.26791C73.9974 9.8548 73.7594 10.7352 73.7594 11.9089C73.7594 14.2724 74.6874 15.4541 76.5432 15.4541ZM96.6607 5.93686V18H93.1631V16.2393C92.7825 16.8738 92.2828 17.3576 91.6642 17.6907C91.0456 18.0238 90.3476 18.1903 89.5704 18.1903C88.0635 18.1903 86.9373 17.77 86.1917 16.9293C85.4462 16.0886 85.0735 14.8196 85.0735 13.1224V5.93686H88.6662V13.1938C88.6662 14.6531 89.2928 15.3828 90.5459 15.3828C91.2914 15.3828 91.8942 15.129 92.3542 14.6214C92.8142 14.1138 93.0442 13.4476 93.0442 12.6227V5.93686H96.6607ZM106.593 5.65134C107.101 5.65134 107.529 5.73065 107.878 5.88928L107.854 9.17273C107.267 8.90308 106.68 8.76825 106.093 8.76825C105.142 8.76825 104.412 9.02997 103.904 9.55342C103.413 10.061 103.167 10.7748 103.167 11.6948V18H99.5741V9.38687C99.5741 8.10204 99.5107 6.95204 99.3838 5.93686H102.762L103 8.00687C103.302 7.24549 103.77 6.66652 104.404 6.26997C105.054 5.85755 105.784 5.65134 106.593 5.65134ZM130.943 1.05926V18H128.183L119.737 7.1979V18H116.263V1.05926H118.999L127.446 11.8376V1.05926H130.943ZM134.34 1.05926H145.761V3.98582H138.004V7.91169H145.285V10.862H138.004V18H134.34V1.05926ZM152.439 4.08099H147.133V1.05926H161.504V4.08099H156.198V18H152.439V4.08099Z" fill="black"/>
</svg>
