<svg width="374" height="68" viewBox="0 0 374 68" fill="none" xmlns="http://www.w3.org/2000/svg">
<rect x="1.27463" y="1.27463" width="371.343" height="65.4312" rx="14.021" fill="#EDEDED" stroke="#E3E3E3" stroke-width="2.54927"/>
<path d="M158.737 25.4794V40H156.412V30.9858L152.558 40H150.824L146.95 31.0878V40H144.625V25.4794H146.705L151.701 36.8389L156.657 25.4794H158.737ZM161.727 29.701H164.256V40H161.727V29.701ZM164.399 25.0307V27.5392H161.564V25.0307H164.399ZM172.939 29.4358C175.4 29.4358 176.63 30.8498 176.63 33.6778V40H174.081V33.8002C174.081 32.9844 173.925 32.393 173.612 32.0259C173.299 31.6452 172.816 31.4549 172.164 31.4549C171.389 31.4549 170.763 31.7064 170.288 32.2094C169.812 32.6989 169.574 33.3515 169.574 34.1673V40H167.045V32.6173C167.045 31.5296 166.991 30.5575 166.882 29.701H169.268L169.451 31.3937C169.805 30.7682 170.281 30.2856 170.879 29.9457C171.491 29.6058 172.177 29.4358 172.939 29.4358ZM182.576 31.618V36.2271C182.576 37.4371 183.14 38.0422 184.269 38.0422C184.581 38.0422 184.921 37.9878 185.288 37.879V39.898C184.84 40.0612 184.296 40.1428 183.657 40.1428C182.488 40.1428 181.59 39.8165 180.965 39.1638C180.339 38.5112 180.027 37.5731 180.027 36.3494V31.618H178.048V29.701H180.027V27.1925L182.576 26.3359V29.701H185.309V31.618H182.576ZM187.061 29.701H189.59V40H187.061V29.701ZM189.732 25.0307V27.5392H186.898V25.0307H189.732ZM198.272 29.4358C200.733 29.4358 201.964 30.8498 201.964 33.6778V40H199.414V33.8002C199.414 32.9844 199.258 32.393 198.945 32.0259C198.633 31.6452 198.15 31.4549 197.497 31.4549C196.722 31.4549 196.097 31.7064 195.621 32.2094C195.145 32.6989 194.907 33.3515 194.907 34.1673V40H192.378V32.6173C192.378 31.5296 192.324 30.5575 192.215 29.701H194.601L194.785 31.3937C195.138 30.7682 195.614 30.2856 196.212 29.9457C196.824 29.6058 197.511 29.4358 198.272 29.4358ZM214.619 29.701V39.6737C214.619 41.278 214.177 42.4949 213.293 43.3242C212.41 44.1536 211.111 44.5683 209.398 44.5683C207.807 44.5683 206.407 44.2352 205.197 43.569L205.605 41.6315C206.856 42.2841 208.1 42.6105 209.337 42.6105C211.172 42.6105 212.09 41.6995 212.09 39.8776V37.8382C211.777 38.3957 211.322 38.8511 210.724 39.2046C210.125 39.5445 209.452 39.7145 208.705 39.7145C207.807 39.7145 207.005 39.5037 206.298 39.0823C205.605 38.6472 205.061 38.0422 204.667 37.2672C204.286 36.4786 204.096 35.5813 204.096 34.5752C204.096 33.569 204.286 32.6785 204.667 31.9035C205.061 31.115 205.605 30.5099 206.298 30.0884C207.005 29.6534 207.807 29.4358 208.705 29.4358C209.466 29.4358 210.139 29.599 210.724 29.9253C211.322 30.238 211.777 30.6799 212.09 31.2509V29.701H214.619ZM209.378 37.7159C210.221 37.7159 210.88 37.4371 211.356 36.8797C211.845 36.3223 212.09 35.5541 212.09 34.5752C212.09 33.5962 211.852 32.8281 211.376 32.2706C210.9 31.7132 210.234 31.4345 209.378 31.4345C208.535 31.4345 207.868 31.7132 207.379 32.2706C206.903 32.8281 206.665 33.5962 206.665 34.5752C206.665 35.5541 206.903 36.3223 207.379 36.8797C207.868 37.4371 208.535 37.7159 209.378 37.7159ZM219.963 37.1448V40H217.108V37.1448H219.963ZM225.082 37.1448V40H222.226V37.1448H225.082ZM230.2 37.1448V40H227.345V37.1448H230.2Z" fill="#494949"/>
</svg>
