<svg width="157" height="57" viewBox="0 0 157 57" fill="none" xmlns="http://www.w3.org/2000/svg">
<rect x="0.5" y="0.5" width="155.656" height="55.3844" rx="8.99756" fill="#858585" stroke="#CBCBCB"/>
<path d="M37.5778 23.3196V33H35.7015V27.7111L33.4717 33H32.0985L29.8552 27.7791V33H27.9925V23.3196H29.6784L32.8055 30.4575L35.9054 23.3196H37.5778ZM40.4817 26.1068H42.5347V33H40.4817V26.1068ZM42.6027 22.8709V24.8016H40.4137V22.8709H42.6027ZM49.5559 25.93C51.1875 25.93 52.0032 26.8954 52.0032 28.826V33H49.9502V28.9212C49.9502 28.4408 49.8596 28.0918 49.6783 27.8743C49.5061 27.6477 49.2296 27.5344 48.8489 27.5344C48.3957 27.5344 48.0332 27.6794 47.7612 27.9694C47.4893 28.2595 47.3534 28.6492 47.3534 29.1387V33H45.3003V28.0782C45.3003 27.344 45.2641 26.6869 45.1916 26.1068H47.1222L47.2582 27.1945C47.5029 26.7866 47.8202 26.4739 48.2099 26.2563C48.6087 26.0388 49.0574 25.93 49.5559 25.93ZM57.3095 27.6431V30.3216C57.3095 30.7023 57.4092 30.9832 57.6086 31.1645C57.8081 31.3367 58.0664 31.4229 58.3836 31.4229C58.583 31.4229 58.8096 31.3911 59.0634 31.3277V32.9184C58.7371 33.0453 58.3428 33.1088 57.8806 33.1088C57.0285 33.1088 56.3759 32.8686 55.9227 32.3882C55.4786 31.9078 55.2565 31.2325 55.2565 30.3624V27.6431H53.9513V26.1068H55.2565V24.4888L57.3095 23.8226V26.1068H59.0634V27.6431H57.3095ZM72.9142 26.1068L69.7327 33.3671C69.343 34.2463 68.849 34.8899 68.2508 35.2977C67.6616 35.7147 66.9365 35.9821 66.0754 36.0999L65.5995 34.5228C66.234 34.3868 66.7099 34.2146 67.0271 34.0061C67.3534 33.7976 67.6072 33.494 67.7885 33.0952L67.9924 32.6465L65.1509 26.1068H67.299L69.0665 30.5799L70.8884 26.1068H72.9142ZM77.8366 33.1088C77.1024 33.1088 76.4588 32.9637 75.9059 32.6737C75.3621 32.3836 74.9406 31.9667 74.6415 31.4229C74.3514 30.879 74.2064 30.2445 74.2064 29.5194C74.2064 28.7943 74.3514 28.1598 74.6415 27.6159C74.9406 27.0721 75.3621 26.6552 75.9059 26.3651C76.4588 26.0751 77.1024 25.93 77.8366 25.93C78.5617 25.93 79.1962 26.0751 79.74 26.3651C80.2838 26.6552 80.7008 27.0721 80.9908 27.6159C81.29 28.1598 81.4395 28.7943 81.4395 29.5194C81.4395 30.2445 81.29 30.879 80.9908 31.4229C80.7008 31.9667 80.2838 32.3836 79.74 32.6737C79.1962 32.9637 78.5617 33.1088 77.8366 33.1088ZM77.8366 31.5452C78.3441 31.5452 78.7294 31.3775 78.9922 31.0422C79.2641 30.7068 79.4001 30.1992 79.4001 29.5194C79.4001 28.8487 79.2641 28.3456 78.9922 28.0102C78.7294 27.6658 78.3441 27.4936 77.8366 27.4936C77.3199 27.4936 76.9256 27.6658 76.6537 28.0102C76.3818 28.3456 76.2458 28.8487 76.2458 29.5194C76.2458 30.8699 76.7761 31.5452 77.8366 31.5452ZM90.42 26.1068V33H88.4213V31.9939C88.2038 32.3565 87.9183 32.6329 87.5648 32.8233C87.2113 33.0136 86.8125 33.1088 86.3683 33.1088C85.5072 33.1088 84.8637 32.8686 84.4377 32.3882C84.0117 31.9078 83.7987 31.1827 83.7987 30.2128V26.1068H85.8517V30.2536C85.8517 31.0875 86.2097 31.5044 86.9258 31.5044C87.3518 31.5044 87.6962 31.3594 87.9591 31.0694C88.2219 30.7793 88.3533 30.3986 88.3533 29.9273V26.1068H90.42ZM97.1833 25.9436C97.4733 25.9436 97.718 25.9889 97.9175 26.0796L97.9039 27.9558C97.5685 27.8018 97.2331 27.7247 96.8977 27.7247C96.3539 27.7247 95.937 27.8743 95.6469 28.1734C95.3659 28.4634 95.2254 28.8713 95.2254 29.397V33H93.1724V28.0782C93.1724 27.344 93.1362 26.6869 93.0636 26.1068H94.9943L95.1303 27.2896C95.3025 26.8546 95.5699 26.5237 95.9324 26.2971C96.3041 26.0615 96.721 25.9436 97.1833 25.9436ZM113.273 23.3196V33H111.696L106.869 26.8274V33H104.884V23.3196H106.448L111.274 29.4786V23.3196H113.273ZM116.302 23.3196H122.828V24.9919H118.396V27.2353H122.556V28.9212H118.396V33H116.302V23.3196ZM127.732 25.0463H124.7V23.3196H132.912V25.0463H129.88V33H127.732V25.0463Z" fill="white"/>
</svg>
