<svg width="78" height="12" viewBox="0 0 78 12" fill="none" xmlns="http://www.w3.org/2000/svg">
<path d="M4.58977 11.1224C3.85558 11.1224 3.14858 11.0272 2.46877 10.8368C1.79803 10.6374 1.24059 10.361 0.796454 10.0075L1.47626 8.48472C2.40986 9.13733 3.45222 9.46364 4.60336 9.46364C5.21972 9.46364 5.69105 9.36847 6.01736 9.17812C6.35273 8.97871 6.52041 8.70226 6.52041 8.34876C6.52041 8.04058 6.36632 7.80038 6.05814 7.62817C5.75903 7.44689 5.22878 7.27467 4.4674 7.11152C3.61538 6.9393 2.93557 6.73083 2.42799 6.4861C1.92946 6.2323 1.56237 5.92866 1.3267 5.57516C1.1001 5.21259 0.986799 4.76392 0.986799 4.22914C0.986799 3.64904 1.14542 3.12786 1.46266 2.66559C1.78897 2.20332 2.24217 1.84529 2.82227 1.5915C3.40237 1.32864 4.07311 1.19721 4.8345 1.19721C5.52336 1.19721 6.18504 1.29692 6.81953 1.49633C7.45401 1.69574 7.9616 1.96766 8.34229 2.31209L7.66248 3.83486C6.81046 3.18224 5.87233 2.85594 4.84809 2.85594C4.30425 2.85594 3.86917 2.96471 3.54287 3.18224C3.21656 3.39978 3.05341 3.69436 3.05341 4.06599C3.05341 4.28353 3.11232 4.46481 3.23016 4.60983C3.35705 4.75486 3.56553 4.88629 3.85558 5.00412C4.14563 5.11289 4.55804 5.22166 5.09282 5.33043C6.3346 5.60235 7.22741 5.95585 7.77125 6.39092C8.32416 6.826 8.60061 7.41969 8.60061 8.17201C8.60061 9.07842 8.24712 9.79901 7.54012 10.3338C6.83312 10.8595 5.84967 11.1224 4.58977 11.1224ZM17.278 7.72334H12.7369C12.7732 8.36689 12.9408 8.83822 13.24 9.13733C13.5391 9.42738 13.9832 9.57241 14.5724 9.57241C14.9259 9.57241 15.2794 9.51349 15.6329 9.39566C15.9864 9.27783 16.3127 9.10561 16.6118 8.87901L17.1556 10.2658C16.8293 10.5287 16.4215 10.7371 15.932 10.8912C15.4516 11.0363 14.9667 11.1088 14.4772 11.1088C13.317 11.1088 12.4061 10.7915 11.7444 10.157C11.0827 9.51349 10.7519 8.63881 10.7519 7.53299C10.7519 6.83506 10.8924 6.21417 11.1734 5.67033C11.4634 5.11742 11.8668 4.69141 12.3834 4.3923C12.9001 4.08412 13.4847 3.93003 14.1373 3.93003C15.1072 3.93003 15.8731 4.24727 16.435 4.88176C16.997 5.50718 17.278 6.35467 17.278 7.42423V7.72334ZM14.1917 5.37121C13.8019 5.37121 13.4847 5.48452 13.24 5.71112C13.0043 5.93772 12.8502 6.26856 12.7777 6.70363H15.5105C15.4017 5.81535 14.9621 5.37121 14.1917 5.37121ZM19.6547 0.993271H21.7077V11H19.6547V0.993271ZM30.6595 7.72334H26.1184C26.1547 8.36689 26.3224 8.83822 26.6215 9.13733C26.9206 9.42738 27.3648 9.57241 27.9539 9.57241C28.3074 9.57241 28.6609 9.51349 29.0144 9.39566C29.3679 9.27783 29.6942 9.10561 29.9933 8.87901L30.5372 10.2658C30.2109 10.5287 29.803 10.7371 29.3135 10.8912C28.8331 11.0363 28.3482 11.1088 27.8587 11.1088C26.6985 11.1088 25.7876 10.7915 25.1259 10.157C24.4643 9.51349 24.1334 8.63881 24.1334 7.53299C24.1334 6.83506 24.2739 6.21417 24.5549 5.67033C24.8449 5.11742 25.2483 4.69141 25.7649 4.3923C26.2816 4.08412 26.8662 3.93003 27.5188 3.93003C28.4887 3.93003 29.2546 4.24727 29.8166 4.88176C30.3786 5.50718 30.6595 6.35467 30.6595 7.42423V7.72334ZM27.5732 5.37121C27.1835 5.37121 26.8662 5.48452 26.6215 5.71112C26.3858 5.93772 26.2317 6.26856 26.1592 6.70363H28.892C28.7833 5.81535 28.3437 5.37121 27.5732 5.37121ZM36.2993 11.1088C35.1753 11.1088 34.2916 10.7915 33.648 10.157C33.0135 9.52256 32.6963 8.65694 32.6963 7.56019C32.6963 6.84413 32.8504 6.21417 33.1586 5.67033C33.4667 5.11742 33.8973 4.69141 34.4502 4.3923C35.0122 4.08412 35.6602 3.93003 36.3944 3.93003C36.893 3.93003 37.3779 4.00707 37.8492 4.16116C38.3206 4.31525 38.6967 4.52372 38.9777 4.78658L38.4339 6.21417C38.1619 5.99664 37.8628 5.82895 37.5365 5.71112C37.2102 5.58422 36.893 5.52077 36.5848 5.52077C36.0228 5.52077 35.5832 5.69299 35.266 6.03742C34.9578 6.37279 34.8037 6.86679 34.8037 7.5194C34.8037 8.18108 34.9578 8.68413 35.266 9.02857C35.5741 9.36394 36.0137 9.53162 36.5848 9.53162C36.893 9.53162 37.2102 9.4727 37.5365 9.35487C37.8628 9.22798 38.1619 9.05576 38.4339 8.83822L38.9777 10.2658C38.6786 10.5287 38.2888 10.7371 37.8084 10.8912C37.328 11.0363 36.825 11.1088 36.2993 11.1088ZM43.6911 5.64314V8.32157C43.6911 8.70226 43.7908 8.98325 43.9902 9.16453C44.1896 9.33674 44.4479 9.42285 44.7652 9.42285C44.9646 9.42285 45.1912 9.39113 45.445 9.32768V10.9184C45.1187 11.0453 44.7244 11.1088 44.2621 11.1088C43.4101 11.1088 42.7575 10.8686 42.3043 10.3882C41.8601 9.90778 41.6381 9.23251 41.6381 8.36236V5.64314H40.3328V4.10678H41.6381V2.48884L43.6911 1.82263V4.10678H45.445V5.64314H43.6911ZM52.6337 1.31958H59.1598V2.9919H54.7275V5.23525H58.8879V6.92117H54.7275V11H52.6337V1.31958ZM61.4457 4.10678H63.4987V11H61.4457V4.10678ZM63.5667 0.870906V2.80155H61.3777V0.870906H63.5667ZM66.2643 0.993271H68.3173V11H66.2643V0.993271ZM77.2692 7.72334H72.7281C72.7644 8.36689 72.932 8.83822 73.2312 9.13733C73.5303 9.42738 73.9744 9.57241 74.5636 9.57241C74.9171 9.57241 75.2706 9.51349 75.6241 9.39566C75.9776 9.27783 76.3039 9.10561 76.603 8.87901L77.1468 10.2658C76.8205 10.5287 76.4126 10.7371 75.9232 10.8912C75.4428 11.0363 74.9579 11.1088 74.4684 11.1088C73.3082 11.1088 72.3973 10.7915 71.7356 10.157C71.0739 9.51349 70.7431 8.63881 70.7431 7.53299C70.7431 6.83506 70.8836 6.21417 71.1645 5.67033C71.4546 5.11742 71.8579 4.69141 72.3746 4.3923C72.8913 4.08412 73.4759 3.93003 74.1285 3.93003C75.0984 3.93003 75.8643 4.24727 76.4262 4.88176C76.9882 5.50718 77.2692 6.35467 77.2692 7.42423V7.72334ZM74.1829 5.37121C73.7931 5.37121 73.4759 5.48452 73.2312 5.71112C72.9955 5.93772 72.8414 6.26856 72.7689 6.70363H75.5017C75.3929 5.81535 74.9533 5.37121 74.1829 5.37121Z" fill="#9B9EAA"/>
</svg>
