<svg width="443" height="24" viewBox="0 0 443 24" fill="none" xmlns="http://www.w3.org/2000/svg">
<path d="M8.6 18.216C6.92 18.216 5.448 17.856 4.184 17.136C2.936 16.416 1.976 15.4 1.304 14.088C0.632 12.76 0.296 11.208 0.296 9.432C0.296 7.672 0.632 6.136 1.304 4.824C1.976 3.496 2.936 2.48 4.184 1.776C5.448 1.056 6.92 0.696 8.6 0.696C9.752 0.696 10.832 0.88 11.84 1.248C12.864 1.6 13.712 2.096 14.384 2.736L13.376 4.992C12.608 4.368 11.84 3.92 11.072 3.648C10.32 3.36 9.512 3.216 8.648 3.216C7 3.216 5.72 3.752 4.808 4.824C3.912 5.896 3.464 7.432 3.464 9.432C3.464 11.448 3.912 13 4.808 14.088C5.704 15.16 6.984 15.696 8.648 15.696C9.512 15.696 10.32 15.56 11.072 15.288C11.84 15 12.608 14.544 13.376 13.92L14.384 16.176C13.712 16.816 12.864 17.32 11.84 17.688C10.832 18.04 9.752 18.216 8.6 18.216ZM22.3233 18.192C21.0913 18.192 20.0033 17.936 19.0593 17.424C18.1313 16.912 17.4113 16.184 16.8993 15.24C16.4033 14.28 16.1553 13.16 16.1553 11.88C16.1553 10.6 16.4033 9.488 16.8993 8.544C17.4113 7.584 18.1313 6.848 19.0593 6.336C20.0033 5.824 21.0913 5.568 22.3233 5.568C23.5393 5.568 24.6113 5.824 25.5393 6.336C26.4673 6.848 27.1793 7.584 27.6753 8.544C28.1873 9.488 28.4433 10.6 28.4433 11.88C28.4433 13.16 28.1873 14.28 27.6753 15.24C27.1793 16.184 26.4673 16.912 25.5393 17.424C24.6113 17.936 23.5393 18.192 22.3233 18.192ZM22.2993 15.84C23.3233 15.84 24.0993 15.512 24.6273 14.856C25.1713 14.184 25.4433 13.192 25.4433 11.88C25.4433 10.584 25.1713 9.6 24.6273 8.928C24.0833 8.24 23.3153 7.896 22.3233 7.896C21.3153 7.896 20.5393 8.24 19.9953 8.928C19.4513 9.6 19.1793 10.584 19.1793 11.88C19.1793 13.192 19.4433 14.184 19.9713 14.856C20.5153 15.512 21.2913 15.84 22.2993 15.84ZM37.9664 5.568C40.8624 5.568 42.3104 7.232 42.3104 10.56V18H39.3104V10.704C39.3104 9.744 39.1264 9.048 38.7584 8.616C38.3904 8.168 37.8224 7.944 37.0544 7.944C36.1424 7.944 35.4064 8.24 34.8464 8.832C34.2864 9.408 34.0064 10.176 34.0064 11.136V18H31.0304V9.312C31.0304 8.032 30.9664 6.888 30.8384 5.88H33.6464L33.8624 7.872C34.2784 7.136 34.8384 6.568 35.5424 6.168C36.2624 5.768 37.0704 5.568 37.9664 5.568ZM52.4274 5.568C55.3234 5.568 56.7714 7.232 56.7714 10.56V18H53.7714V10.704C53.7714 9.744 53.5874 9.048 53.2194 8.616C52.8514 8.168 52.2834 7.944 51.5154 7.944C50.6034 7.944 49.8674 8.24 49.3074 8.832C48.7474 9.408 48.4674 10.176 48.4674 11.136V18H45.4914V9.312C45.4914 8.032 45.4274 6.888 45.2994 5.88H48.1074L48.3234 7.872C48.7394 7.136 49.2994 6.568 50.0034 6.168C50.7234 5.768 51.5314 5.568 52.4274 5.568ZM70.5603 12.096H62.2083C62.2723 13.392 62.5923 14.352 63.1683 14.976C63.7603 15.584 64.6323 15.888 65.7843 15.888C67.1123 15.888 68.3443 15.456 69.4803 14.592L70.3443 16.656C69.7683 17.12 69.0563 17.496 68.2083 17.784C67.3763 18.056 66.5283 18.192 65.6643 18.192C63.6803 18.192 62.1203 17.632 60.9843 16.512C59.8483 15.392 59.2803 13.856 59.2803 11.904C59.2803 10.672 59.5283 9.576 60.0243 8.616C60.5203 7.656 61.2163 6.912 62.1123 6.384C63.0083 5.84 64.0243 5.568 65.1603 5.568C66.8243 5.568 68.1363 6.112 69.0963 7.2C70.0723 8.272 70.5603 9.752 70.5603 11.64V12.096ZM65.2323 7.728C64.4323 7.728 63.7763 7.968 63.2643 8.448C62.7683 8.912 62.4483 9.592 62.3043 10.488H67.9443C67.8483 9.576 67.5683 8.888 67.1043 8.424C66.6563 7.96 66.0323 7.728 65.2323 7.728ZM78.5968 18.192C77.3328 18.192 76.2368 17.936 75.3088 17.424C74.3808 16.912 73.6688 16.192 73.1728 15.264C72.6768 14.32 72.4288 13.216 72.4288 11.952C72.4288 10.688 72.6848 9.576 73.1968 8.616C73.7248 7.656 74.4608 6.912 75.4048 6.384C76.3648 5.84 77.4688 5.568 78.7168 5.568C79.5808 5.568 80.4128 5.704 81.2128 5.976C82.0288 6.248 82.6768 6.624 83.1568 7.104L82.3168 9.216C81.8048 8.8 81.2608 8.488 80.6848 8.28C80.1088 8.056 79.5408 7.944 78.9808 7.944C77.8928 7.944 77.0448 8.288 76.4368 8.976C75.8288 9.648 75.5248 10.624 75.5248 11.904C75.5248 13.184 75.8208 14.16 76.4128 14.832C77.0208 15.504 77.8768 15.84 78.9808 15.84C79.5408 15.84 80.1088 15.728 80.6848 15.504C81.2608 15.28 81.8048 14.96 82.3168 14.544L83.1568 16.656C82.6448 17.136 81.9808 17.512 81.1648 17.784C80.3488 18.056 79.4928 18.192 78.5968 18.192ZM89.0574 8.136V13.56C89.0574 14.984 89.7214 15.696 91.0494 15.696C91.4174 15.696 91.8174 15.632 92.2494 15.504V17.88C91.7214 18.072 91.0814 18.168 90.3294 18.168C88.9534 18.168 87.8974 17.784 87.1614 17.016C86.4254 16.248 86.0574 15.144 86.0574 13.704V8.136H83.7294V5.88H86.0574V2.928L89.0574 1.92V5.88H92.2734V8.136H89.0574ZM112.393 5.88L106.753 18.816C106.113 20.32 105.297 21.416 104.305 22.104C103.313 22.792 102.089 23.248 100.633 23.472L99.9611 21.168C101.097 20.912 101.945 20.584 102.505 20.184C103.081 19.8 103.545 19.224 103.897 18.456L104.281 17.568L99.2411 5.88H102.385L105.865 14.592L109.417 5.88H112.393ZM119.237 18.192C118.005 18.192 116.917 17.936 115.973 17.424C115.045 16.912 114.325 16.184 113.813 15.24C113.317 14.28 113.069 13.16 113.069 11.88C113.069 10.6 113.317 9.488 113.813 8.544C114.325 7.584 115.045 6.848 115.973 6.336C116.917 5.824 118.005 5.568 119.237 5.568C120.453 5.568 121.525 5.824 122.453 6.336C123.381 6.848 124.093 7.584 124.589 8.544C125.101 9.488 125.357 10.6 125.357 11.88C125.357 13.16 125.101 14.28 124.589 15.24C124.093 16.184 123.381 16.912 122.453 17.424C121.525 17.936 120.453 18.192 119.237 18.192ZM119.213 15.84C120.237 15.84 121.013 15.512 121.541 14.856C122.085 14.184 122.357 13.192 122.357 11.88C122.357 10.584 122.085 9.6 121.541 8.928C120.997 8.24 120.229 7.896 119.237 7.896C118.229 7.896 117.453 8.24 116.909 8.928C116.365 9.6 116.093 10.584 116.093 11.88C116.093 13.192 116.357 14.184 116.885 14.856C117.429 15.512 118.205 15.84 119.213 15.84ZM138.984 5.88V18H136.057V16.128C135.673 16.8 135.161 17.312 134.521 17.664C133.881 18.016 133.145 18.192 132.312 18.192C129.353 18.192 127.873 16.528 127.873 13.2V5.88H130.849V13.224C130.849 14.104 131.025 14.752 131.377 15.168C131.745 15.584 132.305 15.792 133.057 15.792C133.937 15.792 134.641 15.504 135.169 14.928C135.697 14.352 135.961 13.584 135.961 12.624V5.88H138.984ZM148.769 5.592C149.233 5.592 149.633 5.656 149.969 5.784L149.945 8.52C149.433 8.312 148.905 8.208 148.361 8.208C147.337 8.208 146.553 8.504 146.009 9.096C145.481 9.688 145.217 10.472 145.217 11.448V18H142.241V9.312C142.241 8.032 142.177 6.888 142.049 5.88H144.857L145.097 8.016C145.401 7.232 145.881 6.632 146.537 6.216C147.193 5.8 147.937 5.592 148.769 5.592ZM177.522 5.88L172.77 18H170.154L167.154 10.056L164.226 18H161.586L156.834 5.88H159.906L163.026 14.424L166.17 5.88H168.33L171.474 14.496L174.594 5.88H177.522ZM190.794 5.88V18H187.842V16.056C187.474 16.728 186.946 17.256 186.258 17.64C185.57 18.008 184.786 18.192 183.906 18.192C182.85 18.192 181.914 17.936 181.098 17.424C180.282 16.912 179.65 16.184 179.202 15.24C178.754 14.296 178.53 13.2 178.53 11.952C178.53 10.704 178.754 9.6 179.202 8.64C179.666 7.664 180.306 6.912 181.122 6.384C181.938 5.84 182.866 5.568 183.906 5.568C184.786 5.568 185.57 5.76 186.258 6.144C186.946 6.512 187.474 7.032 187.842 7.704V5.88H190.794ZM184.722 15.84C185.714 15.84 186.482 15.496 187.026 14.808C187.57 14.12 187.842 13.152 187.842 11.904C187.842 10.624 187.57 9.64 187.026 8.952C186.482 8.264 185.706 7.92 184.698 7.92C183.706 7.92 182.93 8.28 182.37 9C181.826 9.704 181.554 10.688 181.554 11.952C181.554 13.2 181.826 14.16 182.37 14.832C182.93 15.504 183.714 15.84 184.722 15.84ZM194.062 0.335999H197.038V18H194.062V0.335999ZM200.32 0.335999H203.296V18H200.32V0.335999ZM217.185 12.096H208.833C208.897 13.392 209.217 14.352 209.793 14.976C210.385 15.584 211.257 15.888 212.409 15.888C213.737 15.888 214.969 15.456 216.105 14.592L216.969 16.656C216.393 17.12 215.681 17.496 214.833 17.784C214.001 18.056 213.153 18.192 212.289 18.192C210.305 18.192 208.745 17.632 207.609 16.512C206.473 15.392 205.905 13.856 205.905 11.904C205.905 10.672 206.153 9.576 206.649 8.616C207.145 7.656 207.841 6.912 208.737 6.384C209.633 5.84 210.649 5.568 211.785 5.568C213.449 5.568 214.761 6.112 215.721 7.2C216.697 8.272 217.185 9.752 217.185 11.64V12.096ZM211.857 7.728C211.057 7.728 210.401 7.968 209.889 8.448C209.393 8.912 209.073 9.592 208.929 10.488H214.569C214.473 9.576 214.193 8.888 213.729 8.424C213.281 7.96 212.657 7.728 211.857 7.728ZM223.378 8.136V13.56C223.378 14.984 224.042 15.696 225.37 15.696C225.738 15.696 226.138 15.632 226.57 15.504V17.88C226.042 18.072 225.402 18.168 224.65 18.168C223.274 18.168 222.218 17.784 221.482 17.016C220.746 16.248 220.378 15.144 220.378 13.704V8.136H218.05V5.88H220.378V2.928L223.378 1.92V5.88H226.594V8.136H223.378ZM239.057 8.136V13.56C239.057 14.984 239.721 15.696 241.049 15.696C241.417 15.696 241.817 15.632 242.249 15.504V17.88C241.721 18.072 241.081 18.168 240.329 18.168C238.953 18.168 237.897 17.784 237.161 17.016C236.425 16.248 236.057 15.144 236.057 13.704V8.136H233.729V5.88H236.057V2.928L239.057 1.92V5.88H242.273V8.136H239.057ZM249.831 18.192C248.599 18.192 247.511 17.936 246.567 17.424C245.639 16.912 244.919 16.184 244.407 15.24C243.911 14.28 243.663 13.16 243.663 11.88C243.663 10.6 243.911 9.488 244.407 8.544C244.919 7.584 245.639 6.848 246.567 6.336C247.511 5.824 248.599 5.568 249.831 5.568C251.047 5.568 252.119 5.824 253.047 6.336C253.975 6.848 254.687 7.584 255.183 8.544C255.695 9.488 255.951 10.6 255.951 11.88C255.951 13.16 255.695 14.28 255.183 15.24C254.687 16.184 253.975 16.912 253.047 17.424C252.119 17.936 251.047 18.192 249.831 18.192ZM249.807 15.84C250.831 15.84 251.607 15.512 252.135 14.856C252.679 14.184 252.951 13.192 252.951 11.88C252.951 10.584 252.679 9.6 252.135 8.928C251.591 8.24 250.823 7.896 249.831 7.896C248.823 7.896 248.047 8.24 247.503 8.928C246.959 9.6 246.687 10.584 246.687 11.88C246.687 13.192 246.951 14.184 247.479 14.856C248.023 15.512 248.799 15.84 249.807 15.84ZM276.596 5.904L271.292 18H268.676L263.444 5.904H266.588L270.068 14.592L273.62 5.904H276.596ZM278.155 5.88H281.131V18H278.155V5.88ZM281.299 0.383999V3.336H277.963V0.383999H281.299ZM295.021 12.096H286.669C286.733 13.392 287.053 14.352 287.629 14.976C288.221 15.584 289.093 15.888 290.245 15.888C291.573 15.888 292.805 15.456 293.941 14.592L294.805 16.656C294.229 17.12 293.517 17.496 292.669 17.784C291.837 18.056 290.989 18.192 290.125 18.192C288.141 18.192 286.581 17.632 285.445 16.512C284.309 15.392 283.741 13.856 283.741 11.904C283.741 10.672 283.989 9.576 284.485 8.616C284.981 7.656 285.677 6.912 286.573 6.384C287.469 5.84 288.485 5.568 289.621 5.568C291.285 5.568 292.597 6.112 293.557 7.2C294.533 8.272 295.021 9.752 295.021 11.64V12.096ZM289.693 7.728C288.893 7.728 288.237 7.968 287.725 8.448C287.229 8.912 286.909 9.592 286.765 10.488H292.405C292.309 9.576 292.029 8.888 291.565 8.424C291.117 7.96 290.493 7.728 289.693 7.728ZM316.647 5.88L311.895 18H309.279L306.279 10.056L303.351 18H300.711L295.959 5.88H299.031L302.151 14.424L305.295 5.88H307.455L310.599 14.496L313.719 5.88H316.647ZM336.596 5.88L330.956 18.816C330.316 20.32 329.5 21.416 328.508 22.104C327.516 22.792 326.292 23.248 324.836 23.472L324.164 21.168C325.3 20.912 326.148 20.584 326.708 20.184C327.284 19.8 327.748 19.224 328.1 18.456L328.484 17.568L323.444 5.88H326.588L330.068 14.592L333.62 5.88H336.596ZM343.441 18.192C342.209 18.192 341.121 17.936 340.177 17.424C339.249 16.912 338.529 16.184 338.017 15.24C337.521 14.28 337.273 13.16 337.273 11.88C337.273 10.6 337.521 9.488 338.017 8.544C338.529 7.584 339.249 6.848 340.177 6.336C341.121 5.824 342.209 5.568 343.441 5.568C344.657 5.568 345.729 5.824 346.657 6.336C347.585 6.848 348.297 7.584 348.793 8.544C349.305 9.488 349.561 10.6 349.561 11.88C349.561 13.16 349.305 14.28 348.793 15.24C348.297 16.184 347.585 16.912 346.657 17.424C345.729 17.936 344.657 18.192 343.441 18.192ZM343.417 15.84C344.441 15.84 345.217 15.512 345.745 14.856C346.289 14.184 346.561 13.192 346.561 11.88C346.561 10.584 346.289 9.6 345.745 8.928C345.201 8.24 344.433 7.896 343.441 7.896C342.433 7.896 341.657 8.24 341.113 8.928C340.569 9.6 340.297 10.584 340.297 11.88C340.297 13.192 340.561 14.184 341.089 14.856C341.633 15.512 342.409 15.84 343.417 15.84ZM363.188 5.88V18H360.26V16.128C359.876 16.8 359.364 17.312 358.724 17.664C358.084 18.016 357.348 18.192 356.516 18.192C353.556 18.192 352.076 16.528 352.076 13.2V5.88H355.052V13.224C355.052 14.104 355.228 14.752 355.58 15.168C355.948 15.584 356.508 15.792 357.26 15.792C358.14 15.792 358.844 15.504 359.372 14.928C359.9 14.352 360.164 13.584 360.164 12.624V5.88H363.188ZM372.973 5.592C373.437 5.592 373.837 5.656 374.173 5.784L374.149 8.52C373.637 8.312 373.109 8.208 372.565 8.208C371.541 8.208 370.757 8.504 370.213 9.096C369.685 9.688 369.421 10.472 369.421 11.448V18H366.445V9.312C366.445 8.032 366.381 6.888 366.253 5.88H369.061L369.301 8.016C369.605 7.232 370.085 6.632 370.741 6.216C371.397 5.8 372.141 5.592 372.973 5.592ZM397.045 0.912V18H394.741L385.525 6.024V18H382.645V0.912H384.949L394.141 12.864V0.912H397.045ZM400.762 0.912H411.922V3.384H403.834V8.064H411.442V10.56H403.834V18H400.762V0.912ZM418.786 3.456H413.218V0.912H427.498V3.456H421.906V18H418.786V3.456ZM431.963 18.192C429.771 18.192 428.027 17.68 426.731 16.656L427.571 14.544C428.867 15.504 430.347 15.984 432.011 15.984C432.731 15.984 433.283 15.864 433.667 15.624C434.067 15.384 434.267 15.048 434.267 14.616C434.267 14.248 434.131 13.96 433.859 13.752C433.587 13.528 433.123 13.336 432.467 13.176L430.451 12.72C428.243 12.24 427.139 11.112 427.139 9.336C427.139 8.6 427.347 7.952 427.763 7.392C428.179 6.816 428.763 6.368 429.515 6.048C430.267 5.728 431.139 5.568 432.131 5.568C432.995 5.568 433.827 5.704 434.627 5.976C435.427 6.232 436.131 6.608 436.739 7.104L435.851 9.144C434.635 8.248 433.387 7.8 432.107 7.8C431.419 7.8 430.883 7.928 430.499 8.184C430.115 8.44 429.923 8.792 429.923 9.24C429.923 9.592 430.035 9.872 430.259 10.08C430.499 10.288 430.899 10.464 431.459 10.608L433.523 11.064C434.723 11.336 435.595 11.76 436.139 12.336C436.699 12.896 436.979 13.632 436.979 14.544C436.979 15.664 436.531 16.552 435.635 17.208C434.739 17.864 433.515 18.192 431.963 18.192ZM442.477 14.64V18H439.117V14.64H442.477Z" fill="black"/>
</svg>
